<svg xmlns="http://www.w3.org/2000/svg" viewBox="0 0 500 383.19"><defs><style>.cls-1{fill:#ebebeb;}.cls-2{fill:#f0f0f0;}.cls-3{fill:#fafafa;}.cls-4{fill:#e0e0e0;}.cls-5{fill:#f5f5f5;}.cls-6{fill:#407bff;}.cls-7{fill:#cd388b;}.cls-8{fill:#263238;}.cls-10,.cls-13,.cls-14,.cls-17,.cls-19,.cls-24,.cls-9{fill:#fff;}.cls-11,.cls-9{opacity:0.4;}.cls-10,.cls-11,.cls-14,.cls-15,.cls-17,.cls-18,.cls-19,.cls-26,.cls-27,.cls-9{isolation:isolate;}.cls-10{opacity:0.6;}.cls-11{fill:#d4678a;}.cls-12,.cls-33{fill:#cf447e;}.cls-13{font-size:29px;font-family:Poppins-Bold, Poppins;font-weight:700;}.cls-14,.cls-15{opacity:0.2;}.cls-16{fill:#eec1bb;}.cls-17,.cls-27,.cls-28{opacity:0.1;}.cls-18{fill:#191113;opacity:0.74;}.cls-19{opacity:0.3;}.cls-20{fill:#b97964;}.cls-21{fill:#a24e3f;}.cls-22,.cls-32{fill:none;stroke:#263238;stroke-linecap:round;stroke-linejoin:round;}.cls-22{stroke-width:0.71px;}.cls-23{fill:#b42067;}.cls-24{opacity:0.5;}.cls-25{fill:#b40060;}.cls-29{fill:#e4897b;}.cls-30{fill:#ff94c7;}.cls-31{fill:#de5753;}.cls-32{stroke-width:0.56px;}.cls-33{stroke:#cc2565;stroke-miterlimit:10;}.cls-34{fill:#6c7bb9;}</style></defs><title>4042213</title><g id="Character_1" data-name="Character 1"><rect class="cls-1" y="327.45" width="500" height="0.25"/><rect class="cls-1" x="416.78" y="343.54" width="33.12" height="0.25"/><rect class="cls-1" x="322.53" y="346.26" width="8.69" height="0.25"/><rect class="cls-1" x="396.59" y="334.26" width="19.19" height="0.25"/><rect class="cls-1" x="52.46" y="335.94" width="43.19" height="0.25"/><rect class="cls-1" x="104.56" y="335.94" width="6.33" height="0.25"/><rect class="cls-1" x="131.47" y="340.16" width="93.68" height="0.25"/><path class="cls-1" d="M237,337.8H43.91a5.71,5.71,0,0,1-5.7-5.71V60.66A5.71,5.71,0,0,1,43.91,55H237a5.71,5.71,0,0,1,5.71,5.71V332.09A5.71,5.71,0,0,1,237,337.8ZM43.91,55.2a5.46,5.46,0,0,0-5.45,5.46V332.09a5.46,5.46,0,0,0,5.45,5.46H237a5.47,5.47,0,0,0,5.46-5.46V60.66A5.47,5.47,0,0,0,237,55.2Z" transform="translate(0 -54.95)"/><path class="cls-1" d="M453.31,337.8H260.21a5.72,5.72,0,0,1-5.71-5.71V60.66A5.72,5.72,0,0,1,260.21,55h193.1A5.71,5.71,0,0,1,459,60.66V332.09A5.71,5.71,0,0,1,453.31,337.8ZM260.21,55.2a5.47,5.47,0,0,0-5.46,5.46V332.09a5.47,5.47,0,0,0,5.46,5.46h193.1a5.47,5.47,0,0,0,5.46-5.46V60.66a5.47,5.47,0,0,0-5.46-5.46Z" transform="translate(0 -54.95)"/><polygon class="cls-1" points="64.31 320.78 64.31 247.96 68.31 247.96 68.31 225.65 74.16 225.65 74.16 148.09 82.62 148.09 82.62 138.08 100.69 129.65 100.69 119.56 103.19 119.56 103.19 148.09 106.69 148.09 106.69 225.65 110.19 225.65 110.19 184.87 119.7 184.87 119.7 163.85 122.36 163.85 122.36 225.65 129.58 225.65 129.58 202.13 134.33 202.13 134.33 196.13 145.34 196.13 145.34 175.61 151.37 175.61 151.37 161.1 158.78 161.1 158.78 139.95 161.43 139.95 161.43 161.1 168.84 161.1 168.84 175.61 174.87 175.61 174.87 196.13 185.88 196.13 185.88 202.13 190.63 202.13 190.63 225.65 196.27 225.65 196.27 196.13 207.28 196.13 207.28 132.57 210.78 132.57 210.78 125.57 234.3 125.57 234.3 132.57 239.31 132.57 239.31 178.61 259.32 178.61 259.32 183.12 266.83 183.12 266.83 186.62 259.32 186.62 259.32 204.63 280.34 204.63 280.34 144.58 284.84 144.58 284.84 131.82 294.6 131.82 294.6 86.53 297.35 86.53 297.35 131.82 304.36 131.82 304.36 144.58 345.43 144.58 345.43 140.38 347.94 140.38 347.94 168.91 351.44 168.91 351.44 169.41 353.54 169.41 353.54 197.93 357.05 197.93 357.05 205.69 364.45 205.69 364.45 184.67 367.1 184.67 367.1 234.71 370.06 234.71 370.06 213.69 372.71 213.69 372.71 246.47 374.32 246.47 374.32 222.95 379.08 222.95 379.08 216.95 390.09 216.95 390.09 196.43 396.12 196.43 396.12 181.92 403.53 181.92 403.53 160.78 406.17 160.78 406.17 181.92 413.58 181.92 413.58 196.43 419.61 196.43 419.61 216.95 430.62 216.95 430.62 222.95 435.38 222.95 435.38 245.97 436.23 245.97 436.23 246.47 438.58 246.47 438.58 320.78 64.31 320.78"/><rect class="cls-2" x="319.68" y="147.39" width="2.84" height="2.84"/><rect class="cls-2" x="319.68" y="152.14" width="2.84" height="2.84"/><rect class="cls-2" x="319.68" y="171.16" width="2.84" height="2.84"/><rect class="cls-2" x="319.68" y="175.91" width="2.84" height="2.84"/><rect class="cls-2" x="319.68" y="180.67" width="2.84" height="2.84"/><rect class="cls-2" x="319.68" y="194.93" width="2.84" height="2.84"/><rect class="cls-2" x="319.68" y="199.68" width="2.84" height="2.84"/><rect class="cls-2" x="315.18" y="166.41" width="2.84" height="2.84"/><rect class="cls-2" x="315.18" y="171.16" width="2.84" height="2.84"/><rect class="cls-2" x="315.18" y="175.91" width="2.84" height="2.84"/><rect class="cls-2" x="315.18" y="180.67" width="2.84" height="2.84"/><rect class="cls-2" x="315.18" y="185.42" width="2.84" height="2.84"/><rect class="cls-2" x="315.18" y="194.93" width="2.84" height="2.84"/><rect class="cls-2" x="315.18" y="199.68" width="2.84" height="2.84"/><rect class="cls-2" x="310.67" y="147.39" width="2.84" height="2.84"/><rect class="cls-2" x="310.67" y="152.14" width="2.84" height="2.84"/><rect class="cls-2" x="310.67" y="156.9" width="2.84" height="2.84"/><rect class="cls-2" x="310.67" y="161.65" width="2.84" height="2.84"/><rect class="cls-2" x="310.67" y="166.41" width="2.84" height="2.84"/><rect class="cls-2" x="310.67" y="171.16" width="2.84" height="2.84"/><rect class="cls-2" x="310.67" y="175.91" width="2.84" height="2.84"/><rect class="cls-2" x="310.67" y="180.67" width="2.84" height="2.84"/><rect class="cls-2" x="310.67" y="185.42" width="2.84" height="2.84"/><rect class="cls-2" x="310.67" y="190.18" width="2.84" height="2.84"/><rect class="cls-2" x="310.67" y="199.68" width="2.84" height="2.84"/><rect class="cls-2" x="306.17" y="147.39" width="2.84" height="2.84"/><rect class="cls-2" x="306.17" y="152.14" width="2.84" height="2.84"/><rect class="cls-2" x="306.17" y="156.9" width="2.84" height="2.84"/><rect class="cls-2" x="306.17" y="161.65" width="2.84" height="2.84"/><rect class="cls-2" x="306.17" y="166.41" width="2.84" height="2.84"/><rect class="cls-2" x="306.17" y="171.16" width="2.84" height="2.84"/><rect class="cls-2" x="306.17" y="175.91" width="2.84" height="2.84"/><rect class="cls-2" x="306.17" y="218.7" width="2.84" height="2.84"/><rect class="cls-2" x="301.67" y="147.39" width="2.84" height="2.84"/><rect class="cls-2" x="301.67" y="152.14" width="2.84" height="2.84"/><rect class="cls-2" x="301.67" y="156.9" width="2.84" height="2.84"/><rect class="cls-2" x="301.67" y="161.65" width="2.84" height="2.84"/><rect class="cls-2" x="301.67" y="166.41" width="2.84" height="2.84"/><rect class="cls-2" x="301.67" y="171.16" width="2.84" height="2.84"/><rect class="cls-2" x="301.67" y="175.91" width="2.84" height="2.84"/><rect class="cls-2" x="301.67" y="180.67" width="2.84" height="2.84"/><rect class="cls-2" x="301.67" y="209.19" width="2.84" height="2.84"/><rect class="cls-2" x="301.67" y="213.95" width="2.84" height="2.84"/><rect class="cls-2" x="301.67" y="218.7" width="2.84" height="2.84"/><rect class="cls-2" x="301.67" y="223.45" width="2.84" height="2.84"/><rect class="cls-2" x="301.67" y="242.47" width="2.84" height="2.84"/><rect class="cls-2" x="297.16" y="147.39" width="2.84" height="2.84"/><rect class="cls-2" x="297.16" y="152.14" width="2.84" height="2.84"/><rect class="cls-2" x="297.16" y="156.9" width="2.84" height="2.84"/><rect class="cls-2" x="297.16" y="161.65" width="2.84" height="2.84"/><rect class="cls-2" x="297.16" y="166.41" width="2.84" height="2.84"/><rect class="cls-2" x="297.16" y="171.16" width="2.84" height="2.84"/><rect class="cls-2" x="297.16" y="175.91" width="2.84" height="2.84"/><rect class="cls-2" x="297.16" y="180.67" width="2.84" height="2.84"/><rect class="cls-2" x="297.16" y="185.42" width="2.84" height="2.84"/><rect class="cls-2" x="297.16" y="190.18" width="2.84" height="2.84"/><rect class="cls-2" x="297.16" y="204.44" width="2.84" height="2.84"/><rect class="cls-2" x="297.16" y="209.19" width="2.84" height="2.84"/><rect class="cls-2" x="297.16" y="213.95" width="2.84" height="2.84"/><rect class="cls-2" x="297.16" y="218.7" width="2.84" height="2.84"/><rect class="cls-2" x="297.16" y="223.45" width="2.84" height="2.84"/><rect class="cls-2" x="297.16" y="242.47" width="2.84" height="2.84"/><rect class="cls-2" x="292.66" y="147.39" width="2.84" height="2.84"/><rect class="cls-2" x="292.66" y="152.14" width="2.84" height="2.84"/><rect class="cls-2" x="292.66" y="156.9" width="2.84" height="2.84"/><rect class="cls-2" x="292.66" y="161.65" width="2.84" height="2.84"/><rect class="cls-2" x="292.66" y="166.41" width="2.84" height="2.84"/><rect class="cls-2" x="292.66" y="171.16" width="2.84" height="2.84"/><rect class="cls-2" x="292.66" y="175.91" width="2.84" height="2.84"/><rect class="cls-2" x="292.66" y="180.67" width="2.84" height="2.84"/><rect class="cls-2" x="292.66" y="185.42" width="2.84" height="2.84"/><rect class="cls-2" x="292.66" y="190.18" width="2.84" height="2.84"/><rect class="cls-2" x="292.66" y="194.93" width="2.84" height="2.84"/><rect class="cls-2" x="292.66" y="199.68" width="2.84" height="2.84"/><rect class="cls-2" x="292.66" y="204.44" width="2.84" height="2.84"/><rect class="cls-2" x="292.66" y="209.19" width="2.84" height="2.84"/><rect class="cls-2" x="292.66" y="213.95" width="2.84" height="2.84"/><rect class="cls-2" x="292.66" y="218.7" width="2.84" height="2.84"/><rect class="cls-2" x="292.66" y="223.45" width="2.84" height="2.84"/><rect class="cls-2" x="292.66" y="228.21" width="2.84" height="2.84"/><rect class="cls-2" x="288.15" y="147.39" width="2.84" height="2.84"/><rect class="cls-2" x="288.15" y="152.14" width="2.84" height="2.84"/><rect class="cls-2" x="288.15" y="156.9" width="2.84" height="2.84"/><rect class="cls-2" x="288.15" y="161.65" width="2.84" height="2.84"/><rect class="cls-2" x="288.15" y="166.41" width="2.84" height="2.84"/><rect class="cls-2" x="288.15" y="171.16" width="2.84" height="2.84"/><rect class="cls-2" x="288.15" y="175.91" width="2.84" height="2.84"/><rect class="cls-2" x="288.15" y="180.67" width="2.84" height="2.84"/><rect class="cls-2" x="288.15" y="185.42" width="2.84" height="2.84"/><rect class="cls-2" x="288.15" y="190.18" width="2.84" height="2.84"/><rect class="cls-2" x="288.15" y="204.44" width="2.84" height="2.84"/><rect class="cls-2" x="288.15" y="209.19" width="2.84" height="2.84"/><rect class="cls-2" x="288.15" y="213.95" width="2.84" height="2.84"/><rect class="cls-2" x="288.15" y="218.7" width="2.84" height="2.84"/><rect class="cls-2" x="283.65" y="147.39" width="2.84" height="2.84"/><rect class="cls-2" x="283.65" y="152.14" width="2.84" height="2.84"/><rect class="cls-2" x="283.65" y="156.9" width="2.84" height="2.84"/><rect class="cls-2" x="283.65" y="161.65" width="2.84" height="2.84"/><rect class="cls-2" x="283.65" y="166.41" width="2.84" height="2.84"/><rect class="cls-2" x="283.65" y="171.16" width="2.84" height="2.84"/><rect class="cls-2" x="283.65" y="175.91" width="2.84" height="2.84"/><rect class="cls-2" x="283.65" y="180.67" width="2.84" height="2.84"/><rect class="cls-2" x="283.65" y="185.42" width="2.84" height="2.84"/><rect class="cls-2" x="283.65" y="190.18" width="2.84" height="2.84"/><rect class="cls-2" x="283.65" y="204.44" width="2.84" height="2.84"/><rect class="cls-2" x="283.65" y="209.19" width="2.84" height="2.84"/><rect class="cls-2" x="283.65" y="213.95" width="2.84" height="2.84"/><rect class="cls-2" x="232.94" y="135.05" width="2.84" height="2.84"/><rect class="cls-2" x="232.94" y="139.8" width="2.84" height="2.84"/><rect class="cls-2" x="232.94" y="144.55" width="2.84" height="2.84"/><rect class="cls-2" x="232.94" y="149.31" width="2.84" height="2.84"/><rect class="cls-2" x="232.94" y="154.06" width="2.84" height="2.84"/><rect class="cls-2" x="232.94" y="158.82" width="2.84" height="2.84"/><rect class="cls-2" x="232.94" y="163.57" width="2.84" height="2.84"/><rect class="cls-2" x="232.94" y="168.32" width="2.84" height="2.84"/><rect class="cls-2" x="232.94" y="182.59" width="2.84" height="2.84"/><rect class="cls-2" x="232.94" y="187.34" width="2.84" height="2.84"/><rect class="cls-2" x="228.44" y="135.05" width="2.84" height="2.84"/><rect class="cls-2" x="228.44" y="139.8" width="2.84" height="2.84"/><rect class="cls-2" x="228.44" y="144.55" width="2.84" height="2.84"/><rect class="cls-2" x="228.44" y="149.31" width="2.84" height="2.84"/><rect class="cls-2" x="228.44" y="154.06" width="2.84" height="2.84"/><rect class="cls-2" x="228.44" y="158.82" width="2.84" height="2.84"/><rect class="cls-2" x="228.44" y="163.57" width="2.84" height="2.84"/><rect class="cls-2" x="228.44" y="168.32" width="2.84" height="2.84"/><rect class="cls-2" x="228.44" y="187.34" width="2.84" height="2.84"/><rect class="cls-2" x="223.93" y="135.05" width="2.84" height="2.84"/><rect class="cls-2" x="223.93" y="139.8" width="2.84" height="2.84"/><rect class="cls-2" x="223.93" y="144.55" width="2.84" height="2.84"/><rect class="cls-2" x="223.93" y="149.31" width="2.84" height="2.84"/><rect class="cls-2" x="223.93" y="154.06" width="2.84" height="2.84"/><rect class="cls-2" x="223.93" y="158.82" width="2.84" height="2.84"/><rect class="cls-2" x="223.93" y="163.57" width="2.84" height="2.84"/><rect class="cls-2" x="223.93" y="168.32" width="2.84" height="2.84"/><rect class="cls-2" x="219.43" y="135.05" width="2.84" height="2.84"/><rect class="cls-2" x="219.43" y="139.8" width="2.84" height="2.84"/><rect class="cls-2" x="219.43" y="144.55" width="2.84" height="2.84"/><rect class="cls-2" x="219.43" y="149.31" width="2.84" height="2.84"/><rect class="cls-2" x="219.43" y="154.06" width="2.84" height="2.84"/><rect class="cls-2" x="219.43" y="158.82" width="2.84" height="2.84"/><rect class="cls-2" x="219.43" y="168.32" width="2.84" height="2.84"/><rect class="cls-2" x="219.43" y="173.08" width="2.84" height="2.84"/><rect class="cls-2" x="219.43" y="187.34" width="2.84" height="2.84"/><rect class="cls-2" x="219.43" y="192.09" width="2.84" height="2.84"/><rect class="cls-2" x="219.43" y="196.85" width="2.84" height="2.84"/><rect class="cls-2" x="219.43" y="201.6" width="2.84" height="2.84"/><rect class="cls-2" x="219.43" y="206.36" width="2.84" height="2.84"/><rect class="cls-2" x="219.43" y="211.11" width="2.84" height="2.84"/><rect class="cls-2" x="219.43" y="215.86" width="2.84" height="2.84"/><rect class="cls-2" x="214.92" y="135.05" width="2.84" height="2.84"/><rect class="cls-2" x="214.92" y="139.8" width="2.84" height="2.84"/><rect class="cls-2" x="214.92" y="144.55" width="2.84" height="2.84"/><rect class="cls-2" x="214.92" y="149.31" width="2.84" height="2.84"/><rect class="cls-2" x="214.92" y="154.06" width="2.84" height="2.84"/><rect class="cls-2" x="214.92" y="158.82" width="2.84" height="2.84"/><rect class="cls-2" x="214.92" y="173.08" width="2.84" height="2.84"/><rect class="cls-2" x="214.92" y="177.83" width="2.84" height="2.84"/><rect class="cls-2" x="214.92" y="182.59" width="2.84" height="2.84"/><rect class="cls-2" x="214.92" y="187.34" width="2.84" height="2.84"/><rect class="cls-2" x="214.92" y="192.09" width="2.84" height="2.84"/><rect class="cls-2" x="214.92" y="196.85" width="2.84" height="2.84"/><rect class="cls-2" x="214.92" y="201.6" width="2.84" height="2.84"/><rect class="cls-2" x="214.92" y="206.36" width="2.84" height="2.84"/><rect class="cls-2" x="214.92" y="211.11" width="2.84" height="2.84"/><rect class="cls-2" x="214.92" y="215.86" width="2.84" height="2.84"/><rect class="cls-2" x="214.92" y="220.62" width="2.84" height="2.84"/><rect class="cls-2" x="214.92" y="230.13" width="2.84" height="2.84"/><rect class="cls-2" x="210.42" y="135.05" width="2.84" height="2.84"/><rect class="cls-2" x="210.42" y="139.8" width="2.84" height="2.84"/><rect class="cls-2" x="210.42" y="144.55" width="2.84" height="2.84"/><rect class="cls-2" x="210.42" y="149.31" width="2.84" height="2.84"/><rect class="cls-2" x="210.42" y="154.06" width="2.84" height="2.84"/><rect class="cls-2" x="210.42" y="158.82" width="2.84" height="2.84"/><rect class="cls-2" x="210.42" y="173.08" width="2.84" height="2.84"/><rect class="cls-2" x="210.42" y="177.83" width="2.84" height="2.84"/><rect class="cls-2" x="210.42" y="182.59" width="2.84" height="2.84"/><rect class="cls-2" x="210.42" y="187.34" width="2.84" height="2.84"/><rect class="cls-2" x="210.42" y="201.6" width="2.84" height="2.84"/><rect class="cls-2" x="210.42" y="206.36" width="2.84" height="2.84"/><rect class="cls-2" x="210.42" y="211.11" width="2.84" height="2.84"/><rect class="cls-2" x="210.42" y="215.86" width="2.84" height="2.84"/><rect class="cls-2" x="210.42" y="220.62" width="2.84" height="2.84"/><rect class="cls-2" x="210.42" y="230.13" width="2.84" height="2.84"/><rect class="cls-2" x="210.42" y="234.88" width="2.84" height="2.84"/><rect class="cls-2" x="169.55" y="179.25" width="2.84" height="2.84"/><rect class="cls-2" x="169.55" y="184" width="2.84" height="2.84"/><rect class="cls-2" x="169.55" y="188.76" width="2.84" height="2.84"/><rect class="cls-2" x="169.55" y="193.51" width="2.84" height="2.84"/><rect class="cls-2" x="169.55" y="198.27" width="2.84" height="2.84"/><rect class="cls-2" x="169.55" y="203.02" width="2.84" height="2.84"/><rect class="cls-2" x="169.55" y="207.77" width="2.84" height="2.84"/><rect class="cls-2" x="169.55" y="222.04" width="2.84" height="2.84"/><rect class="cls-2" x="169.55" y="226.79" width="2.84" height="2.84"/><rect class="cls-2" x="169.55" y="231.54" width="2.84" height="2.84"/><rect class="cls-2" x="165.05" y="179.25" width="2.84" height="2.84"/><rect class="cls-2" x="165.05" y="184" width="2.84" height="2.84"/><rect class="cls-2" x="165.05" y="188.76" width="2.84" height="2.84"/><rect class="cls-2" x="165.05" y="193.51" width="2.84" height="2.84"/><rect class="cls-2" x="165.05" y="198.27" width="2.84" height="2.84"/><rect class="cls-2" x="165.05" y="203.02" width="2.84" height="2.84"/><rect class="cls-2" x="165.05" y="207.77" width="2.84" height="2.84"/><rect class="cls-2" x="160.54" y="179.25" width="2.84" height="2.84"/><rect class="cls-2" x="160.54" y="184" width="2.84" height="2.84"/><rect class="cls-2" x="160.54" y="188.76" width="2.84" height="2.84"/><rect class="cls-2" x="160.54" y="193.51" width="2.84" height="2.84"/><rect class="cls-2" x="160.54" y="198.27" width="2.84" height="2.84"/><rect class="cls-2" x="160.54" y="203.02" width="2.84" height="2.84"/><rect class="cls-2" x="160.54" y="207.77" width="2.84" height="2.84"/><rect class="cls-2" x="156.04" y="179.25" width="2.84" height="2.84"/><rect class="cls-2" x="156.04" y="184" width="2.84" height="2.84"/><rect class="cls-2" x="156.04" y="188.76" width="2.84" height="2.84"/><rect class="cls-2" x="156.04" y="193.51" width="2.84" height="2.84"/><rect class="cls-2" x="156.04" y="198.27" width="2.84" height="2.84"/><rect class="cls-2" x="156.04" y="203.02" width="2.84" height="2.84"/><rect class="cls-2" x="156.04" y="207.77" width="2.84" height="2.84"/><rect class="cls-2" x="156.04" y="212.53" width="2.84" height="2.84"/><rect class="cls-2" x="156.04" y="217.28" width="2.84" height="2.84"/><rect class="cls-2" x="156.04" y="222.04" width="2.84" height="2.84"/><rect class="cls-2" x="156.04" y="226.79" width="2.84" height="2.84"/><rect class="cls-2" x="151.54" y="179.25" width="2.84" height="2.84"/><rect class="cls-2" x="151.54" y="184" width="2.84" height="2.84"/><rect class="cls-2" x="151.54" y="188.76" width="2.84" height="2.84"/><rect class="cls-2" x="151.54" y="193.51" width="2.84" height="2.84"/><rect class="cls-2" x="151.54" y="198.27" width="2.84" height="2.84"/><rect class="cls-2" x="151.54" y="203.02" width="2.84" height="2.84"/><rect class="cls-2" x="151.54" y="207.77" width="2.84" height="2.84"/><rect class="cls-2" x="151.54" y="212.53" width="2.84" height="2.84"/><rect class="cls-2" x="151.54" y="217.28" width="2.84" height="2.84"/><rect class="cls-2" x="151.54" y="222.04" width="2.84" height="2.84"/><rect class="cls-2" x="151.54" y="226.79" width="2.84" height="2.84"/><rect class="cls-2" x="151.54" y="231.54" width="2.84" height="2.84"/><rect class="cls-2" x="151.54" y="245.81" width="2.84" height="2.84"/><rect class="cls-2" x="151.54" y="250.56" width="2.84" height="2.84"/><rect class="cls-2" x="147.03" y="179.25" width="2.84" height="2.84"/><rect class="cls-2" x="147.03" y="184" width="2.84" height="2.84"/><rect class="cls-2" x="147.03" y="188.76" width="2.84" height="2.84"/><rect class="cls-2" x="147.03" y="203.02" width="2.84" height="2.84"/><rect class="cls-2" x="147.03" y="207.77" width="2.84" height="2.84"/><rect class="cls-2" x="147.03" y="212.53" width="2.84" height="2.84"/><rect class="cls-2" x="147.03" y="217.28" width="2.84" height="2.84"/><rect class="cls-2" x="147.03" y="222.04" width="2.84" height="2.84"/><rect class="cls-2" x="147.03" y="226.79" width="2.84" height="2.84"/><rect class="cls-2" x="147.03" y="231.54" width="2.84" height="2.84"/><rect class="cls-2" x="147.03" y="245.81" width="2.84" height="2.84"/><rect class="cls-2" x="147.03" y="250.56" width="2.84" height="2.84"/><rect class="cls-2" x="147.03" y="255.31" width="2.84" height="2.84"/><rect class="cls-2" x="99.83" y="150.73" width="2.84" height="2.84"/><rect class="cls-2" x="99.83" y="155.48" width="2.84" height="2.84"/><rect class="cls-2" x="99.83" y="160.23" width="2.84" height="2.84"/><rect class="cls-2" x="99.83" y="164.99" width="2.84" height="2.84"/><rect class="cls-2" x="99.83" y="169.74" width="2.84" height="2.84"/><rect class="cls-2" x="99.83" y="174.5" width="2.84" height="2.84"/><rect class="cls-2" x="99.83" y="179.25" width="2.84" height="2.84"/><rect class="cls-2" x="99.83" y="184" width="2.84" height="2.84"/><rect class="cls-2" x="99.83" y="188.76" width="2.84" height="2.84"/><rect class="cls-2" x="99.83" y="193.51" width="2.84" height="2.84"/><rect class="cls-2" x="99.83" y="198.27" width="2.84" height="2.84"/><rect class="cls-2" x="99.83" y="203.02" width="2.84" height="2.84"/><rect class="cls-2" x="99.83" y="207.77" width="2.84" height="2.84"/><rect class="cls-2" x="99.83" y="212.53" width="2.84" height="2.84"/><rect class="cls-2" x="99.83" y="217.28" width="2.84" height="2.84"/><rect class="cls-2" x="99.83" y="222.04" width="2.84" height="2.84"/><rect class="cls-2" x="99.83" y="226.79" width="2.84" height="2.84"/><rect class="cls-2" x="99.83" y="231.54" width="2.84" height="2.84"/><rect class="cls-2" x="99.83" y="236.3" width="2.84" height="2.84"/><rect class="cls-2" x="99.83" y="241.05" width="2.84" height="2.84"/><rect class="cls-2" x="99.83" y="245.81" width="2.84" height="2.84"/><rect class="cls-2" x="99.83" y="250.56" width="2.84" height="2.84"/><rect class="cls-2" x="99.83" y="255.31" width="2.84" height="2.84"/><rect class="cls-2" x="95.32" y="150.73" width="2.84" height="2.84"/><rect class="cls-2" x="95.32" y="155.48" width="2.84" height="2.84"/><rect class="cls-2" x="95.32" y="160.23" width="2.84" height="2.84"/><rect class="cls-2" x="95.32" y="164.99" width="2.84" height="2.84"/><rect class="cls-2" x="95.32" y="169.74" width="2.84" height="2.84"/><rect class="cls-2" x="95.32" y="174.5" width="2.84" height="2.84"/><rect class="cls-2" x="95.32" y="179.25" width="2.84" height="2.84"/><rect class="cls-2" x="95.32" y="184" width="2.84" height="2.84"/><rect class="cls-2" x="95.32" y="188.76" width="2.84" height="2.84"/><rect class="cls-2" x="95.32" y="193.51" width="2.84" height="2.84"/><rect class="cls-2" x="95.32" y="198.27" width="2.84" height="2.84"/><rect class="cls-2" x="95.32" y="203.02" width="2.84" height="2.84"/><rect class="cls-2" x="95.32" y="207.77" width="2.84" height="2.84"/><rect class="cls-2" x="95.32" y="212.53" width="2.84" height="2.84"/><rect class="cls-2" x="95.32" y="217.28" width="2.84" height="2.84"/><rect class="cls-2" x="95.32" y="222.04" width="2.84" height="2.84"/><rect class="cls-2" x="95.32" y="226.79" width="2.84" height="2.84"/><rect class="cls-2" x="95.32" y="231.54" width="2.84" height="2.84"/><rect class="cls-2" x="95.32" y="236.3" width="2.84" height="2.84"/><rect class="cls-2" x="90.82" y="150.73" width="2.84" height="2.84"/><rect class="cls-2" x="90.82" y="155.48" width="2.84" height="2.84"/><rect class="cls-2" x="90.82" y="160.23" width="2.84" height="2.84"/><rect class="cls-2" x="90.82" y="164.99" width="2.84" height="2.84"/><rect class="cls-2" x="90.82" y="169.74" width="2.84" height="2.84"/><rect class="cls-2" x="90.82" y="174.5" width="2.84" height="2.84"/><rect class="cls-2" x="90.82" y="179.25" width="2.84" height="2.84"/><rect class="cls-2" x="90.82" y="184" width="2.84" height="2.84"/><rect class="cls-2" x="90.82" y="188.76" width="2.84" height="2.84"/><rect class="cls-2" x="90.82" y="193.51" width="2.84" height="2.84"/><rect class="cls-2" x="90.82" y="198.27" width="2.84" height="2.84"/><rect class="cls-2" x="90.82" y="203.02" width="2.84" height="2.84"/><rect class="cls-2" x="90.82" y="207.77" width="2.84" height="2.84"/><rect class="cls-2" x="90.82" y="212.53" width="2.84" height="2.84"/><rect class="cls-2" x="90.82" y="217.28" width="2.84" height="2.84"/><rect class="cls-2" x="90.82" y="222.04" width="2.84" height="2.84"/><rect class="cls-2" x="90.82" y="226.79" width="2.84" height="2.84"/><rect class="cls-2" x="90.82" y="231.54" width="2.84" height="2.84"/><rect class="cls-2" x="90.82" y="236.3" width="2.84" height="2.84"/><rect class="cls-2" x="86.31" y="150.73" width="2.84" height="2.84"/><rect class="cls-2" x="86.31" y="155.48" width="2.84" height="2.84"/><rect class="cls-2" x="86.31" y="160.23" width="2.84" height="2.84"/><rect class="cls-2" x="86.31" y="164.99" width="2.84" height="2.84"/><rect class="cls-2" x="86.31" y="169.74" width="2.84" height="2.84"/><rect class="cls-2" x="86.31" y="174.5" width="2.84" height="2.84"/><rect class="cls-2" x="86.31" y="179.25" width="2.84" height="2.84"/><rect class="cls-2" x="86.31" y="184" width="2.84" height="2.84"/><rect class="cls-2" x="86.31" y="188.76" width="2.84" height="2.84"/><rect class="cls-2" x="86.31" y="193.51" width="2.84" height="2.84"/><rect class="cls-2" x="86.31" y="198.27" width="2.84" height="2.84"/><rect class="cls-2" x="86.31" y="203.02" width="2.84" height="2.84"/><rect class="cls-2" x="86.31" y="207.77" width="2.84" height="2.84"/><rect class="cls-2" x="86.31" y="212.53" width="2.84" height="2.84"/><rect class="cls-2" x="86.31" y="217.28" width="2.84" height="2.84"/><rect class="cls-2" x="81.81" y="150.73" width="2.84" height="2.84"/><rect class="cls-2" x="81.81" y="155.48" width="2.84" height="2.84"/><rect class="cls-2" x="81.81" y="160.23" width="2.84" height="2.84"/><rect class="cls-2" x="81.81" y="164.99" width="2.84" height="2.84"/><rect class="cls-2" x="81.81" y="169.74" width="2.84" height="2.84"/><rect class="cls-2" x="81.81" y="174.5" width="2.84" height="2.84"/><rect class="cls-2" x="81.81" y="179.25" width="2.84" height="2.84"/><rect class="cls-2" x="81.81" y="184" width="2.84" height="2.84"/><rect class="cls-2" x="81.81" y="188.76" width="2.84" height="2.84"/><rect class="cls-2" x="81.81" y="193.51" width="2.84" height="2.84"/><rect class="cls-2" x="81.81" y="198.27" width="2.84" height="2.84"/><rect class="cls-2" x="81.81" y="203.02" width="2.84" height="2.84"/><rect class="cls-2" x="81.81" y="207.77" width="2.84" height="2.84"/><rect class="cls-2" x="77.31" y="150.73" width="2.84" height="2.84"/><rect class="cls-2" x="77.31" y="155.48" width="2.84" height="2.84"/><rect class="cls-2" x="77.31" y="160.23" width="2.84" height="2.84"/><rect class="cls-2" x="77.31" y="164.99" width="2.84" height="2.84"/><rect class="cls-2" x="77.31" y="169.74" width="2.84" height="2.84"/><rect class="cls-2" x="77.31" y="174.5" width="2.84" height="2.84"/><rect class="cls-2" x="77.31" y="179.25" width="2.84" height="2.84"/><rect class="cls-2" x="77.31" y="184" width="2.84" height="2.84"/><rect class="cls-2" x="77.31" y="188.76" width="2.84" height="2.84"/><rect class="cls-2" x="77.31" y="193.51" width="2.84" height="2.84"/><rect class="cls-2" x="77.31" y="198.27" width="2.84" height="2.84"/><rect class="cls-2" x="77.31" y="203.02" width="2.84" height="2.84"/><rect class="cls-2" x="408.26" y="185.42" width="2.84" height="2.84"/><rect class="cls-2" x="408.26" y="190.18" width="2.84" height="2.84"/><rect class="cls-2" x="408.26" y="194.93" width="2.84" height="2.84"/><rect class="cls-2" x="408.26" y="199.68" width="2.84" height="2.84"/><rect class="cls-2" x="408.26" y="204.44" width="2.84" height="2.84"/><rect class="cls-2" x="408.26" y="209.19" width="2.84" height="2.84"/><rect class="cls-2" x="408.26" y="213.95" width="2.84" height="2.84"/><rect class="cls-2" x="408.26" y="218.7" width="2.84" height="2.84"/><rect class="cls-2" x="408.26" y="223.45" width="2.84" height="2.84"/><rect class="cls-2" x="408.26" y="228.21" width="2.84" height="2.84"/><rect class="cls-2" x="408.26" y="232.96" width="2.84" height="2.84"/><rect class="cls-2" x="408.26" y="237.72" width="2.84" height="2.84"/><rect class="cls-2" x="408.26" y="242.47" width="2.84" height="2.84"/><rect class="cls-2" x="408.26" y="247.22" width="2.84" height="2.84"/><rect class="cls-2" x="408.26" y="251.98" width="2.84" height="2.84"/><rect class="cls-2" x="408.26" y="256.73" width="2.84" height="2.84"/><rect class="cls-2" x="408.26" y="261.49" width="2.84" height="2.84"/><rect class="cls-2" x="408.26" y="266.24" width="2.84" height="2.84"/><rect class="cls-2" x="408.26" y="270.99" width="2.84" height="2.84"/><rect class="cls-2" x="408.26" y="275.75" width="2.84" height="2.84"/><rect class="cls-2" x="403.75" y="185.42" width="2.84" height="2.84"/><rect class="cls-2" x="403.75" y="190.18" width="2.84" height="2.84"/><rect class="cls-2" x="403.75" y="194.93" width="2.84" height="2.84"/><rect class="cls-2" x="403.75" y="199.68" width="2.84" height="2.84"/><rect class="cls-2" x="403.75" y="204.44" width="2.84" height="2.84"/><rect class="cls-2" x="403.75" y="209.19" width="2.84" height="2.84"/><rect class="cls-2" x="403.75" y="213.95" width="2.84" height="2.84"/><rect class="cls-2" x="403.75" y="218.7" width="2.84" height="2.84"/><rect class="cls-2" x="403.75" y="223.45" width="2.84" height="2.84"/><rect class="cls-2" x="403.75" y="228.21" width="2.84" height="2.84"/><rect class="cls-2" x="403.75" y="232.96" width="2.84" height="2.84"/><rect class="cls-2" x="403.75" y="237.72" width="2.84" height="2.84"/><rect class="cls-2" x="403.75" y="242.47" width="2.84" height="2.84"/><rect class="cls-2" x="403.75" y="247.22" width="2.84" height="2.84"/><rect class="cls-2" x="403.75" y="251.98" width="2.84" height="2.84"/><rect class="cls-2" x="403.75" y="256.73" width="2.84" height="2.84"/><rect class="cls-2" x="403.75" y="261.49" width="2.84" height="2.84"/><rect class="cls-2" x="403.75" y="266.24" width="2.84" height="2.84"/><rect class="cls-2" x="399.25" y="185.42" width="2.84" height="2.84"/><rect class="cls-2" x="399.25" y="190.18" width="2.84" height="2.84"/><rect class="cls-2" x="399.25" y="194.93" width="2.84" height="2.84"/><rect class="cls-2" x="399.25" y="199.68" width="2.84" height="2.84"/><rect class="cls-2" x="399.25" y="204.44" width="2.84" height="2.84"/><rect class="cls-2" x="399.25" y="209.19" width="2.84" height="2.84"/><rect class="cls-2" x="399.25" y="213.95" width="2.84" height="2.84"/><rect class="cls-2" x="399.25" y="218.7" width="2.84" height="2.84"/><rect class="cls-2" x="399.25" y="223.45" width="2.84" height="2.84"/><rect class="cls-2" x="399.25" y="228.21" width="2.84" height="2.84"/><rect class="cls-2" x="399.25" y="232.96" width="2.84" height="2.84"/><rect class="cls-2" x="399.25" y="237.72" width="2.84" height="2.84"/><rect class="cls-2" x="399.25" y="242.47" width="2.84" height="2.84"/><rect class="cls-2" x="399.25" y="247.22" width="2.84" height="2.84"/><rect class="cls-2" x="399.25" y="251.98" width="2.84" height="2.84"/><rect class="cls-2" x="399.25" y="256.73" width="2.84" height="2.84"/><rect class="cls-2" x="399.25" y="261.49" width="2.84" height="2.84"/><rect class="cls-2" x="399.25" y="266.24" width="2.84" height="2.84"/><rect class="cls-2" x="425.1" y="220.12" width="2.84" height="2.84"/><rect class="cls-2" x="425.1" y="224.87" width="2.84" height="2.84"/><rect class="cls-2" x="425.1" y="229.63" width="2.84" height="2.84"/><rect class="cls-2" x="425.1" y="234.38" width="2.84" height="2.84"/><rect class="cls-2" x="425.1" y="239.13" width="2.84" height="2.84"/><rect class="cls-2" x="425.1" y="243.89" width="2.84" height="2.84"/><rect class="cls-2" x="425.1" y="248.64" width="2.84" height="2.84"/><rect class="cls-2" x="425.1" y="253.4" width="2.84" height="2.84"/><rect class="cls-2" x="425.1" y="258.15" width="2.84" height="2.84"/><rect class="cls-2" x="425.1" y="262.9" width="2.84" height="2.84"/><rect class="cls-2" x="425.1" y="267.66" width="2.84" height="2.84"/><rect class="cls-2" x="425.1" y="272.41" width="2.84" height="2.84"/><rect class="cls-2" x="425.1" y="277.17" width="2.84" height="2.84"/><rect class="cls-2" x="420.6" y="220.12" width="2.84" height="2.84"/><rect class="cls-2" x="420.6" y="224.87" width="2.84" height="2.84"/><rect class="cls-2" x="420.6" y="229.63" width="2.84" height="2.84"/><rect class="cls-2" x="420.6" y="234.38" width="2.84" height="2.84"/><rect class="cls-2" x="420.6" y="239.13" width="2.84" height="2.84"/><rect class="cls-2" x="420.6" y="243.89" width="2.84" height="2.84"/><rect class="cls-2" x="420.6" y="248.64" width="2.84" height="2.84"/><rect class="cls-2" x="420.6" y="253.4" width="2.84" height="2.84"/><rect class="cls-2" x="420.6" y="258.15" width="2.84" height="2.84"/><rect class="cls-2" x="420.6" y="262.9" width="2.84" height="2.84"/><rect class="cls-2" x="420.6" y="267.66" width="2.84" height="2.84"/><rect class="cls-2" x="420.6" y="272.41" width="2.84" height="2.84"/><rect class="cls-2" x="420.6" y="277.17" width="2.84" height="2.84"/><rect class="cls-2" x="416.1" y="220.12" width="2.84" height="2.84"/><rect class="cls-2" x="416.1" y="224.87" width="2.84" height="2.84"/><rect class="cls-2" x="416.1" y="229.63" width="2.84" height="2.84"/><rect class="cls-2" x="416.1" y="234.38" width="2.84" height="2.84"/><rect class="cls-2" x="416.1" y="239.13" width="2.84" height="2.84"/><rect class="cls-2" x="416.1" y="243.89" width="2.84" height="2.84"/><rect class="cls-2" x="416.1" y="248.64" width="2.84" height="2.84"/><rect class="cls-2" x="416.1" y="253.4" width="2.84" height="2.84"/><rect class="cls-2" x="416.1" y="258.15" width="2.84" height="2.84"/><rect class="cls-2" x="416.1" y="262.9" width="2.84" height="2.84"/><rect class="cls-2" x="416.1" y="267.66" width="2.84" height="2.84"/><rect class="cls-2" x="416.1" y="272.41" width="2.84" height="2.84"/><rect class="cls-2" x="416.1" y="277.17" width="2.84" height="2.84"/><rect class="cls-2" x="416.1" y="281.92" width="2.84" height="2.84"/><rect class="cls-2" x="391.07" y="221.54" width="2.84" height="2.84"/><rect class="cls-2" x="391.07" y="226.29" width="2.84" height="2.84"/><rect class="cls-2" x="391.07" y="231.04" width="2.84" height="2.84"/><rect class="cls-2" x="391.07" y="235.8" width="2.84" height="2.84"/><rect class="cls-2" x="391.07" y="240.55" width="2.84" height="2.84"/><rect class="cls-2" x="391.07" y="245.31" width="2.84" height="2.84"/><rect class="cls-2" x="391.07" y="250.06" width="2.84" height="2.84"/><rect class="cls-2" x="391.07" y="254.81" width="2.84" height="2.84"/><rect class="cls-2" x="391.07" y="259.57" width="2.84" height="2.84"/><rect class="cls-2" x="391.07" y="264.32" width="2.84" height="2.84"/><rect class="cls-2" x="391.07" y="278.58" width="2.84" height="2.84"/><rect class="cls-2" x="386.57" y="221.54" width="2.84" height="2.84"/><rect class="cls-2" x="386.57" y="226.29" width="2.84" height="2.84"/><rect class="cls-2" x="386.57" y="231.04" width="2.84" height="2.84"/><rect class="cls-2" x="386.57" y="235.8" width="2.84" height="2.84"/><rect class="cls-2" x="386.57" y="240.55" width="2.84" height="2.84"/><rect class="cls-2" x="386.57" y="245.31" width="2.84" height="2.84"/><rect class="cls-2" x="386.57" y="250.06" width="2.84" height="2.84"/><rect class="cls-2" x="386.57" y="254.81" width="2.84" height="2.84"/><rect class="cls-2" x="386.57" y="259.57" width="2.84" height="2.84"/><rect class="cls-2" x="386.57" y="273.83" width="2.84" height="2.84"/><rect class="cls-2" x="386.57" y="278.58" width="2.84" height="2.84"/><rect class="cls-2" x="382.07" y="221.54" width="2.84" height="2.84"/><rect class="cls-2" x="382.07" y="226.29" width="2.84" height="2.84"/><rect class="cls-2" x="382.07" y="231.04" width="2.84" height="2.84"/><rect class="cls-2" x="382.07" y="235.8" width="2.84" height="2.84"/><rect class="cls-2" x="382.07" y="240.55" width="2.84" height="2.84"/><rect class="cls-2" x="382.07" y="245.31" width="2.84" height="2.84"/><rect class="cls-2" x="382.07" y="250.06" width="2.84" height="2.84"/><rect class="cls-2" x="382.07" y="254.81" width="2.84" height="2.84"/><rect class="cls-2" x="382.07" y="269.08" width="2.84" height="2.84"/><rect class="cls-2" x="382.07" y="273.83" width="2.84" height="2.84"/><rect class="cls-2" x="382.07" y="278.58" width="2.84" height="2.84"/><rect class="cls-2" x="340.2" y="149.31" width="2.84" height="2.84"/><rect class="cls-2" x="340.2" y="154.06" width="2.84" height="2.84"/><rect class="cls-2" x="340.2" y="158.82" width="2.84" height="2.84"/><rect class="cls-2" x="340.2" y="163.57" width="2.84" height="2.84"/><rect class="cls-2" x="340.2" y="168.32" width="2.84" height="2.84"/><rect class="cls-2" x="340.2" y="173.08" width="2.84" height="2.84"/><rect class="cls-2" x="340.2" y="177.83" width="2.84" height="2.84"/><rect class="cls-2" x="340.2" y="182.59" width="2.84" height="2.84"/><rect class="cls-2" x="340.2" y="187.34" width="2.84" height="2.84"/><rect class="cls-2" x="340.2" y="192.09" width="2.84" height="2.84"/><rect class="cls-2" x="340.2" y="196.85" width="2.84" height="2.84"/><rect class="cls-2" x="340.2" y="201.6" width="2.84" height="2.84"/><rect class="cls-2" x="340.2" y="206.36" width="2.84" height="2.84"/><rect class="cls-2" x="340.2" y="211.11" width="2.84" height="2.84"/><rect class="cls-2" x="340.2" y="215.86" width="2.84" height="2.84"/><rect class="cls-2" x="340.2" y="220.62" width="2.84" height="2.84"/><rect class="cls-2" x="340.2" y="225.37" width="2.84" height="2.84"/><rect class="cls-2" x="340.2" y="234.88" width="2.84" height="2.84"/><rect class="cls-2" x="340.2" y="239.63" width="2.84" height="2.84"/><rect class="cls-2" x="340.2" y="244.39" width="2.84" height="2.84"/><rect class="cls-2" x="340.2" y="249.14" width="2.84" height="2.84"/><rect class="cls-2" x="340.2" y="253.9" width="2.84" height="2.84"/><rect class="cls-2" x="335.69" y="149.31" width="2.84" height="2.84"/><rect class="cls-2" x="335.69" y="154.06" width="2.84" height="2.84"/><rect class="cls-2" x="335.69" y="158.82" width="2.84" height="2.84"/><rect class="cls-2" x="335.69" y="163.57" width="2.84" height="2.84"/><rect class="cls-2" x="335.69" y="168.32" width="2.84" height="2.84"/><rect class="cls-2" x="335.69" y="173.08" width="2.84" height="2.84"/><rect class="cls-2" x="335.69" y="177.83" width="2.84" height="2.84"/><rect class="cls-2" x="335.69" y="182.59" width="2.84" height="2.84"/><rect class="cls-2" x="335.69" y="187.34" width="2.84" height="2.84"/><rect class="cls-2" x="335.69" y="192.09" width="2.84" height="2.84"/><rect class="cls-2" x="335.69" y="196.85" width="2.84" height="2.84"/><rect class="cls-2" x="335.69" y="201.6" width="2.84" height="2.84"/><rect class="cls-2" x="335.69" y="206.36" width="2.84" height="2.84"/><rect class="cls-2" x="335.69" y="211.11" width="2.84" height="2.84"/><rect class="cls-2" x="335.69" y="215.86" width="2.84" height="2.84"/><rect class="cls-2" x="335.69" y="220.62" width="2.84" height="2.84"/><rect class="cls-2" x="335.69" y="249.14" width="2.84" height="2.84"/><rect class="cls-2" x="335.69" y="253.9" width="2.84" height="2.84"/><rect class="cls-2" x="331.19" y="149.31" width="2.84" height="2.84"/><rect class="cls-2" x="331.19" y="154.06" width="2.84" height="2.84"/><rect class="cls-2" x="331.19" y="158.82" width="2.84" height="2.84"/><rect class="cls-2" x="331.19" y="163.57" width="2.84" height="2.84"/><rect class="cls-2" x="331.19" y="168.32" width="2.84" height="2.84"/><rect class="cls-2" x="331.19" y="173.08" width="2.84" height="2.84"/><rect class="cls-2" x="331.19" y="177.83" width="2.84" height="2.84"/><rect class="cls-2" x="331.19" y="182.59" width="2.84" height="2.84"/><rect class="cls-2" x="331.19" y="187.34" width="2.84" height="2.84"/><rect class="cls-2" x="331.19" y="192.09" width="2.84" height="2.84"/><rect class="cls-2" x="331.19" y="196.85" width="2.84" height="2.84"/><rect class="cls-2" x="331.19" y="201.6" width="2.84" height="2.84"/><rect class="cls-2" x="331.19" y="206.36" width="2.84" height="2.84"/><rect class="cls-2" x="331.19" y="211.11" width="2.84" height="2.84"/><rect class="cls-2" x="331.19" y="215.86" width="2.84" height="2.84"/><rect class="cls-2" x="331.19" y="220.62" width="2.84" height="2.84"/><rect class="cls-2" x="331.19" y="230.13" width="2.84" height="2.84"/><rect class="cls-2" x="331.19" y="234.88" width="2.84" height="2.84"/><rect class="cls-2" x="331.19" y="239.63" width="2.84" height="2.84"/><rect class="cls-2" x="331.19" y="244.39" width="2.84" height="2.84"/><rect class="cls-2" x="331.19" y="253.9" width="2.84" height="2.84"/><rect class="cls-2" x="356.55" y="209.19" width="2.84" height="2.84"/><rect class="cls-2" x="356.55" y="213.95" width="2.84" height="2.84"/><rect class="cls-2" x="356.55" y="218.7" width="2.84" height="2.84"/><rect class="cls-2" x="356.55" y="223.45" width="2.84" height="2.84"/><rect class="cls-2" x="356.55" y="228.21" width="2.84" height="2.84"/><rect class="cls-2" x="356.55" y="232.96" width="2.84" height="2.84"/><rect class="cls-2" x="356.55" y="237.72" width="2.84" height="2.84"/><rect class="cls-2" x="356.55" y="247.22" width="2.84" height="2.84"/><rect class="cls-2" x="356.55" y="251.98" width="2.84" height="2.84"/><rect class="cls-2" x="356.55" y="256.73" width="2.84" height="2.84"/><rect class="cls-2" x="356.55" y="261.49" width="2.84" height="2.84"/><rect class="cls-2" x="356.55" y="266.24" width="2.84" height="2.84"/><rect class="cls-2" x="356.55" y="270.99" width="2.84" height="2.84"/><rect class="cls-2" x="356.55" y="275.75" width="2.84" height="2.84"/><rect class="cls-2" x="356.55" y="280.5" width="2.84" height="2.84"/><rect class="cls-2" x="352.04" y="209.19" width="2.84" height="2.84"/><rect class="cls-2" x="352.04" y="213.95" width="2.84" height="2.84"/><rect class="cls-2" x="352.04" y="218.7" width="2.84" height="2.84"/><rect class="cls-2" x="352.04" y="223.45" width="2.84" height="2.84"/><rect class="cls-2" x="352.04" y="228.21" width="2.84" height="2.84"/><rect class="cls-2" x="352.04" y="232.96" width="2.84" height="2.84"/><rect class="cls-2" x="352.04" y="247.22" width="2.84" height="2.84"/><rect class="cls-2" x="352.04" y="251.98" width="2.84" height="2.84"/><rect class="cls-2" x="352.04" y="256.73" width="2.84" height="2.84"/><rect class="cls-2" x="352.04" y="261.49" width="2.84" height="2.84"/><rect class="cls-2" x="352.04" y="266.24" width="2.84" height="2.84"/><rect class="cls-2" x="352.04" y="270.99" width="2.84" height="2.84"/><rect class="cls-2" x="352.04" y="275.75" width="2.84" height="2.84"/><rect class="cls-2" x="352.04" y="280.5" width="2.84" height="2.84"/><rect class="cls-2" x="347.54" y="209.19" width="2.84" height="2.84"/><rect class="cls-2" x="347.54" y="213.95" width="2.84" height="2.84"/><rect class="cls-2" x="347.54" y="218.7" width="2.84" height="2.84"/><rect class="cls-2" x="347.54" y="223.45" width="2.84" height="2.84"/><rect class="cls-2" x="347.54" y="228.21" width="2.84" height="2.84"/><rect class="cls-2" x="347.54" y="232.96" width="2.84" height="2.84"/><rect class="cls-2" x="347.54" y="242.47" width="2.84" height="2.84"/><rect class="cls-2" x="347.54" y="247.22" width="2.84" height="2.84"/><rect class="cls-2" x="347.54" y="251.98" width="2.84" height="2.84"/><rect class="cls-2" x="347.54" y="256.73" width="2.84" height="2.84"/><rect class="cls-2" x="347.54" y="261.49" width="2.84" height="2.84"/><rect class="cls-2" x="347.54" y="266.24" width="2.84" height="2.84"/><rect class="cls-2" x="347.54" y="270.99" width="2.84" height="2.84"/><rect class="cls-2" x="347.54" y="275.75" width="2.84" height="2.84"/><rect class="cls-2" x="347.54" y="280.5" width="2.84" height="2.84"/><rect class="cls-2" x="252.62" y="182.59" width="2.84" height="2.84"/><rect class="cls-2" x="252.62" y="187.34" width="2.84" height="2.84"/><rect class="cls-2" x="252.62" y="192.09" width="2.84" height="2.84"/><rect class="cls-2" x="252.62" y="196.85" width="2.84" height="2.84"/><rect class="cls-2" x="252.62" y="201.6" width="2.84" height="2.84"/><rect class="cls-2" x="252.62" y="206.36" width="2.84" height="2.84"/><rect class="cls-2" x="252.62" y="211.11" width="2.84" height="2.84"/><rect class="cls-2" x="252.62" y="215.86" width="2.84" height="2.84"/><rect class="cls-2" x="252.62" y="220.62" width="2.84" height="2.84"/><rect class="cls-2" x="252.62" y="225.37" width="2.84" height="2.84"/><rect class="cls-2" x="252.62" y="230.13" width="2.84" height="2.84"/><rect class="cls-2" x="252.62" y="234.88" width="2.84" height="2.84"/><rect class="cls-2" x="252.62" y="239.63" width="2.84" height="2.84"/><rect class="cls-2" x="252.62" y="249.14" width="2.84" height="2.84"/><rect class="cls-2" x="252.62" y="253.9" width="2.84" height="2.84"/><rect class="cls-2" x="252.62" y="258.65" width="2.84" height="2.84"/><rect class="cls-2" x="252.62" y="263.4" width="2.84" height="2.84"/><rect class="cls-2" x="252.62" y="272.91" width="2.84" height="2.84"/><rect class="cls-2" x="252.62" y="277.67" width="2.84" height="2.84"/><rect class="cls-2" x="252.62" y="282.42" width="2.84" height="2.84"/><rect class="cls-2" x="248.12" y="182.59" width="2.84" height="2.84"/><rect class="cls-2" x="248.12" y="187.34" width="2.84" height="2.84"/><rect class="cls-2" x="248.12" y="192.09" width="2.84" height="2.84"/><rect class="cls-2" x="248.12" y="196.85" width="2.84" height="2.84"/><rect class="cls-2" x="248.12" y="201.6" width="2.84" height="2.84"/><rect class="cls-2" x="248.12" y="206.36" width="2.84" height="2.84"/><rect class="cls-2" x="248.12" y="211.11" width="2.84" height="2.84"/><rect class="cls-2" x="248.12" y="215.86" width="2.84" height="2.84"/><rect class="cls-2" x="248.12" y="220.62" width="2.84" height="2.84"/><rect class="cls-2" x="248.12" y="225.37" width="2.84" height="2.84"/><rect class="cls-2" x="248.12" y="230.13" width="2.84" height="2.84"/><rect class="cls-2" x="248.12" y="234.88" width="2.84" height="2.84"/><rect class="cls-2" x="248.12" y="239.63" width="2.84" height="2.84"/><rect class="cls-2" x="248.12" y="253.9" width="2.84" height="2.84"/><rect class="cls-2" x="248.12" y="258.65" width="2.84" height="2.84"/><rect class="cls-2" x="248.12" y="268.16" width="2.84" height="2.84"/><rect class="cls-2" x="248.12" y="272.91" width="2.84" height="2.84"/><rect class="cls-2" x="248.12" y="277.67" width="2.84" height="2.84"/><rect class="cls-2" x="248.12" y="282.42" width="2.84" height="2.84"/><rect class="cls-2" x="243.62" y="182.59" width="2.84" height="2.84"/><rect class="cls-2" x="243.62" y="187.34" width="2.84" height="2.84"/><rect class="cls-2" x="243.62" y="192.09" width="2.84" height="2.84"/><rect class="cls-2" x="243.62" y="196.85" width="2.84" height="2.84"/><rect class="cls-2" x="243.62" y="201.6" width="2.84" height="2.84"/><rect class="cls-2" x="243.62" y="206.36" width="2.84" height="2.84"/><rect class="cls-2" x="243.62" y="211.11" width="2.84" height="2.84"/><rect class="cls-2" x="243.62" y="215.86" width="2.84" height="2.84"/><rect class="cls-2" x="243.62" y="220.62" width="2.84" height="2.84"/><rect class="cls-2" x="243.62" y="225.37" width="2.84" height="2.84"/><rect class="cls-2" x="243.62" y="230.13" width="2.84" height="2.84"/><rect class="cls-2" x="243.62" y="234.88" width="2.84" height="2.84"/><rect class="cls-2" x="243.62" y="239.63" width="2.84" height="2.84"/><rect class="cls-2" x="243.62" y="244.39" width="2.84" height="2.84"/><rect class="cls-2" x="243.62" y="253.9" width="2.84" height="2.84"/><rect class="cls-2" x="243.62" y="263.4" width="2.84" height="2.84"/><rect class="cls-2" x="243.62" y="268.16" width="2.84" height="2.84"/><rect class="cls-2" x="243.62" y="272.91" width="2.84" height="2.84"/><rect class="cls-2" x="243.62" y="277.67" width="2.84" height="2.84"/><rect class="cls-2" x="243.62" y="282.42" width="2.84" height="2.84"/><rect class="cls-2" x="270.97" y="209.69" width="2.84" height="2.84"/><rect class="cls-2" x="270.97" y="214.45" width="2.84" height="2.84"/><rect class="cls-2" x="270.97" y="219.2" width="2.84" height="2.84"/><rect class="cls-2" x="270.97" y="223.95" width="2.84" height="2.84"/><rect class="cls-2" x="270.97" y="228.71" width="2.84" height="2.84"/><rect class="cls-2" x="270.97" y="233.46" width="2.84" height="2.84"/><rect class="cls-2" x="270.97" y="247.72" width="2.84" height="2.84"/><rect class="cls-2" x="270.97" y="252.48" width="2.84" height="2.84"/><rect class="cls-2" x="270.97" y="257.23" width="2.84" height="2.84"/><rect class="cls-2" x="270.97" y="261.99" width="2.84" height="2.84"/><rect class="cls-2" x="270.97" y="266.74" width="2.84" height="2.84"/><rect class="cls-2" x="270.97" y="271.49" width="2.84" height="2.84"/><rect class="cls-2" x="270.97" y="276.25" width="2.84" height="2.84"/><rect class="cls-2" x="266.47" y="209.69" width="2.84" height="2.84"/><rect class="cls-2" x="266.47" y="214.45" width="2.84" height="2.84"/><rect class="cls-2" x="266.47" y="219.2" width="2.84" height="2.84"/><rect class="cls-2" x="266.47" y="223.95" width="2.84" height="2.84"/><rect class="cls-2" x="266.47" y="228.71" width="2.84" height="2.84"/><rect class="cls-2" x="266.47" y="233.46" width="2.84" height="2.84"/><rect class="cls-2" x="266.47" y="247.72" width="2.84" height="2.84"/><rect class="cls-2" x="266.47" y="252.48" width="2.84" height="2.84"/><rect class="cls-2" x="266.47" y="257.23" width="2.84" height="2.84"/><rect class="cls-2" x="266.47" y="261.99" width="2.84" height="2.84"/><rect class="cls-2" x="266.47" y="266.74" width="2.84" height="2.84"/><rect class="cls-2" x="266.47" y="271.49" width="2.84" height="2.84"/><rect class="cls-2" x="266.47" y="281" width="2.84" height="2.84"/><rect class="cls-2" x="116.84" y="188.76" width="2.84" height="2.84"/><rect class="cls-2" x="116.84" y="193.51" width="2.84" height="2.84"/><rect class="cls-2" x="116.84" y="198.27" width="2.84" height="2.84"/><rect class="cls-2" x="116.84" y="203.02" width="2.84" height="2.84"/><rect class="cls-2" x="116.84" y="207.77" width="2.84" height="2.84"/><rect class="cls-2" x="116.84" y="212.53" width="2.84" height="2.84"/><rect class="cls-2" x="116.84" y="217.28" width="2.84" height="2.84"/><rect class="cls-2" x="116.84" y="222.04" width="2.84" height="2.84"/><rect class="cls-2" x="116.84" y="226.79" width="2.84" height="2.84"/><rect class="cls-2" x="116.84" y="231.54" width="2.84" height="2.84"/><rect class="cls-2" x="116.84" y="236.3" width="2.84" height="2.84"/><rect class="cls-2" x="116.84" y="245.81" width="2.84" height="2.84"/><rect class="cls-2" x="116.84" y="250.56" width="2.84" height="2.84"/><rect class="cls-2" x="116.84" y="255.31" width="2.84" height="2.84"/><rect class="cls-2" x="116.84" y="260.07" width="2.84" height="2.84"/><rect class="cls-2" x="116.84" y="264.82" width="2.84" height="2.84"/><rect class="cls-2" x="116.84" y="269.58" width="2.84" height="2.84"/><rect class="cls-2" x="116.84" y="274.33" width="2.84" height="2.84"/><rect class="cls-2" x="116.84" y="279.08" width="2.84" height="2.84"/><rect class="cls-2" x="112.34" y="188.76" width="2.84" height="2.84"/><rect class="cls-2" x="112.34" y="193.51" width="2.84" height="2.84"/><rect class="cls-2" x="112.34" y="198.27" width="2.84" height="2.84"/><rect class="cls-2" x="112.34" y="203.02" width="2.84" height="2.84"/><rect class="cls-2" x="112.34" y="207.77" width="2.84" height="2.84"/><rect class="cls-2" x="112.34" y="212.53" width="2.84" height="2.84"/><rect class="cls-2" x="112.34" y="217.28" width="2.84" height="2.84"/><rect class="cls-2" x="112.34" y="222.04" width="2.84" height="2.84"/><rect class="cls-2" x="112.34" y="226.79" width="2.84" height="2.84"/><rect class="cls-2" x="112.34" y="231.54" width="2.84" height="2.84"/><rect class="cls-2" x="112.34" y="236.3" width="2.84" height="2.84"/><rect class="cls-2" x="112.34" y="241.05" width="2.84" height="2.84"/><rect class="cls-2" x="112.34" y="245.81" width="2.84" height="2.84"/><rect class="cls-2" x="112.34" y="250.56" width="2.84" height="2.84"/><rect class="cls-2" x="112.34" y="255.31" width="2.84" height="2.84"/><rect class="cls-2" x="112.34" y="260.07" width="2.84" height="2.84"/><rect class="cls-2" x="112.34" y="264.82" width="2.84" height="2.84"/><rect class="cls-2" x="112.34" y="269.58" width="2.84" height="2.84"/><rect class="cls-2" x="112.34" y="274.33" width="2.84" height="2.84"/><rect class="cls-2" x="112.34" y="279.08" width="2.84" height="2.84"/><rect class="cls-2" x="139.03" y="207.27" width="2.84" height="2.84"/><rect class="cls-2" x="139.03" y="212.03" width="2.84" height="2.84"/><rect class="cls-2" x="139.03" y="216.78" width="2.84" height="2.84"/><rect class="cls-2" x="139.03" y="221.54" width="2.84" height="2.84"/><rect class="cls-2" x="139.03" y="226.29" width="2.84" height="2.84"/><rect class="cls-2" x="139.03" y="231.04" width="2.84" height="2.84"/><rect class="cls-2" x="139.03" y="235.8" width="2.84" height="2.84"/><rect class="cls-2" x="139.03" y="240.55" width="2.84" height="2.84"/><rect class="cls-2" x="139.03" y="245.31" width="2.84" height="2.84"/><rect class="cls-2" x="139.03" y="250.06" width="2.84" height="2.84"/><rect class="cls-2" x="134.52" y="207.27" width="2.84" height="2.84"/><rect class="cls-2" x="134.52" y="212.03" width="2.84" height="2.84"/><rect class="cls-2" x="134.52" y="216.78" width="2.84" height="2.84"/><rect class="cls-2" x="134.52" y="221.54" width="2.84" height="2.84"/><rect class="cls-2" x="134.52" y="226.29" width="2.84" height="2.84"/><rect class="cls-2" x="134.52" y="231.04" width="2.84" height="2.84"/><rect class="cls-2" x="134.52" y="235.8" width="2.84" height="2.84"/><rect class="cls-2" x="134.52" y="240.55" width="2.84" height="2.84"/><rect class="cls-2" x="134.52" y="245.31" width="2.84" height="2.84"/><circle class="cls-3" cx="137.15" cy="31.63" r="20.31"/><path class="cls-2" d="M144.23,116.85a8.81,8.81,0,0,0-8.81-8.82,8.92,8.92,0,0,0-2.54.37A18.62,18.62,0,0,0,111,87.35,16.31,16.31,0,0,0,80.71,95.6l-.27,0a15,15,0,1,0,0,30.08h55.22A8.81,8.81,0,0,0,144.23,116.85Z" transform="translate(0 -54.95)"/><path class="cls-2" d="M438.62,102.23A5.63,5.63,0,0,0,433,96.6a5.82,5.82,0,0,0-1.62.24,10.92,10.92,0,0,0,.13-1.73,11.92,11.92,0,0,0-11.92-11.92,12.25,12.25,0,0,0-2.2.21,10.42,10.42,0,0,0-19.32,5.27h-.17a9.6,9.6,0,1,0,0,19.2h35.26A5.62,5.62,0,0,0,438.62,102.23Z" transform="translate(0 -54.95)"/><path class="cls-2" d="M274.12,158.41a3.44,3.44,0,0,0-3.45-3.44,3.59,3.59,0,0,0-1,.14,7.28,7.28,0,0,0-7.22-8.36,6.72,6.72,0,0,0-1.35.13,6.38,6.38,0,0,0-11.84,3.22h-.1a5.88,5.88,0,1,0,0,11.76h21.6A3.44,3.44,0,0,0,274.12,158.41Z" transform="translate(0 -54.95)"/><path class="cls-2" d="M142.84,82.56a3.44,3.44,0,0,1,3.44-3.45,3.53,3.53,0,0,1,1,.14A7.28,7.28,0,0,1,155.84,71a6.38,6.38,0,0,1,11.84,3.22h.11a5.88,5.88,0,0,1,0,11.76h-21.6A3.44,3.44,0,0,1,142.84,82.56Z" transform="translate(0 -54.95)"/><path class="cls-4" d="M73.13,367.17s-4.7-15.73,4.8-18.87,15.14-10.49,14.82-18.81,9.68-16.42,17.18-8.62,6.5-6,16.5-9.35,18.48,4.78,15.74,12.22,7.13,12.07,19,5.75,24.81,5.18,22.31,14.18-.45,10,7,7,20.85,5.5,16.16,16.5S73.13,367.17,73.13,367.17Z" transform="translate(0 -54.95)"/><path class="cls-4" d="M324.43,368.67c-5-5-.5-13.5,4.5-14.5s10-9.8,10.27-15.4,9.23-22.83,23.23-12.19,9.75,1.57,19.88-1.42,16.51,5.61,12.07,12.06c0,0,10.17-2.55,14.36,6.95s0,15.4,0,15.4,19.14-.56,17.42,11.27S324.43,368.67,324.43,368.67Z" transform="translate(0 -54.95)"/><path class="cls-1" d="M443,369v13.7H57V369a4.08,4.08,0,0,1,4-4.3H439A4.08,4.08,0,0,1,443,369Z" transform="translate(0 -54.95)"/><rect class="cls-5" x="79" y="309.72" width="24" height="18"/><rect class="cls-5" x="125" y="309.72" width="23" height="18"/><rect class="cls-5" x="170" y="309.72" width="24" height="18"/><rect class="cls-5" x="216" y="309.72" width="23" height="18"/><rect class="cls-5" x="261" y="309.72" width="23" height="18"/><rect class="cls-5" x="306" y="309.72" width="24" height="18"/><rect class="cls-5" x="352" y="309.72" width="23" height="18"/><rect class="cls-5" x="397" y="309.72" width="24" height="18"/><ellipse id="_Path_" data-name="&lt;Path&gt;" class="cls-5" cx="250" cy="361.29" rx="193.89" ry="11.32"/><path class="cls-6" d="M94.68,364.25l-7.88-2c-2-.49-4.14.34-4.64,2.32l-1.29,5.21c-.5,2,1,3.63,3,4.12l3.11.77v3.54l1.67-3.12,3.1.77c2,.49,4.12-.24,4.61-2.22l1.3-5.21C98.18,366.49,96.66,364.75,94.68,364.25Z" transform="translate(0 -54.95)"/><path class="cls-7" d="M103.51,345.32c-4.07-1.73-6.44,3.29-6.44,3.29s-4.93-2.55-7.11,1.3c-3.1,5.49,5.79,10.43,11,10.26C105.25,357.13,109.31,347.8,103.51,345.32Z" transform="translate(0 -54.95)"/><polygon class="cls-6" points="117.09 319.82 113.1 314.31 106.63 316.42 111.41 301.74 121.87 305.14 117.09 319.82"/><rect class="cls-8" x="68.49" y="328.03" width="62.98" height="35.53"/><rect class="cls-9" x="68.49" y="328.03" width="62.98" height="35.53"/><rect class="cls-9" x="106.39" y="328.03" width="25.08" height="35.53"/><path class="cls-10" d="M94.68,364.25l-7.88-2c-2-.49-4.14.34-4.64,2.32l-1.29,5.21c-.5,2,1,3.63,3,4.12l3.11.77v3.54l1.67-3.12,3.1.77c2,.49,4.12-.24,4.61-2.22l1.3-5.21C98.18,366.49,96.66,364.75,94.68,364.25Z" transform="translate(0 -54.95)"/><polygon class="cls-11" points="117.09 319.82 113.1 314.31 106.63 316.42 111.41 301.74 121.87 305.14 117.09 319.82"/><rect class="cls-6" x="51.3" y="101.87" width="178.13" height="139.85" rx="12.72"/><rect class="cls-12" x="51.3" y="101.87" width="178.13" height="139.85" rx="12.72"/><text class="cls-13" transform="translate(80.34 154.76)">15 Juta+<tspan x="-15.89" y="34.8">Pengguna</tspan></text><g id="_Group_" data-name="&lt;Group&gt;"><path class="cls-8" d="M298.23,132.78a1,1,0,0,0-.86-.83l-23.52-2.58c-.29,0-1.43.7-1.38,1.1l2.74,22.17a1,1,0,0,0,.89.85l23.8,1.86c.29,0,1.42-.71,1.37-1.11Z" transform="translate(0 -54.95)"/><path class="cls-14" d="M273.85,129.37,297.37,132a1,1,0,0,1,.86.83l3,21.46a.62.62,0,0,1-.67.71l-23.81-1.85a1,1,0,0,1-.89-.85l-2.74-22.18A.63.63,0,0,1,273.85,129.37Z" transform="translate(0 -54.95)"/><polygon class="cls-6" points="276.87 97.15 274.21 75.46 297.26 77.99 300.21 98.97 276.87 97.15"/><polygon class="cls-10" points="276.87 97.15 274.21 75.46 297.26 77.99 300.21 98.97 276.87 97.15"/><path class="cls-15" d="M280.79,134.54a2.27,2.27,0,1,1-2.71-2.28A2.52,2.52,0,0,1,280.79,134.54Z" transform="translate(0 -54.95)"/><polygon class="cls-15" points="284.99 90.85 291.28 91.47 290.57 85.45 284.2 84.78 284.99 90.85"/><polygon class="cls-15" points="291.39 92.35 285.1 91.71 285.74 96.58 291.94 97.06 291.39 92.35"/><polygon class="cls-15" points="292.18 92.43 292.79 97.13 298.74 97.6 298.03 93.03 292.18 92.43"/><polygon class="cls-15" points="292.06 91.55 297.89 92.12 296.96 86.12 291.28 85.53 292.06 91.55"/><polygon class="cls-15" points="284.31 91.63 278.05 90.99 278.61 96.01 284.88 96.51 284.31 91.63"/><polygon class="cls-15" points="284.21 90.77 283.49 84.7 277.27 84.05 277.96 90.15 284.21 90.77"/><polygon class="cls-15" points="292.23 82.28 295.46 82.7 295.11 81.2 291.94 80.81 292.23 82.28"/><polygon class="cls-15" points="286.26 80.13 282.68 79.7 282.88 81.09 286.48 81.55 286.26 80.13"/><polygon class="cls-15" points="287.5 81.68 291.01 82.13 290.75 80.67 287.34 80.26 287.5 81.68"/><path class="cls-16" d="M310,146s-8.33-4.68-9.58-5.62-12.31-1.07-12.11,0,4.35,7.75,5.34,8.37,7.63,0,7.63,0l7.6,3.05Z" transform="translate(0 -54.95)"/><path class="cls-8" d="M352.19,145.23c7.09,3.4,3.36,32.55-13.26,39.21s-33.29-19.6-33.29-19.6l5.21-13.56S326.08,163.86,332,161,346.85,142.67,352.19,145.23Z" transform="translate(0 -54.95)"/><path class="cls-17" d="M352.19,145.23c7.09,3.4,3.36,32.55-13.26,39.21s-33.29-19.6-33.29-19.6l5.21-13.56S326.08,163.86,332,161,346.85,142.67,352.19,145.23Z" transform="translate(0 -54.95)"/><polygon class="cls-16" points="307.58 347.68 298.47 348.64 298.01 343.36 296.76 329 305.87 328.03 307.25 343.9 307.58 347.68"/><polygon class="cls-16" points="353.04 346.53 344.22 346.53 344.14 344.53 344.13 344.28 343.68 331.48 343.67 331.22 343.49 326.31 352.32 326.31 353.04 346.53"/><polygon class="cls-15" points="305.87 328.03 307.25 343.9 298.01 343.36 296.76 329 305.87 328.03"/><polygon class="cls-15" points="352.99 345.4 352.98 345.4 344.14 344.28 344.13 344.28 343.67 331.93 343.68 331.93 352.53 332.63 352.98 345.02 352.99 345.4"/><path class="cls-6" d="M343,401h10.73a.77.77,0,0,1,.75.61l1.74,7.86a1.3,1.3,0,0,1-1,1.54,1.43,1.43,0,0,1-.29,0c-3.47-.06-6-.27-10.36-.27-2.68,0-10.78.28-14.48.28s-4.19-3.66-2.68-4c6.81-1.48,11.93-3.54,14.11-5.49A2.12,2.12,0,0,1,343,401Z" transform="translate(0 -54.95)"/><path class="cls-6" d="M297.5,400.67h10.73a.77.77,0,0,1,.75.6l1.74,7.87a1.3,1.3,0,0,1-1,1.54,1.43,1.43,0,0,1-.29,0c-3.47-.06-6-.27-10.35-.27-2.69,0-10.79.28-14.49.28s-4.19-3.66-2.67-4c6.8-1.48,11.92-3.54,14.1-5.49A2.15,2.15,0,0,1,297.5,400.67Z" transform="translate(0 -54.95)"/><path class="cls-8" d="M295.93,397h12.95s-1.06-96.42,12.95-134.07c1,12.44,2.1,25.36,3.19,36.12.68,6.66,1.36,9.23,2,13.58,4.07,28.08,14.36,85.49,14.36,85.49h12.79s-1.51-54.51-3-82.11c-1.67-29.95-2.39-92.64-2.46-98.26H301.82C297.36,241.33,285.93,320.61,295.93,397Z" transform="translate(0 -54.95)"/><path class="cls-16" d="M318.84,121.91a12.46,12.46,0,0,0,4.75,7.07,11.87,11.87,0,0,0,1.6,1,11.08,11.08,0,0,0,13.21-2.1c4.43-4.47,4.31-9.63,4.81-18.36a12,12,0,0,0-16.53-12C318.12,101.06,317,114.05,318.84,121.91Z" transform="translate(0 -54.95)"/><path class="cls-15" d="M323.59,129a11.87,11.87,0,0,0,1.6,1,11.11,11.11,0,0,0,9.56.42,12.7,12.7,0,0,0-1.56-3A17.18,17.18,0,0,0,323.59,129Z" transform="translate(0 -54.95)"/><path class="cls-16" d="M341.16,140.31c-4.3,3.91-14.84,2.46-14.84,2.46s-6.58-1.8-5.2-3.86c3.88-.64,5.75-2.44,6.53-4.76a11.11,11.11,0,0,0,.39-4.42,23.18,23.18,0,0,0-.32-2.47l13-9.65C339,124,337,135.69,341.16,140.31Z" transform="translate(0 -54.95)"/><path class="cls-8" d="M323.59,114l-1.89.71.95-3.85s-2.76-4.15,0-7.85c0,0-7-3.11-1.72-10.89,0,0,2,4.56,7.24,2.28,2.84-1.25,11.75-1.34,12.2,2.28,0,0,6.41,0,7.11,10.92a21.87,21.87,0,0,1-6.8,17.27s-7.75,1.84-11.51-1.27S323.59,114,323.59,114Z" transform="translate(0 -54.95)"/><path class="cls-16" d="M328.55,114.59a5.63,5.63,0,0,1-2.91,3.87c-1.77.76-2.94-1.75-2.69-4.37.25-2.33,1.45-5.6,3.36-5.17S329.17,112.24,328.55,114.59Z" transform="translate(0 -54.95)"/><path class="cls-15" d="M321.83,262.87c1,12.44,2.1,25.38,3.19,36.14,1.59-15.53,3.55-26.61,3.55-26.61s1.83-1.5,6.86-9.53,0-23,0-23C335.58,253.77,321.83,262.87,321.83,262.87Z" transform="translate(0 -54.95)"/><polygon class="cls-6" points="294.48 338.38 295.11 342.04 310.41 342.04 310.41 338.67 294.48 338.38"/><polygon class="cls-12" points="339.91 339.79 341.38 343.16 354.21 343.16 355.05 339.79 339.91 339.79"/><path class="cls-8" d="M310,139.7a66.85,66.85,0,0,1,24.42-.47c12.77,2.3,17.78,6,17.78,6l6.59,100.31s-34.14,8.28-62.83,0C296,245.54,298.68,152.58,310,139.7Z" transform="translate(0 -54.95)"/><path class="cls-14" d="M358.78,245.54s-34.14,8.28-62.83,0c0,0,0-1.11.11-3.1.27-7.47,1.11-27.34,2.91-47.76l.24-2.67c2.13-23.16,5.54-46.34,10.78-52.31a66.85,66.85,0,0,1,24.42-.47c12.77,2.3,17.78,6,17.78,6l3,46.15.23,3.52,3.1,47.15Z" transform="translate(0 -54.95)"/><path class="cls-15" d="M355.45,194.9c-6.27-1.8-22.36-4.5-56.48-.22l.24-2.67c8.05-1.33,36.47-5.43,56-.63Z" transform="translate(0 -54.95)"/><path class="cls-15" d="M358.78,245.54s-34.14,8.28-62.83,0c0,0,0-1.11.11-3.1,14.33,2.16,42.31,3.85,62.49-.39Z" transform="translate(0 -54.95)"/><path class="cls-12" d="M318,138.32s5.12-7,19.64-7,14.42,11.2,9.86,18.77S318,138.32,318,138.32Z" transform="translate(0 -54.95)"/><path class="cls-16" d="M275.64,161l-1.43-8.06s3.38-5.16,2.61-6.29S273.16,136,273.16,136s-7.15,7.23-6.69,9.19a28.83,28.83,0,0,0,2.44,5.44l.2,16.26Z" transform="translate(0 -54.95)"/><polygon class="cls-12" points="276.82 106.02 275.24 100 265.35 108.48 269.11 116.97 276.82 106.02"/><path class="cls-8" d="M310,139.7c-3.43,1-21.28,33.34-25.22,33.34-3.08,0-8.84-16.64-8.84-16.64l-9.46,11.15s1.25,27.83,16.78,28.59,30.11-25.6,30.11-25.6,2.43-7.65,1-18.94C313.15,142.65,310,139.7,310,139.7Z" transform="translate(0 -54.95)"/><path class="cls-17" d="M310,139.7c-3.43,1-21.28,33.34-25.22,33.34-3.08,0-8.84-16.64-8.84-16.64l-9.46,11.15s1.25,27.83,16.78,28.59,30.11-25.6,30.11-25.6,2.43-7.65,1-18.94C313.15,142.65,310,139.7,310,139.7Z" transform="translate(0 -54.95)"/><path class="cls-12" d="M290.55,101.88H279a3.17,3.17,0,0,0-3.17,3.17v9a3.17,3.17,0,0,0,3.17,3.17h4.26l1.53,3.73,1.54-3.73h4.26a3.16,3.16,0,0,0,3.16-3.17v-9A3.16,3.16,0,0,0,290.55,101.88Z" transform="translate(0 -54.95)"/><path class="cls-10" d="M280.38,106.44c1.15-1.81,3.3-1.08,4.39.35,1.13-1.41,3.29-2.08,4.4-.24,1.86,3.11-2.09,5.92-3.95,7l-.54.31-.52-.32C282.33,112.41,278.45,109.5,280.38,106.44Z" transform="translate(0 -54.95)"/><path class="cls-12" d="M266,122.52h-5.79a1.58,1.58,0,0,0-1.58,1.58v4.53a1.58,1.58,0,0,0,1.58,1.58h2.13l.77,1.86.76-1.86H266a1.59,1.59,0,0,0,1.59-1.58V124.1A1.59,1.59,0,0,0,266,122.52Z" transform="translate(0 -54.95)"/><path class="cls-10" d="M260.88,124.8c.58-.91,1.65-.55,2.2.17.56-.7,1.64-1,2.19-.12.93,1.55-1,3-2,3.51l-.27.15-.26-.16C261.85,127.78,259.91,126.33,260.88,124.8Z" transform="translate(0 -54.95)"/><path class="cls-18" d="M343,401h10.73a.77.77,0,0,1,.75.61l1.74,7.86a1.3,1.3,0,0,1-1,1.54,1.43,1.43,0,0,1-.29,0c-3.47-.06-6-.27-10.36-.27-2.68,0-10.78.28-14.48.28s-4.19-3.66-2.68-4c6.81-1.48,11.93-3.54,14.11-5.49A2.12,2.12,0,0,1,343,401Z" transform="translate(0 -54.95)"/><path class="cls-19" d="M297.5,400.67h10.73a.77.77,0,0,1,.75.6l1.74,7.87a1.3,1.3,0,0,1-1,1.54,1.43,1.43,0,0,1-.29,0c-3.47-.06-6-.27-10.35-.27-2.69,0-10.79.28-14.49.28s-4.19-3.66-2.67-4c6.8-1.48,11.92-3.54,14.1-5.49A2.15,2.15,0,0,1,297.5,400.67Z" transform="translate(0 -54.95)"/></g><path class="cls-20" d="M431.13,325.52c-4.89,12.09-18,30-30.05,45.18L398,374.59c-3.47,4.31-6.78,8.32-9.84,11.83-1.53,1.76-3,3.4-4.4,4.88h0a92.41,92.41,0,0,0-7.34,8.7l-4.83-2.84s4.63-7.23,10.83-17.2c1.31-2.1,2.69-4.32,4.11-6.62,3.64-5.85,7.57-12.22,11.35-18.42L400,351.4c7-11.61,13.24-22.12,15.48-26.76.17-.35.32-.68.44-1,1.24-2.85-2.11-13.8-5.82-24.12-.28-.78-.56-1.56-.84-2.32-3.52-9.6-7.07-18.06-7.07-18.06l9.87-16.71,3.62-6.14s1.95,5.39,4.55,13.15c1.77,5.26,3.85,11.61,5.82,18.11.2.66.4,1.33.61,2,2.95,9.87,5.47,19.84,6.4,26.6C433.39,318.57,432.65,321.76,431.13,325.52Z" transform="translate(0 -54.95)"/><path class="cls-15" d="M401.36,370.7c-6.38,8-12.51,15.3-17.07,20.6-.65-3.26-1.31-7.12-1.83-11.33,5.27-8.46,11.72-18.9,17.58-28.57A110.64,110.64,0,0,0,401.36,370.7Z" transform="translate(0 -54.95)"/><path class="cls-20" d="M398.19,411.68l-5.75.75s-2.21-10.87-4.31-26c-.57-4.09-1.12-8.49-1.63-13.07a308.47,308.47,0,0,1-2.06-35s-.63-2.18-1.56-5.87c-1.55-6.15-3.93-16.47-5.6-27.86l0-.2c-2-13.67-3-28.85-.31-40.2l20,9,.33,24.14.08,5.86.28,20.34.06,4.66.16,26.75.12,19.66Z" transform="translate(0 -54.95)"/><path class="cls-15" d="M396.94,273.18l.33,24.14c-6.1,4.1-14.51,6.12-20,7.06-2-13.67-3-28.85-.31-40.2Z" transform="translate(0 -54.95)"/><path class="cls-15" d="M426.66,289.58c-5.15,5.73-13.6,7.26-17.4,7.66-3.52-9.6-7.07-18.06-7.07-18.06l9.87-16.71c2.7,2.12,5.56,4.51,8.17,7,1.77,5.26,3.85,11.61,5.82,18.11C426.25,288.25,426.45,288.92,426.66,289.58Z" transform="translate(0 -54.95)"/><path class="cls-6" d="M411.05,181.92c3.79.17,19.68,21.51,19.68,21.51l5.9-7.67s9.1,17.67,4.6,26.09S413,207.26,413,207.26Z" transform="translate(0 -54.95)"/><path class="cls-12" d="M411.05,181.92l1.56,17,.4,8.32s3.9,3.78,8.83,7.71c7.24,5.78,16.71,11.88,19.39,6.88,4.5-8.41-4.6-26.09-4.6-26.09l-5.9,7.67,0-.06C429.79,202.08,414.72,182.08,411.05,181.92Z" transform="translate(0 -54.95)"/><path class="cls-15" d="M412.61,198.94l.4,8.32s3.9,3.78,8.83,7.71c.47-10-8.83-24.54-8.83-24.54Z" transform="translate(0 -54.95)"/><path class="cls-15" d="M430.73,203.43l-.85,1.62,2.48,9.63s-6.83-6.21-2.48-12.29Z" transform="translate(0 -54.95)"/><path class="cls-6" d="M411.73,235.27l-32,2.48s-.43-19.12-3-29.07c-.83-3.22-1.87-6.84-3.19-11-.56-1.78-1.17-3.66-1.84-5.67s-1.28-3.86-2-5.95a95.86,95.86,0,0,1,13.38-3.23,103.35,103.35,0,0,1,14.48-1.53c6.27,0,13.48.66,13.48.66s1,.25,1.67,6.89C413.31,195.06,413,212.56,411.73,235.27Z" transform="translate(0 -54.95)"/><path class="cls-12" d="M411.73,235.27l-32,2.47s0-.39,0-1.1c-.14-4.19-.77-19.44-2.95-28-.59-2.3-1.29-4.81-2.13-7.58-.33-1.11-.68-2.26-1.06-3.46-.56-1.78-1.17-3.66-1.84-5.67s-1.28-3.86-2-5.95c1.74-.56,3.5-1.06,5.27-1.52,2.67-.68,5.38-1.25,8.11-1.71a103.35,103.35,0,0,1,14.48-1.53c4,0,8.47.25,11.11.46,1.46.11,2.37.2,2.37.2s1,.25,1.67,6.89C413.31,195.06,413,212.56,411.73,235.27Z" transform="translate(0 -54.95)"/><path class="cls-8" d="M372,394c.58-.42,5.56,7,5.56,7s-1.1,7.77,1.14,12.79-2.12,4.58-5.75-.17l-9-11.75C361.41,398.54,365.9,398.46,372,394Z" transform="translate(0 -54.95)"/><path class="cls-6" d="M379.26,406.68c-1.13-.27-1.86-3.49-2-4.14a.14.14,0,0,1,0-.09h0s0-.05,0-.07h0a.1.1,0,0,1,0-.06h0l.08,0c.1,0,2.21-.7,3.34,0a1.35,1.35,0,0,1,.68.94c.1.44,0,.75-.24.92s-1.15,0-1.9-.3a3.66,3.66,0,0,1,1,1.73,1,1,0,0,1-.92,1.17Zm.11-.46c.05,0,.19,0,.41-.24a.49.49,0,0,0,.09-.4c-.09-.74-1.21-1.82-2-2.48C378.23,404.49,378.84,406.09,379.37,406.22Zm-1.3-3.63c1.2.74,2.53,1.34,2.87,1.11.1-.07.07-.3,0-.43a.9.9,0,0,0-.45-.63,2.18,2.18,0,0,0-1.08-.23A6,6,0,0,0,378.07,402.59Z" transform="translate(0 -54.95)"/><path class="cls-8" d="M390.41,408.76c0-.73,9-.16,9-.16s5.51,5.6,10.86,6.86,2.36,4.47-3.62,4.47H391.82C387.57,419.93,390.23,416.31,390.41,408.76Z" transform="translate(0 -54.95)"/><path class="cls-6" d="M400.37,409.76a.2.2,0,0,1-.07-.06h0a.21.21,0,0,1,0-.06h0a.24.24,0,0,1,0-.08h0a.25.25,0,0,1,0-.09c0-.11.79-2.18,2-2.69a1.42,1.42,0,0,1,1.16,0c.41.2.6.45.59.76,0,.47-.67.94-1.4,1.33a3.73,3.73,0,0,1,2,.22,1,1,0,0,1,.48.6.86.86,0,0,1-.22,1,1.24,1.24,0,0,1-.79.21A11.34,11.34,0,0,1,400.37,409.76Zm.82-.15c1.32.56,3,1.05,3.38.7,0,0,.15-.12.06-.47a.47.47,0,0,0-.25-.31,2.16,2.16,0,0,0-1.06-.2A10.42,10.42,0,0,0,401.19,409.61Zm1.24-2.39a3.9,3.9,0,0,0-1.53,1.92c1.32-.5,2.6-1.2,2.63-1.6,0-.12-.2-.24-.32-.3a1.07,1.07,0,0,0-.42-.1A.94.94,0,0,0,402.43,407.22Z" transform="translate(0 -54.95)"/><path class="cls-20" d="M394.91,188.39c-8-1-10.34-4.42-10.34-4.42,3.25-3.06,2.66-7.58,1.83-10.4a16.16,16.16,0,0,0-1-2.6l9.57,1.79a27.54,27.54,0,0,0-.37,4,12.07,12.07,0,0,0,.27,3c.65,2.86,2.28,2.9,2.28,2.9C398.85,185.79,394.91,188.39,394.91,188.39Z" transform="translate(0 -54.95)"/><path class="cls-15" d="M394.62,176.79a12.07,12.07,0,0,0,.27,3c-3.8-.5-6.68-3.54-8.49-6.18a16.16,16.16,0,0,0-1-2.6l9.57,1.79A27.54,27.54,0,0,0,394.62,176.79Z" transform="translate(0 -54.95)"/><path class="cls-8" d="M406.31,154.64s4-1.1,3.1-3.87-2.28-2.87-2.28-2.87a7.9,7.9,0,0,0,.79-7.12c-1.58-3.76-5.93-2.67-5.93-2.67s.35-4.06-3.48-5.14a5.18,5.18,0,0,0-5.81,2.4s-2.35-3.69-6.32-3.1-5.26,5.94-5.26,5.94a4.37,4.37,0,0,0-5.64,2.11,6.69,6.69,0,0,0,0,6.91s-2.37-1.4-3.56,2.5,2.67,7.82,2.67,7.82-2.27.07-1.38,3.12,4.55,3.45,4.55,3.45-1.49.59,1,3.26,11.45,0,11.45,0Z" transform="translate(0 -54.95)"/><path class="cls-20" d="M396.29,147.34c8.24,1.19,10.25,6,9.63,14.56-.78,10.73-4.22,17.93-14.2,14.17C378.17,171,382.6,145.36,396.29,147.34Z" transform="translate(0 -54.95)"/><path class="cls-21" d="M400.66,160.67a17.73,17.73,0,0,0,1.9,3.77,2.27,2.27,0,0,1-2.3.62Z" transform="translate(0 -54.95)"/><path class="cls-8" d="M395.71,159.27c-.08.68-.51,1.19-1,1.13s-.75-.65-.67-1.33.52-1.18,1-1.13S395.79,158.59,395.71,159.27Z" transform="translate(0 -54.95)"/><path class="cls-8" d="M394.85,158l1.54-.4S395.51,158.7,394.85,158Z" transform="translate(0 -54.95)"/><path class="cls-8" d="M404.17,160.15c-.08.68-.51,1.18-1,1.13s-.76-.65-.68-1.33.52-1.19,1-1.13S404.26,159.47,404.17,160.15Z" transform="translate(0 -54.95)"/><path class="cls-8" d="M403.31,158.83l1.55-.4S404,159.58,403.31,158.83Z" transform="translate(0 -54.95)"/><path class="cls-22" d="M396.45,153.57a4.31,4.31,0,0,0-3.75.73" transform="translate(0 -54.95)"/><path class="cls-22" d="M402.49,154.08a3.89,3.89,0,0,1,3.19,1.15" transform="translate(0 -54.95)"/><path class="cls-8" d="M385.27,159.93s4.83-6.22,5-11.53c0,0,17.29-4.32,15.7,12.38,0,0,3.73-14.49-10.4-16.87s-17.05,18.37-10.63,25.6C385,169.51,382.28,163.82,385.27,159.93Z" transform="translate(0 -54.95)"/><path class="cls-20" d="M386.37,161.86A3.66,3.66,0,0,0,383,158c-2.59-.09-4.57,5,1.6,7.16C385.44,165.46,386.08,164.65,386.37,161.86Z" transform="translate(0 -54.95)"/><path class="cls-22" d="M398.51,169.36s-3.57.29-4.56-3" transform="translate(0 -54.95)"/><path class="cls-23" d="M382.51,156.62c2.91-10.1,18.9-17.33,23.52-4.86a15.58,15.58,0,0,0-4.62-8s-15-5.82-19.34,11.5Z" transform="translate(0 -54.95)"/><path class="cls-8" d="M416.84,196a.81.81,0,0,0,.82.92h9.14a1.06,1.06,0,0,0,1-.92l2-18a.91.91,0,0,0-.83-1h-9.14a1.19,1.19,0,0,0-1,1Z" transform="translate(0 -54.95)"/><path class="cls-24" d="M419.89,177.85l-2.07,18.22a.69.69,0,0,0,.72.86h7.75c.52,0,1.47-.29,1.53-.8l2.07-18.28c.06-.51-.83-.92-1.35-.92h-7.75A.94.94,0,0,0,419.89,177.85Z" transform="translate(0 -54.95)"/><path class="cls-10" d="M399.11,239.37a1.62,1.62,0,1,0,1.62-1.62A1.62,1.62,0,0,0,399.11,239.37Z" transform="translate(0 -54.95)"/><path class="cls-20" d="M436,197.51l-4.76-8.08s0-4.25-.4-5.25-5.09-3.26-6-2.92-1.25,8.67-.42,9.8,3.75,2.37,3.75,2.37L428,195l2.78,8.42Z" transform="translate(0 -54.95)"/><polygon class="cls-25" points="437.9 141.64 436.31 140.06 428.81 148.48 429.88 151.81 437.9 141.64"/><path class="cls-15" d="M399.9,210s-8.82,20.09-20.2,26.6c-.14-4.19-.77-19.44-2.95-28-.59-2.3-1.29-4.81-2.13-7.58l3.47-4.17s2.4,7.44,1.34,13.9l13.27-8.13Z" transform="translate(0 -54.95)"/><path class="cls-20" d="M391.36,205.42l10.83-8.49a37.84,37.84,0,0,1,2.3-5.35c.66-.79,10.15-4.3,10.95-4.39s0,7.78-1.19,9.12-8.84,4-8.84,4L394.07,211Z" transform="translate(0 -54.95)"/><path class="cls-6" d="M369.71,186c-6.36,3.18-9.19,39.1,1.85,45.3s27.55-21.82,27.55-21.82l-6.41-6.8S379.25,214,377.63,212.92s.22-12,.22-12,1.89-3.33-2.08-8.56S369.71,186,369.71,186Z" transform="translate(0 -54.95)"/><path class="cls-12" d="M369.71,186c-6.36,3.18-9.19,39.1,1.85,45.3s27.55-21.82,27.55-21.82l-6.41-6.8S379.25,214,377.63,212.92s.22-12,.22-12,1.89-3.33-2.08-8.56S369.71,186,369.71,186Z" transform="translate(0 -54.95)"/><polygon class="cls-25" points="399.23 157.04 401.15 155.89 393.95 145.33 391.31 146.81 399.23 157.04"/><path class="cls-6" d="M428.54,285.2c0,.05,0,.11,0,.16-1.74.28-3.21,3.44-4.86,4.53a16.71,16.71,0,0,1-6.77,2.46c-4.51.69-9.15.19-13.64,1-5.58,1-10.6,3.89-16,5.66-3.82,1.25-10.09,2.57-13.73.06-2.62-1.81-2.21-5-2.28-7.87a161.54,161.54,0,0,1,1.32-27,106,106,0,0,1,6.32-24.6c.25-.62.51-1.23.77-1.84l32-2.47.27,1.54,2,11.49,3.82,9.66,9.43,23.85C427.7,282.93,428.2,284.06,428.54,285.2Z" transform="translate(0 -54.95)"/><path class="cls-10" d="M428.54,285.2c0,.05,0,.11,0,.16-1.74.28-3.21,3.44-4.86,4.53a16.71,16.71,0,0,1-6.77,2.46c-4.51.69-9.15.19-13.64,1-5.58,1-10.6,3.89-16,5.66-3.82,1.25-10.09,2.57-13.73.06-2.62-1.81-2.21-5-2.28-7.87a161.54,161.54,0,0,1,1.32-27,106,106,0,0,1,6.32-24.6c.25-.62.51-1.23.77-1.84l32-2.47.27,1.54,2,11.49,3.82,9.66,9.43,23.85C427.7,282.93,428.2,284.06,428.54,285.2Z" transform="translate(0 -54.95)"/><polygon class="cls-26" points="379.73 182.79 378.38 186.12 412.45 184.41 411.73 180.32 379.73 182.79"/><polygon class="cls-6" points="389.36 182 388.96 186.41 387.73 186.41 387.93 182 389.36 182"/><polygon class="cls-10" points="389.36 182 388.96 186.41 387.73 186.41 387.93 182 389.36 182"/><polygon class="cls-6" points="407.31 180.66 407.8 185.27 408.94 185.27 408.55 180.47 407.31 180.66"/><polygon class="cls-10" points="407.31 180.66 407.8 185.27 408.94 185.27 408.55 180.47 407.31 180.66"/><path class="cls-25" d="M397.72,236.51l.39,3.74a.77.77,0,0,0,.82.68l5-.4a.76.76,0,0,0,.7-.83l-.36-3.69a.76.76,0,0,0-.81-.69l-5,.35A.75.75,0,0,0,397.72,236.51Z" transform="translate(0 -54.95)"/><path class="cls-20" d="M408.68,181.72a6,6,0,0,1-1.32,3.58,8.63,8.63,0,0,1-2.13,1.92c-2.05,1.36-5.27,2.55-10.24,3.21a31.12,31.12,0,0,1-8.22.07,22.5,22.5,0,0,1-3.53-.77A17.46,17.46,0,0,1,375,184.5q2.64-.67,5.33-1.19l1.38-.27,1.4-.25a103.35,103.35,0,0,1,14.48-1.53c1.75,0,3.56,0,5.28.1.75,0,1.49.07,2.19.12C406.43,181.55,407.68,181.64,408.68,181.72Z" transform="translate(0 -54.95)"/><path class="cls-8" d="M386.77,190.5a22.5,22.5,0,0,1-3.53-.77,11.71,11.71,0,0,0-2.93-6.42l1.38-.27C384.43,185,386,188.49,386.77,190.5Z" transform="translate(0 -54.95)"/><path class="cls-8" d="M407.36,185.3a8.63,8.63,0,0,1-2.13,1.92,9.11,9.11,0,0,0-2.38-5.86c.75,0,1.49.07,2.19.12A12.13,12.13,0,0,1,407.36,185.3Z" transform="translate(0 -54.95)"/><path class="cls-12" d="M446.05,144.74H434.46a3.16,3.16,0,0,0-3.16,3.16V157a3.15,3.15,0,0,0,3.16,3.16h4.26l1.54,3.73,1.53-3.73h4.26a3.16,3.16,0,0,0,3.17-3.16V147.9A3.17,3.17,0,0,0,446.05,144.74Z" transform="translate(0 -54.95)"/><path class="cls-10" d="M435.89,149.3c1.15-1.82,3.29-1.09,4.38.35,1.13-1.41,3.29-2.09,4.4-.24,1.86,3.1-2.09,5.91-3.95,7l-.53.31c-.15-.08-.32-.19-.53-.32C437.83,155.27,434,152.36,435.89,149.3Z" transform="translate(0 -54.95)"/><path class="cls-12" d="M419.73,162.15h-5.8a1.58,1.58,0,0,0-1.58,1.58v4.53a1.58,1.58,0,0,0,1.58,1.58h2.13l.77,1.87.77-1.87h2.13a1.58,1.58,0,0,0,1.58-1.58v-4.53A1.58,1.58,0,0,0,419.73,162.15Z" transform="translate(0 -54.95)"/><path class="cls-10" d="M414.65,164.43c.57-.91,1.64-.54,2.19.17.56-.7,1.64-1,2.2-.12.93,1.56-1.05,3-2,3.51l-.26.16-.27-.17C415.62,167.41,413.68,166,414.65,164.43Z" transform="translate(0 -54.95)"/><g id="_Group_2" data-name="&lt;Group&gt;"><path class="cls-12" d="M286.47,348.16c-6.64,14.25-15.39,15.77-15.39,15.77l-10.46-12.25s7.5-4.52,9.25-10-1.5-41.25,7.82-48.74c0,0,1.07,2.84,2.52,7.28h0c2.84,8.68,7.14,23.46,7.82,35.18C288.34,340.47,288,345,286.47,348.16Z" transform="translate(0 -54.95)"/><path class="cls-27" d="M288,335.39c-9.14-16.3-10.09-28.08-7.82-35.18C283.05,308.89,287.35,323.67,288,335.39Z" transform="translate(0 -54.95)"/><path class="cls-8" d="M287.59,371.42s-67-18.69-75.39,4.81,52.39,42.24,86,43.39,47.38-22.45,37.46-44.88Z" transform="translate(0 -54.95)"/><path class="cls-15" d="M287.59,371.42s-67-18.69-75.39,4.81,52.39,42.24,86,43.39,47.38-22.45,37.46-44.88Z" transform="translate(0 -54.95)"/><path class="cls-12" d="M342,388.31l-62.24-10.65c10.9-21,7.44-52.94-2-84.74,6.59-5.51,32.93-9.23,53-3.39,0,0,1.19,4.42,2.8,12,1.93,9.1,4.46,22.76,6.26,38.88A343.24,343.24,0,0,1,342,388.31Z" transform="translate(0 -54.95)"/><path class="cls-10" d="M342,388.31l-62.24-10.65c9.25-17.82,8.16-43.51,1.82-70.31C286.82,297.25,293.6,296,293.6,296c6.85,9.63,21,0,21,0,13.11,7.92,20.91,24.41,23.41,30.43A360,360,0,0,1,342,388.31Z" transform="translate(0 -54.95)"/><path class="cls-28" d="M339.79,340.44a33.13,33.13,0,0,1-11-15.51c-5.06-16.05,2.82-22.16,4.73-23.37C335.46,310.66,338,324.32,339.79,340.44Z" transform="translate(0 -54.95)"/><path class="cls-6" d="M219.89,408.09a3,3,0,0,1-1.06-1.52,1.16,1.16,0,0,1,.4-1.09.7.7,0,0,1,.67-.19c1.13.34,2.25,3.57,2.36,3.95a.17.17,0,0,1-.06.2.21.21,0,0,1-.25,0A12.94,12.94,0,0,1,219.89,408.09Zm.18-2.23a.61.61,0,0,0-.26-.15.24.24,0,0,0-.26.08.73.73,0,0,0-.29.74,4.82,4.82,0,0,0,2.4,2.31A9.22,9.22,0,0,0,220.07,405.86Z" transform="translate(0 -54.95)"/><path class="cls-6" d="M221.9,409.46l0-.1c-.4-1-.49-3.62.32-4.19a.73.73,0,0,1,.9.08,1.25,1.25,0,0,1,.53.81c.26,1.33-1.3,3.29-1.4,3.38a.19.19,0,0,1-.21.06A.21.21,0,0,1,221.9,409.46Zm1-3.8-.07-.07c-.25-.16-.34-.09-.39-.06-.48.33-.56,2.17-.31,3.29.42-.6,1.2-1.86,1-2.69a.78.78,0,0,0-.27-.47Z" transform="translate(0 -54.95)"/><path class="cls-6" d="M290.68,423.79a2.93,2.93,0,0,1-.35,1.81,1.15,1.15,0,0,1-1.05.48.69.69,0,0,1-.61-.35c-.55-1,1-4.1,1.17-4.44a.17.17,0,0,1,.19-.1.21.21,0,0,1,.18.17A11.73,11.73,0,0,1,290.68,423.79ZM289,425.21a.78.78,0,0,0,.07.3.24.24,0,0,0,.24.13.74.74,0,0,0,.73-.31,4.77,4.77,0,0,0,0-3.33A9.33,9.33,0,0,0,289,425.21Z" transform="translate(0 -54.95)"/><polygon class="cls-29" points="273.99 343.78 285.84 352.47 291.53 356.64 287.81 363.13 282.04 359.97 267.93 352.25 273.99 343.78"/><path class="cls-8" d="M286,417.89l3.57-7.89a.87.87,0,0,1,1.16-.42l3.86,1.89s5.36,2.17,6,3.91c2,5.1-5.49,22.76-7.82,22.76-.85,0-1.36-1.32-1.48-2.16-.38-2.68-.44-9.4-.78-11.63-.4-2.6-3-4.6-4.25-5.4A.85.85,0,0,1,286,417.89Z" transform="translate(0 -54.95)"/><path class="cls-30" d="M290.25,421.39l-.05.09c-.43,1-2.24,2.89-3.22,2.71a.72.72,0,0,1-.56-.7,1.22,1.22,0,0,1,.2-.95c.77-1.11,3.25-1.38,3.39-1.36a.18.18,0,0,1,.19.1A.22.22,0,0,1,290.25,421.39Zm-3.41,1.95v.1c0,.29.17.31.23.32.57.11,1.94-1.12,2.56-2.08-.73.12-2.17.44-2.65,1.14a.81.81,0,0,0-.15.52Z" transform="translate(0 -54.95)"/><polygon class="cls-15" points="273.99 343.78 285.84 352.47 282.04 359.97 267.93 352.25 273.99 343.78"/><polygon class="cls-6" points="279.33 360.46 275.44 359.59 281.91 347.23 285.52 350.92 279.33 360.46"/><polygon class="cls-10" points="279.33 360.46 275.44 359.59 281.91 347.23 285.52 350.92 279.33 360.46"/><polygon class="cls-29" points="249.47 358.74 234.97 361.13 228 362.28 225.97 355.08 232.27 353.17 247.65 348.49 249.47 358.74"/><path class="cls-8" d="M227.39,408.86l3.14,8.07a.86.86,0,0,1-.52,1.12l-4,1.43s-5.31,2.32-7,1.58c-5-2.16-12.41-19.84-10.78-21.51.59-.61,1.89-.05,2.58.46,2.17,1.6,7,6.26,8.85,7.57,2.14,1.54,5.41,1.06,6.83.75A.85.85,0,0,1,227.39,408.86Z" transform="translate(0 -54.95)"/><polygon class="cls-15" points="249.47 358.74 234.97 361.13 232.27 353.17 247.65 348.49 249.47 358.74"/><path class="cls-8" d="M234.77,406.62s60.28-35.56,80.67-34.61,22.19,21.25,13.77,32.51-24,14-24,14,10.58-14.95,9.06-19.16-7.37,9.94-7.37,9.94-37.34,4.9-69.88,7.65Z" transform="translate(0 -54.95)"/><polygon class="cls-6" points="233.81 350.75 237.16 348.5 241.46 361.71 236.29 361.71 233.81 350.75"/><polygon class="cls-10" points="233.81 350.75 237.16 348.5 241.46 361.71 236.29 361.71 233.81 350.75"/><path class="cls-29" d="M302.89,298.08c8.77,0,14.48-9.2,14.48-9.2-11.5-4-11.54-16.17-11.54-16.17L301.4,277l-6.31,6.18c5.25,3.72,2.77,6.94,1.1,8.37a7.68,7.68,0,0,1-1.1.82S294.12,298.08,302.89,298.08Z" transform="translate(0 -54.95)"/><path class="cls-15" d="M296.19,291.59c10.76,1.21,10-14.9,10-14.9a27.39,27.39,0,0,0-4.82.35l-6.31,6.18C300.34,286.94,297.86,290.16,296.19,291.59Z" transform="translate(0 -54.95)"/><path class="cls-6" d="M318.48,269.05c1.3,1.27-4.08,4.74-12.66,1.79s-10.05-11.63-10.05-11.63S310,260.77,318.48,269.05Z" transform="translate(0 -54.95)"/><path class="cls-25" d="M318.48,269.05c1.3,1.27-4.08,4.74-12.66,1.79s-10.05-11.63-10.05-11.63S310,260.77,318.48,269.05Z" transform="translate(0 -54.95)"/><path class="cls-8" d="M287.78,260.63c4.08,1.69,3.3,6.13-3.46,14.24-4.16-3.59-6.42-11.75-4.24-14.36S284.23,259.17,287.78,260.63Z" transform="translate(0 -54.95)"/><path class="cls-29" d="M281.77,278.66v0a28.43,28.43,0,0,0,1.3,3.18c4,8.19,15.58,9.78,20.7,1.68l.06-.08c3.38-5.45,2.11-10.54.7-19.36a12.2,12.2,0,0,0-19-8.18C278.79,260.59,279.19,271.13,281.77,278.66Z" transform="translate(0 -54.95)"/><path class="cls-8" d="M292.08,269.41c.16.71-.09,1.37-.55,1.47s-1-.38-1.12-1.09.08-1.36.54-1.47S291.88,268.73,292.08,269.41Z" transform="translate(0 -54.95)"/><path class="cls-8" d="M284,271.23c.15.71-.1,1.37-.56,1.47s-1-.38-1.13-1.1.09-1.36.56-1.47S283.88,270.52,284,271.23Z" transform="translate(0 -54.95)"/><path class="cls-31" d="M286.74,271a25.77,25.77,0,0,1-2,6.82c1.54.88,3.53-.13,3.53-.13Z" transform="translate(0 -54.95)"/><path class="cls-8" d="M293.71,266.38a.4.4,0,0,0,.21-.72,4.21,4.21,0,0,0-3.77-1,.42.42,0,0,0-.3.5v0a.44.44,0,0,0,.53.29h0a3.36,3.36,0,0,1,3,.79A.44.44,0,0,0,293.71,266.38Z" transform="translate(0 -54.95)"/><path class="cls-8" d="M279.76,269.34a.45.45,0,0,0,.33-.32,3.39,3.39,0,0,1,1.92-2.41.43.43,0,0,0-.29-.81,4.28,4.28,0,0,0-2.46,3,.43.43,0,0,0,.31.51h0A.37.37,0,0,0,279.76,269.34Z" transform="translate(0 -54.95)"/><path class="cls-8" d="M299.34,257.18c-3.75,2.31-2.27,6.58,5.69,13.5,3.54-4.2,4.47-12.63,1.89-14.85S302.62,255.18,299.34,257.18Z" transform="translate(0 -54.95)"/><path class="cls-29" d="M310.24,270.14a8.46,8.46,0,0,1-2.83,5.84c-2.24,2-4.64.26-5.09-2.52-.4-2.51.29-6.55,3.05-7.43S310.39,267.39,310.24,270.14Z" transform="translate(0 -54.95)"/><path class="cls-32" d="M295.09,277.75s-.92,3.18-5.18,3.92" transform="translate(0 -54.95)"/><path class="cls-8" d="M296,259a8.22,8.22,0,0,0-3.51,2.44,2.1,2.1,0,0,1,0-1.78,12.58,12.58,0,0,0-3.75,3,6.26,6.26,0,0,1-.61-2.85,16.64,16.64,0,0,0-1.67,3.66s-3-1.09-3.28-3.47a12.19,12.19,0,0,0,0,3.07,3.7,3.7,0,0,1-2.42-2.67,10.07,10.07,0,0,0-.53,3.73s-2.23-1.06-1.58-4.13,9.32-7.8,14.35-6.32S296,259,296,259Z" transform="translate(0 -54.95)"/><path class="cls-25" d="M278.39,261.31s.09-8.88,3.69-12.21,16.45-4.41,22.81-1.09S309,263.32,309,263.32,295.92,256.69,278.39,261.31Z" transform="translate(0 -54.95)"/><path class="cls-8" d="M282.85,258.46a20.17,20.17,0,0,1,8-.66s2.25-4-3.37-4.19C283.43,253.44,282.62,255.6,282.85,258.46Z" transform="translate(0 -54.95)"/><path class="cls-6" d="M302.15,261l7.09.05a35.53,35.53,0,0,1,9.24,8S313,264.3,302.15,261Z" transform="translate(0 -54.95)"/><path class="cls-25" d="M302.15,261l7.09.05a35.53,35.53,0,0,1,9.24,8S313,264.3,302.15,261Z" transform="translate(0 -54.95)"/><path class="cls-15" d="M326.73,359.16l-20.74,23s-22.92-.51-50.76,13.09c0,0-29.87-12.34-32.62-22.59s62.71-3,62.71-3Z" transform="translate(0 -54.95)"/><path class="cls-29" d="M320.87,352.41l-33.25,10.88s-11.88-2.63-14-2.63-10.33,6.67-5.69,9,17.31,2.63,18.69,1.88,38.25-9.38,38.25-9.38Z" transform="translate(0 -54.95)"/><path class="cls-12" d="M330.73,289.53c-7.53-1.46,5.53,44.38,2.33,51.13s-15.69,11-15.69,11l5.75,12.69s17-3.21,26.25-15S343,291.92,330.73,289.53Z" transform="translate(0 -54.95)"/><polygon class="cls-6" points="317.37 295.71 324.37 309.42 318.37 310.71 312.87 298.08 317.37 295.71"/><polygon class="cls-33" points="317.37 295.71 324.37 309.42 318.37 310.71 312.87 298.08 317.37 295.71"/><path class="cls-8" d="M303.62,369.66v2.18a2.84,2.84,0,0,1-2.71,2.82H220.52a3,3,0,0,1-2.9-2.82v-2.18Z" transform="translate(0 -54.95)"/><path class="cls-14" d="M303.62,369.66v2.18a2.84,2.84,0,0,1-2.71,2.82H220.52a3,3,0,0,1-2.9-2.82v-2.18Z" transform="translate(0 -54.95)"/><path class="cls-14" d="M273.62,369.66v2.18a2.85,2.85,0,0,1-2.72,2.82H220.52a3,3,0,0,1-2.9-2.82v-2.18Z" transform="translate(0 -54.95)"/><path class="cls-8" d="M270.9,372.66H217.79a4.33,4.33,0,0,1-3.86-2.85l-12.18-38.2a2.12,2.12,0,0,1,2-2.95H256.9a4.43,4.43,0,0,1,3.86,2.95l12.18,38.15A2.08,2.08,0,0,1,270.9,372.66Z" transform="translate(0 -54.95)"/><path class="cls-14" d="M270.9,372.66H217.79a4.33,4.33,0,0,1-3.86-2.85l-12.18-38.2a2.12,2.12,0,0,1,2-2.95H256.9a4.43,4.43,0,0,1,3.86,2.95l12.18,38.15A2.08,2.08,0,0,1,270.9,372.66Z" transform="translate(0 -54.95)"/><path class="cls-14" d="M268.9,372.66H217.79a4.33,4.33,0,0,1-3.86-2.85l-12.18-38.2a2.12,2.12,0,0,1,2-2.95H254.9a4.43,4.43,0,0,1,3.86,2.95l12.18,38.15A2.08,2.08,0,0,1,268.9,372.66Z" transform="translate(0 -54.95)"/><path class="cls-14" d="M237.83,352.41c.65,2.55-.61,4.61-2.83,4.61s-4.55-2.06-5.2-4.61.61-4.61,2.83-4.61S237.17,349.87,237.83,352.41Z" transform="translate(0 -54.95)"/><path class="cls-34" d="M233.18,306.14H221.59a3.17,3.17,0,0,0-3.16,3.17v9.05a3.17,3.17,0,0,0,3.16,3.17h4.26l1.54,3.73,1.53-3.73h4.26a3.17,3.17,0,0,0,3.17-3.17v-9.05A3.17,3.17,0,0,0,233.18,306.14Z" transform="translate(0 -54.95)"/><path class="cls-10" d="M223,310.7c1.15-1.81,3.29-1.08,4.39.35,1.13-1.41,3.29-2.08,4.39-.24,1.86,3.11-2.09,5.92-4,7l-.53.31-.52-.32C225,316.67,221.08,313.76,223,310.7Z" transform="translate(0 -54.95)"/><path class="cls-12" d="M263.52,314.54h-5.8a1.59,1.59,0,0,0-1.58,1.59v4.52a1.59,1.59,0,0,0,1.58,1.59h2.13l.77,1.86.76-1.86h2.14a1.59,1.59,0,0,0,1.58-1.59v-4.52A1.59,1.59,0,0,0,263.52,314.54Z" transform="translate(0 -54.95)"/><path class="cls-10" d="M258.43,316.82c.58-.9,1.65-.54,2.2.18.56-.71,1.64-1,2.19-.12.93,1.55-1,3-2,3.5l-.27.16-.26-.16C259.4,319.81,257.46,318.35,258.43,316.82Z" transform="translate(0 -54.95)"/><path class="cls-12" d="M249.51,285.34h-7.78a2.12,2.12,0,0,0-2.13,2.12v6.08a2.12,2.12,0,0,0,2.13,2.12h2.86l1,2.51,1-2.51h2.86a2.12,2.12,0,0,0,2.12-2.12v-6.08A2.12,2.12,0,0,0,249.51,285.34Z" transform="translate(0 -54.95)"/><path class="cls-10" d="M242.68,288.4c.78-1.22,2.21-.73,2.95.23.76-.94,2.21-1.4,3-.16,1.25,2.09-1.4,4-2.65,4.71l-.36.21-.35-.22C244,292.4,241.38,290.45,242.68,288.4Z" transform="translate(0 -54.95)"/><path class="cls-14" d="M286,417.89l3.57-7.89a.87.87,0,0,1,1.16-.42l3.86,1.89s5.36,2.17,6,3.91c2,5.1-5.49,22.76-7.82,22.76-.85,0-1.36-1.32-1.48-2.16-.38-2.68-.44-9.4-.78-11.63-.4-2.6-3-4.6-4.25-5.4A.85.85,0,0,1,286,417.89Z" transform="translate(0 -54.95)"/><path class="cls-14" d="M227.39,408.86l3.14,8.07a.86.86,0,0,1-.52,1.12l-4,1.43s-5.31,2.32-7,1.58c-5-2.16-12.41-19.84-10.78-21.51.59-.61,1.89-.05,2.58.46,2.17,1.6,7,6.26,8.85,7.57,2.14,1.54,5.41,1.06,6.83.75A.85.85,0,0,1,227.39,408.86Z" transform="translate(0 -54.95)"/></g></g></svg>