<!-- Generator: Adobe Illustrator 24.0.0, SVG Export Plug-In  -->
<svg version="1.1" xmlns="http://www.w3.org/2000/svg" xmlns:xlink="http://www.w3.org/1999/xlink" x="0px" y="0px" width="685.2px"
	 height="472.6px" viewBox="0 0 685.2 472.6" style="enable-background:new 0 0 685.2 472.6;" xml:space="preserve">
<style type="text/css">
	.st0{fill:#FCF5E3;}
	.st1{fill:#2E306D;}
	.st2{fill:#EA9C8B;}
	.st3{fill:#F1CF72;}
	.st4{fill:#FFFFFF;}
	.st5{fill:#7571F0;}
	.st6{fill:#F55F49;}
	.st7{opacity:0.2;fill:#EA9C8B;}
	.st8{fill:#DE2345;}
	.st9{fill:#5A4BD5;}
	.st10{fill:#E57C7C;}
	.st11{fill:#C6C5FE;}
</style>
<defs>
</defs>
<g>
	<path class="st0" d="M144,0H70.2C58.3,0,47.3,6.3,41.4,16.6L4.5,80.6c-5.9,10.3-5.9,23,0,33.3l36.9,63.9
		c5.9,10.3,16.9,16.6,28.8,16.6H144c11.9,0,22.9-6.3,28.8-16.6l36.9-63.9c5.9-10.3,5.9-23,0-33.3l-36.9-63.9
		C166.9,6.3,155.9,0,144,0z"/>
	<g>
		<path class="st1" d="M123.5,153.9c-1.8-8-2.7-14.9-2.7-15.5l-37,10.9c0,0-0.3,9.8-1.6,18.9C97,169.3,112.4,164,123.5,153.9z"/>
		<path class="st2" d="M69.5,41c-6.3,10.1-9.3,21.9-11,33.6c-2,13.5-2.4,27.1-1.3,40.7c1,12.3,3.8,25.6,13,33.8
			c7.4,6.7,17.8,9,27.7,9.4c4.6,0.2,9.3,0,13.6-1.4c5.2-1.7,9.6-5,13.7-8.6c18.9-16.5,31.7-39.8,35.6-64.6
			c1.6-10.4,1.7-21.3-1.7-31.2c-4.2-12.2-13.6-22.4-25-28.4c-9.8-5.1-26.8-10.3-37.4-5.1C85.7,24.5,76.1,30.3,69.5,41z"/>
		<path class="st3" d="M147.9,103.1c-4-11.5-4.4-24.1-1.3-35.9c-17.1-2.9-32.3-14.3-40.7-29.5c-1.3,3.7-4,6.8-7.2,9
			c-3.3,2.2-7,3.6-10.8,4.8c-8.1,2.6-16.6,4.3-25.1,5c-2,7.6-4,15.9-5,23.6c-2.8-1.7-4.6-3.7-5.8-6.7s-1.6-6.3-1.8-9.5
			c-0.2-4.6,0.1-9.4,2.3-13.5c-4.5-9.8-0.6-21.8,7.2-29.1s18.7-10.7,29.4-12c9.1-1.1,18.4-1.1,27.5,0.3c10.1,1.5,20.1,4.6,28.7,10.2
			c8.5,5.7,15.4,14.1,18.1,24c6.9,0.5,12.4,7.6,13.5,14.4c1.2,6.9-0.9,13.9-3.4,20.4c-2.4,6.1-5.2,12.2-9.8,17
			C159.2,100.2,154.4,103.9,147.9,103.1z"/>
		<g>
			<path class="st2" d="M167.3,109.7c-1.6,5.1-5,9.7-9.1,12.9c-2.8,2.2-5.9,3.9-9.1,4.4c-3.2,0.5-6.5-0.2-8.7-2.4
				c-2.1-2-3.1-5-3.5-8.2c-0.8-7.3,2.3-15.3,7.3-21.1c3.5-4,8.2-7.1,12.8-7.2C166.5,88.1,170,100.6,167.3,109.7z"/>
			<path class="st2" d="M139.9,117.9c2.2,0.1,4.5-0.5,6.6-1.6c0.6-0.4,1.3-0.9,1.3-1.6c0-0.4-0.1-0.8-0.3-1.1
				c-1-2.1-2.4-3.9-4.1-5.4c1.6-2.8,3.3-5.7,5.6-8.1c2.2-2.3,5.2-4.1,8.2-4.2c3.1-0.1,6.2,1.8,7,4.9c0,0,3.1,9-7.5,17.3
				C145.6,126.8,139.9,117.9,139.9,117.9z"/>
			<g>
				<path class="st1" d="M164.2,100.7c-0.9-2.3-2.9-3.7-5.1-4.1c-2.2-0.4-4.4,0.3-6.2,1.5c-1.9,1.2-3.5,2.8-4.8,4.6
					c-1.4,1.8-2.6,3.8-3.8,5.9l-0.2-1.2c1.1,1,2,2.2,2.8,3.4c0.4,0.6,0.8,1.3,1.1,1.9c0.2,0.3,0.3,0.6,0.5,1.1
					c0.1,0.4,0.1,1.1-0.1,1.5c-0.5,0.9-1.3,1.2-1.9,1.5c-0.7,0.3-1.4,0.5-2.1,0.7c-1.4,0.4-2.9,0.4-4.3,0.2c1.4-0.1,2.8-0.4,4.1-0.9
					c0.6-0.3,1.2-0.6,1.8-0.9c0.6-0.3,1.1-0.8,1.3-1.2c0.1-0.2,0.1-0.3,0-0.5c-0.1-0.2-0.3-0.5-0.4-0.8c-0.4-0.6-0.7-1.2-1.1-1.7
					c-0.8-1.1-1.7-2.1-2.7-3l-0.6-0.5l0.4-0.7c1.2-2.1,2.3-4.2,3.9-6.1c0.8-1,1.6-1.9,2.5-2.8c0.9-0.8,1.9-1.6,3-2.2
					c2.2-1.2,4.9-1.9,7.4-1.1C161.8,96.2,163.9,98.3,164.2,100.7z"/>
			</g>
		</g>
		<g>
			<ellipse class="st4" cx="78.8" cy="81.1" rx="12" ry="13.1"/>
			<ellipse class="st5" cx="81.5" cy="81.1" rx="7.7" ry="10.2"/>
			<g>
				<path class="st1" d="M66.8,81.1c-0.4-3.3,0.5-6.9,2.7-9.6c1.1-1.4,2.5-2.5,4.1-3.3c1.6-0.8,3.4-1.2,5.2-1.2
					c1.8,0,3.6,0.4,5.2,1.2c1.6,0.8,3,1.9,4.1,3.3c2.2,2.7,3.2,6.3,2.7,9.6c-0.4-3.3-1.8-6.3-3.9-8.6c-2.1-2.2-5.1-3.6-8.1-3.6
					c-3,0-5.9,1.3-8.1,3.6C68.6,74.8,67.2,77.9,66.8,81.1z"/>
			</g>
			<circle class="st4" cx="74.6" cy="81.1" r="2.5"/>
		</g>
		<g>
			<ellipse class="st4" cx="120.2" cy="87" rx="12" ry="13.1"/>
			<ellipse class="st5" cx="122.9" cy="87" rx="7.7" ry="10.2"/>
			<g>
				<path class="st1" d="M108.3,87c-0.4-3.3,0.5-6.9,2.7-9.6c1.1-1.4,2.5-2.5,4.1-3.3c1.6-0.8,3.4-1.2,5.2-1.2
					c1.8,0,3.6,0.4,5.2,1.2c1.6,0.8,3,1.9,4.1,3.3c2.2,2.7,3.2,6.3,2.7,9.6c-0.4-3.3-1.8-6.3-3.9-8.6c-2.1-2.2-5.1-3.6-8.1-3.6
					c-3,0-5.9,1.3-8.1,3.6C110,80.7,108.7,83.7,108.3,87z"/>
			</g>
			<circle class="st4" cx="116" cy="87" r="2.5"/>
		</g>
		<g>
			<path class="st3" d="M61.6,69.4c1.6-2.5,3.7-4.7,6.2-6.5c1.2-0.9,2.6-1.7,4-2.4c1.4-0.7,2.9-1.2,4.4-1.7c1.5-0.4,3.1-0.9,4.7-1.2
				c1.6-0.3,3.3-0.2,4.8,0.2c1.6,0.4,3.1,1.1,4.5,2c1.4,0.9,2.6,2.1,3.5,3.6l-0.3,0.6c-1.7,0.3-3.2,0.4-4.6,0.5
				c-1.4,0.1-2.7,0.2-4,0.2c-1.3,0-2.5,0-3.8-0.2c-1.3-0.2-2.6-0.3-3.9-0.3c-1.3,0.1-2.6,0.3-3.9,0.6c-1.3,0.3-2.6,0.6-3.9,1.1
				c-2.6,0.9-5,2.3-7.4,4L61.6,69.4z"/>
		</g>
		<g>
			<path class="st3" d="M140.7,82c-1.6-2.6-3.5-4.9-5.6-6.8c-1.1-0.9-2.2-1.8-3.4-2.5c-1.2-0.7-2.4-1.3-3.7-1.8
				c-1.3-0.5-2.6-0.7-3.9-0.9c-1.3-0.2-2.6-0.4-3.9-0.8l-4-1.1c-1.4-0.4-2.9-0.8-4.6-1.4l-0.2-0.7c1.2-1.4,2.8-2.2,4.4-2.9
				c1.6-0.6,3.4-0.9,5.1-0.9c1.7,0,3.5,0.4,5.1,1.1c1.6,0.7,3.1,1.6,4.5,2.6c1.4,0.9,2.8,2,4,3.1c1.2,1.2,2.2,2.5,3.2,3.8
				c1.8,2.7,3.1,5.7,3.7,8.8L140.7,82z"/>
		</g>
		<g>
			<path class="st1" d="M100.3,74.7c-0.7,6.8-2.7,13.5-5.7,19.8c-1.5,3.1-3.3,6.1-5.2,9c-2,2.8-4.2,5.5-6.6,8l0-0.9
				c1,1.1,2,2.2,3,3.2c1.1,1,2.2,1.9,3.6,2.6c-1.4-0.4-2.8-1.1-4-2c-1.2-0.9-2.4-1.8-3.5-2.9l-0.4-0.4l0.4-0.5
				c2.1-2.6,4.1-5.4,6-8.2c1.9-2.8,3.5-5.7,5.1-8.7C95.9,87.6,98.3,81.3,100.3,74.7z"/>
		</g>
		<g>
			<path class="st1" d="M100.5,126.5c1.6-1.8,2.5-3.4,2.2-3.6c-0.8-0.5-11,2.8-14.8,2.1c-4-0.8-9.1-6.4-9.8-5.2
				c-0.5,0.9,1.6,7.4,5.6,11C88.5,127.3,94.6,125.8,100.5,126.5z"/>
			<path class="st6" d="M83.7,130.8c1.4,1.3,3,2.2,4.9,2.4c4.5,0.5,9.2-3.5,11.9-6.7C94.6,125.8,88.5,127.3,83.7,130.8z"/>
		</g>
		<path class="st7" d="M99.3,91.3c-9.1-2.3-19.4-1.4-27.1,4c-2.6,1.8-4.9,4.1-6.2,7c-0.8,1.7-1.1,3.8,0.1,5.1c1,1.1,2.6,1.3,4.1,1.2
			c6.7-0.3,13-4.6,19.5-3.5c3.3,0.6,6.2,2.4,9.2,4.1c3.1,1.8,6.3,3.4,9.6,4.7c2.6,1.1,5.3,2,8,2.1c2.8,0,5.7-1,7.4-3.2
			c4.2-5.7-3.2-10.4-7.2-13.2C111.5,96,105.6,92.9,99.3,91.3z"/>
		<g>
			<g>
				<path class="st1" d="M54.8,41.9c4.1,0.7,8.2,0.8,12.2,0.3c4-0.4,8-1.4,11.8-3c3.8-1.5,7.3-3.6,10.5-6.2c1.6-1.3,3.1-2.7,4.5-4.1
					c1.4-1.5,2.7-3.1,3.9-4.7c-1,1.8-2.2,3.5-3.6,5.1c-1.3,1.6-2.8,3-4.4,4.4c-3.1,2.7-6.7,4.9-10.6,6.5c-3.9,1.5-8,2.5-12.1,2.8
					C63,43.3,58.8,43,54.8,41.9z"/>
			</g>
			<g>
				<path class="st1" d="M56.8,31.3c3.3-0.2,6.6-0.6,9.8-1.4C69.9,29,73,28,76,26.6c3-1.4,5.9-3,8.6-4.9l2-1.5l1.9-1.6l1.9-1.7
					c0.6-0.6,1.2-1.2,1.8-1.7c-0.5,0.6-1.1,1.3-1.6,1.9L88.9,19L87,20.7l-1.9,1.6c-2.7,2.1-5.6,3.8-8.6,5.2
					c-3.1,1.4-6.3,2.4-9.6,3.1C63.5,31.2,60.2,31.5,56.8,31.3z"/>
			</g>
			<g>
				<path class="st1" d="M108.2,13.5c0.7,2.9,1.5,5.8,2.6,8.6c1,2.8,2.3,5.5,3.7,8.2c2.8,5.2,6.4,10.1,10.7,14.2
					c4.3,4.1,9.4,7.4,14.8,9.7c5.5,2.3,11.4,3.6,17.4,3.5c-3,0.2-6,0.1-9-0.4c-3-0.5-5.9-1.3-8.7-2.4c-5.6-2.2-10.8-5.5-15.2-9.7
					c-4.4-4.2-8-9.1-10.7-14.5C111.1,25.2,109.2,19.4,108.2,13.5z"/>
			</g>
			<g>
				<path class="st1" d="M120.5,14.6c2,3.9,4.4,7.6,7.2,11c2.8,3.3,6,6.4,9.5,8.9c3.5,2.6,7.3,4.8,11.3,6.5l3,1.2l3.1,1l3.2,0.8
					c1.1,0.2,2.2,0.4,3.2,0.6c-1.1-0.1-2.2-0.2-3.3-0.4l-3.2-0.6l-3.2-0.9l-3.1-1.1c-4.1-1.6-8-3.8-11.6-6.4
					c-3.5-2.7-6.8-5.7-9.5-9.2l-2-2.7l-1.8-2.8l-1.5-2.9C121.4,16.6,120.9,15.6,120.5,14.6z"/>
			</g>
			<g>
				<path class="st1" d="M160.2,58.3c-0.8,2.4-1.4,4.9-1.8,7.3c-0.4,2.5-0.5,5-0.3,7.4c0.2,2.5,0.8,4.9,1.8,7.2
					c0.5,1.1,1.1,2.2,1.8,3.3c0.7,1.1,1.5,2,2.4,2.9c-1-0.7-1.9-1.7-2.8-2.6c-0.8-1-1.5-2.1-2.1-3.3c-1.2-2.3-1.8-4.9-2.1-7.4
					c-0.2-2.6,0-5.2,0.6-7.7C158.2,63,159,60.5,160.2,58.3z"/>
			</g>
			<g>
				<path class="st1" d="M165.7,54.3c-0.1,2.1-0.1,4.2,0.1,6.2c0.2,2.1,0.5,4.1,1,6.1c0.5,2,1.2,3.9,2,5.8l0.6,1.4l0.7,1.4l0.7,1.4
					c0.3,0.4,0.5,0.9,0.8,1.3c-0.3-0.4-0.7-0.8-1-1.2l-0.9-1.3l-0.8-1.3l-0.8-1.4c-1-1.9-1.7-3.9-2.3-5.9c-0.5-2.1-0.8-4.2-0.8-6.3
					C165,58.5,165.2,56.3,165.7,54.3z"/>
			</g>
			<g>
				<path class="st1" d="M56.9,52.4c-1,3.4-1.6,6.8-1.6,10.3c0,3.5,0.6,6.9,1.6,10.3c-1.8-3.1-2.6-6.7-2.6-10.3
					C54.3,59.1,55.1,55.4,56.9,52.4z"/>
			</g>
		</g>
		<g>
			<path class="st2" d="M93.9,199.4c8.8,3.3,19.1,0.4,26.6-5.3c5.4-4.1,9.6-9.4,13.4-15c-0.3-0.2-0.5-0.5-0.8-0.7
				c-4.3-4-7.6-15-9.7-24.5C112.4,164,97,169.3,82.1,168.2c-0.5,3.7-1.3,7.2-2.2,9.9c-0.5,1.3-1.4,2.7-2.6,4.2
				C81,189.8,86.3,196.6,93.9,199.4z"/>
			<path class="st1" d="M176.3,206.1c-5.7-5.7-33.5-19.4-42.4-26.9c-3.7,5.7-8,11-13.4,15c-7.5,5.7-17.8,8.6-26.6,5.3
				c-7.6-2.9-12.9-9.7-16.6-17.1c-7.5,9-27.7,20-36.5,25.8C30.5,214.9,27,232.5,27,232.5h162.5C189.5,232.5,182.2,211.9,176.3,206.1
				z"/>
		</g>
	</g>
</g>
<g>
	<path class="st0" d="M378.5,0h-73.8c-11.9,0-22.9,6.3-28.8,16.6L239,80.6c-5.9,10.3-5.9,23,0,33.3l36.9,63.9
		c5.9,10.3,16.9,16.6,28.8,16.6h73.8c11.9,0,22.9-6.3,28.8-16.6l36.9-63.9c5.9-10.3,5.9-23,0-33.3l-36.9-63.9
		C401.4,6.3,390.4,0,378.5,0z"/>
	<g>
		<path class="st8" d="M281.6,207.4c-4.5-2.3-8.9-5.3-11.7-9.5c-2.8-4.2-3.6-11-1.1-15.4c-5.5-4.2-8.8-11.5-7.9-18.4
			c1.4-10.7,11.5-17.9,16.3-27.6c2.9-5.9,3.8-12.7,4.3-19.3c1.4-21.6-1.7-43.3-1.3-65c0.1-6.4,0.5-12.9,3.1-18.8
			c3.9-9,12.3-15.2,21.1-19.6c11.6-5.8,24.3-9.2,37.3-9.9c17.3-0.9,35.1,3.8,48.7,14.6c14,11.2,21.4,28.8,24.8,46.4
			c3.4,17.6,3.2,35.6,4.9,53.4c0.7,6.8,1.7,13.8,4.8,19.9c4.7,9.1,13.9,15.5,17.5,25.1c4.2,11.3-1.5,25.4-12.4,30.5
			c0.9,1.8-0.3,5.3-1.1,7.2c-1.9,4.5-5,8.6-9.1,11.2c-4.1,2.6-9.3,3.6-14,2.5"/>
		<path class="st1" d="M357.8,145.7c-1.8-8-2.7-14.9-2.7-15.5l-37,10.9c0,0-0.3,9.8-1.6,18.9C331.4,161.1,346.7,155.8,357.8,145.7z"
			/>
		<path class="st2" d="M303.8,32.8c-6.3,10.1-9.3,21.9-11,33.6c-2,13.5-2.4,27.1-1.3,40.7c1,12.3,3.8,25.6,13,33.8
			c7.4,6.7,17.8,9,27.7,9.4c4.6,0.2,9.3,0,13.6-1.4c5.2-1.7,9.6-5,13.7-8.6c18.9-16.5,31.7-39.8,35.6-64.6
			c1.6-10.4,1.7-21.3-1.7-31.2c-4.2-12.2-13.6-22.4-25-28.4c-9.8-5.1-26.8-10.3-37.4-5.1C320,16.3,310.4,22.2,303.8,32.8z"/>
		<g>
			<path class="st8" d="M295.9,61.2c1.6-2.5,3.7-4.7,6.2-6.5c1.2-0.9,2.6-1.7,4-2.4c1.4-0.7,2.9-1.2,4.4-1.7
				c1.5-0.4,3.1-0.9,4.7-1.2c1.6-0.3,3.3-0.2,4.8,0.2c1.6,0.4,3.1,1.1,4.5,2c1.4,0.9,2.6,2.1,3.5,3.6l-0.3,0.6
				c-1.7,0.3-3.2,0.4-4.6,0.5c-1.4,0.1-2.7,0.2-4,0.2c-1.3,0-2.5,0-3.8-0.2c-1.3-0.2-2.6-0.3-3.9-0.3c-1.3,0.1-2.6,0.3-3.9,0.6
				c-1.3,0.3-2.6,0.6-3.9,1.1c-2.6,0.9-5,2.3-7.4,4L295.9,61.2z"/>
		</g>
		<g>
			<path class="st8" d="M375,73.8c-1.6-2.6-3.5-4.9-5.6-6.8c-1.1-0.9-2.2-1.8-3.4-2.5c-1.2-0.7-2.4-1.3-3.7-1.8
				c-1.3-0.5-2.6-0.7-3.9-0.9c-1.3-0.2-2.6-0.4-3.9-0.8l-4-1.1c-1.4-0.4-2.9-0.8-4.6-1.4l-0.2-0.7c1.2-1.4,2.8-2.2,4.4-2.9
				c1.6-0.6,3.4-0.9,5.1-0.9c1.7,0,3.5,0.4,5.1,1.1c1.6,0.7,3.1,1.6,4.5,2.6c1.4,0.9,2.8,2,4,3.1c1.2,1.2,2.2,2.5,3.2,3.8
				c1.8,2.7,3.1,5.7,3.7,8.8L375,73.8z"/>
		</g>
		<path class="st7" d="M333.6,83.1c-9.1-2.3-19.4-1.4-27.1,4c-2.6,1.8-4.9,4.1-6.2,7c-0.8,1.7-1.1,3.8,0.1,5.1
			c1,1.1,2.6,1.3,4.1,1.2c6.7-0.3,13-4.6,19.5-3.5c3.3,0.6,6.2,2.4,9.2,4.1c3.1,1.8,6.3,3.4,9.6,4.7c2.6,1.1,5.3,2,8,2.1
			c2.8,0,5.7-1,7.4-3.2c4.2-5.7-3.2-10.4-7.2-13.2C345.8,87.8,339.9,84.7,333.6,83.1z"/>
		<path class="st8" d="M297.1,40c4.3-3,9.1-5.4,14.2-6.2c5.2-0.8,10.7,0.1,14.9,3.2c7.2,5.2,9.2,15,14.2,22.4
			c6.4,9.3,17.9,14.3,29.2,14.2c11.3-0.1,22.1-4.8,31-11.7c-1.6-11.7-4.3-23.7-11.4-33.1c-11.1-14.9-30.4-22.2-49-21.8
			c-5.5,0.1-11.1,0.9-16.1,3.3c-5.4,2.6-9.7,7-13.8,11.3C305.1,26.8,299.9,33.1,297.1,40z"/>
		<g>
			<path class="st1" d="M315.1,113.4c1.4,1.9,2.9,3.6,4.6,5.2c1.7,1.5,3.5,2.9,5.4,2.9c1,0,2-0.3,3-0.7c1.1-0.4,2.1-0.8,3.1-1.4
				c2-1.1,3.9-2.4,5.7-4c-1.2,2.1-2.9,3.9-4.9,5.3c-1,0.7-2.1,1.3-3.2,1.8c-1.1,0.5-2.4,0.9-3.8,0.9c-1.4,0-2.7-0.6-3.8-1.3
				c-1.1-0.8-1.9-1.6-2.7-2.5C317.1,117.8,315.8,115.7,315.1,113.4z"/>
		</g>
		<g>
			<path class="st1" d="M333.4,68.1c-0.1,2.3-0.5,4.5-1.1,6.7c-0.6,2.2-1.4,4.3-2.3,6.4c-1.8,4.2-3.9,8.2-5.5,12.3
				c-0.8,2.1-1.6,4.2-2.1,6.3c-0.2,1.1-0.5,2.2-0.6,3.2c-0.1,1.1-0.1,2.1,0,3.1c0.3,2,1.8,3.6,4,3.9c2.1,0.3,4.4-0.3,6.4-1.3
				c-1.8,1.4-4,2.4-6.5,2.3c-1.2-0.1-2.5-0.5-3.5-1.3c-1-0.8-1.6-2-1.9-3.2c-0.3-1.2-0.3-2.4-0.2-3.6c0.1-1.2,0.3-2.3,0.5-3.5
				c0.5-2.3,1.3-4.5,2.1-6.6c1.8-4.3,3.9-8.2,6-12.3c1-2,2-4,2.8-6.1C332.2,72.5,332.9,70.4,333.4,68.1z"/>
		</g>
		<g>
			<path class="st1" d="M300.2,80.1c0.6-3,1.7-6,3.8-8.5c0.5-0.6,1.1-1.2,1.7-1.7c0.6-0.5,1.3-1,2.1-1.3c1.5-0.7,3.1-1.2,4.8-1.2
				c1.7,0,3.4,0.3,4.9,1.1c1.5,0.9,2.7,2.2,3.4,3.7c0.7,1.5,1,3.1,1.2,4.6c0.2,1.5,0.3,3,0.3,4.6c-1-2.9-1.5-6-3-8.4
				c-1.4-2.5-4-3.7-6.8-3.5c-1.4,0-2.8,0.4-4,0.9c-1.3,0.5-2.4,1.4-3.5,2.4C303.1,74.8,301.6,77.4,300.2,80.1z"/>
		</g>
		<g>
			<path class="st1" d="M339.4,83.3c1.4-2.7,3.2-5.2,5.8-7c1.3-0.9,2.7-1.6,4.3-2c1.6-0.4,3.2-0.5,4.8-0.2c1.6,0.3,3.2,0.9,4.5,2
				c0.6,0.5,1.2,1.2,1.6,1.9c0.4,0.7,0.7,1.5,0.9,2.3c0.4,1.5,0.5,3.1,0.4,4.6c0,1.5-0.2,3-0.6,4.5c-0.1-3-0.4-6-1.3-8.7
				c-0.5-1.3-1.1-2.4-2.2-3.2c-0.5-0.4-1.1-0.7-1.7-0.9c-0.6-0.3-1.3-0.4-1.9-0.5c-2.7-0.4-5.5,0.2-7.9,1.6
				C343.6,79.1,341.5,81.2,339.4,83.3z"/>
		</g>
		<path class="st8" d="M387.7,109.4c0.9,0.9,2.2,1.8,3.3,1.2c0.6-0.3,0.8-0.9,1.1-1.5c5.2-11.7,10.3-23.9,9.6-36.7
			c-0.3-4.7-1.4-9.6-4.2-13.4c-2.8-3.8-7.6-6.4-12.3-5.7c-11,1.6-13.6,14.9-12.8,23.9C373.6,89.2,379,100.9,387.7,109.4z"/>
		<g>
			<path class="st2" d="M401.6,101.5c-1.6,5.1-5,9.7-9.1,12.9c-2.8,2.2-5.9,3.9-9.1,4.4c-3.2,0.5-6.5-0.2-8.7-2.4
				c-2.1-2-3.1-5-3.5-8.2c-0.8-7.3,2.3-15.3,7.3-21.1c3.5-4,8.2-7.1,12.8-7.2C400.8,79.9,404.4,92.4,401.6,101.5z"/>
			<path class="st2" d="M374.3,109.8c2.2,0.1,4.5-0.5,6.6-1.6c0.6-0.4,1.3-0.9,1.3-1.6c0-0.4-0.1-0.8-0.3-1.1
				c-1-2.1-2.4-3.9-4.1-5.4c1.6-2.8,3.3-5.7,5.6-8.1c2.2-2.3,5.2-4.1,8.2-4.2c3.1-0.1,6.2,1.8,7,4.9c0,0,3.1,9-7.5,17.3
				C379.9,118.6,374.3,109.8,374.3,109.8z"/>
			<g>
				<path class="st1" d="M398.5,92.5c-0.9-2.3-2.9-3.7-5.1-4.1c-2.2-0.4-4.4,0.3-6.2,1.5c-1.9,1.2-3.5,2.8-4.8,4.6
					c-1.4,1.8-2.6,3.8-3.8,5.9l-0.2-1.2c1.1,1,2,2.2,2.8,3.4c0.4,0.6,0.8,1.3,1.1,1.9c0.2,0.3,0.3,0.6,0.5,1.1
					c0.1,0.4,0.1,1.1-0.1,1.5c-0.5,0.9-1.3,1.2-1.9,1.5c-0.7,0.3-1.4,0.5-2.1,0.7c-1.4,0.4-2.9,0.4-4.3,0.2c1.4-0.1,2.8-0.4,4.1-0.9
					c0.6-0.3,1.2-0.6,1.8-0.9c0.6-0.3,1.1-0.8,1.3-1.2c0.1-0.2,0.1-0.3,0-0.5c-0.1-0.2-0.3-0.5-0.4-0.8c-0.4-0.6-0.7-1.2-1.1-1.7
					c-0.8-1.1-1.7-2.1-2.7-3l-0.6-0.5l0.4-0.7c1.2-2.1,2.3-4.2,3.9-6.1c0.8-1,1.6-1.9,2.5-2.8c0.9-0.8,1.9-1.6,3-2.2
					c2.2-1.2,4.9-1.9,7.4-1.1C396.1,88.1,398.2,90.1,398.5,92.5z"/>
			</g>
		</g>
		<circle class="st3" cx="378.9" cy="123.5" r="9.2"/>
		<g>
			<g>
				<path class="st1" d="M370.9,73.6c2.9-0.1,5.8-0.4,8.7-1c2.8-0.6,5.6-1.4,8.3-2.5c2.7-1.1,5.2-2.4,7.7-4l1.8-1.2l1.7-1.3l1.7-1.4
					c0.5-0.5,1.1-1,1.6-1.5c-0.5,0.6-1,1.1-1.5,1.6l-1.6,1.6l-1.7,1.4l-1.8,1.3c-2.4,1.7-5,3.1-7.7,4.3c-2.7,1.1-5.6,1.9-8.5,2.4
					C376.8,73.8,373.8,73.9,370.9,73.6z"/>
			</g>
			<g>
				<path class="st1" d="M297.4,31c3.4-4.5,7.8-8.2,13-10.5c5.1-2.4,11-3.3,16.6-2.4c5.6,0.8,11,3.4,15,7.5
					c4.1,4.1,6.4,9.4,9.1,14.2c1.3,2.5,2.7,4.9,4.4,7.1c1.7,2.2,3.7,4.1,6,5.6c4.6,3.1,10.1,4.6,15.6,4.9c5.5,0.3,11.1-0.9,16.3-3
					c5.2-2,10-5.1,14.4-8.5c-4.3,3.6-9,6.7-14.2,9c-5.2,2.2-10.8,3.5-16.5,3.3c-2.8-0.1-5.7-0.6-8.4-1.4c-2.7-0.8-5.3-2-7.7-3.6
					c-2.4-1.6-4.5-3.5-6.3-5.8c-1.8-2.2-3.2-4.7-4.5-7.2c-2.6-4.9-4.9-10.1-8.8-14.1c-3.8-4-9.1-6.4-14.5-7.3
					c-2.7-0.4-5.5-0.5-8.3-0.1c-2.7,0.4-5.4,1.1-8,2.3C305.4,23.1,300.9,26.6,297.4,31z"/>
			</g>
			<g>
				<path class="st1" d="M322.3,11.4c3.3-2.1,7.1-3.2,11-3.5c3.9-0.3,7.8,0.2,11.5,1.4c3.7,1.2,7.2,3,10.4,5.2
					c3.2,2.2,6.2,4.7,9,7.4c5.5,5.4,10.2,11.7,16.7,15.8c3.2,2.1,6.9,3.4,10.7,3.7c3.8,0.3,7.8-0.5,10.8-2.9
					c-2.9,2.6-7,3.6-10.8,3.4c-3.9-0.2-7.7-1.5-11-3.5c-3.3-2-6.2-4.7-8.9-7.4c-2.7-2.8-5.3-5.6-8-8.3c-5.4-5.4-11.7-10.1-18.9-12.5
					c-3.6-1.2-7.4-1.8-11.2-1.6C329.4,8.5,325.6,9.5,322.3,11.4z"/>
			</g>
			<g>
				<path class="st1" d="M408,76.7c0.5,8.9,0.5,17.9,0.2,26.8c-0.2,4.5-0.5,8.9-0.8,13.4c-0.3,4.4-0.5,8.9,0.3,13.3
					c0.4,2.2,1,4.3,1.9,6.2c1,2,2.2,3.7,3.8,5.2c3.2,3,7.2,5.2,10.4,8.5c3.2,3.2,5.5,7.4,6.1,12c0.5,4.5-0.9,9.4-4.3,12.5l0.1-0.4
					c1.1,1.7,1.4,3.8,1.5,5.7c0,2-0.3,3.9-0.8,5.8c-0.9,3.8-3.5,7.2-6.9,9.1c3.3-2.1,5.7-5.5,6.6-9.2c0.4-1.9,0.7-3.8,0.6-5.7
					c0-1.9-0.4-3.8-1.5-5.4l-0.1-0.2l0.2-0.2c3.2-3,4.5-7.7,3.9-12c-0.5-4.3-2.8-8.3-5.9-11.5c-3.1-3.2-7.1-5.3-10.4-8.4
					c-1.7-1.6-3-3.5-4-5.5c-1-2.1-1.6-4.3-2-6.5c-0.7-4.5-0.5-9-0.2-13.5c0.4-4.5,0.8-8.9,1-13.3C408,94.6,408.1,85.7,408,76.7z"/>
			</g>
			<g>
				<path class="st1" d="M392.8,128.1c-0.9,4.4-1.8,8.9-1.8,13.4c0.1,4.4,1.1,9,3.8,12.5c1.3,1.7,3.1,3.1,4.7,4.8
					c0.8,0.8,1.6,1.7,2.2,2.7c0.6,1,1.1,2.1,1.3,3.3c1,4.6-0.9,9.8-4.9,12.3l0.1-0.4c1,1.6,1.2,3.5,1.1,5.4
					c-0.1,1.8-0.5,3.6-1.3,5.2c0.7-1.7,1-3.5,1-5.2c0-1.8-0.3-3.6-1.3-5l-0.2-0.2l0.2-0.2c1.8-1.2,3.2-3.1,3.9-5.1
					c0.8-2,0.9-4.3,0.4-6.4c-0.3-1.1-0.7-2.1-1.2-3c-0.6-0.9-1.3-1.7-2.1-2.5c-1.6-1.6-3.4-3-4.8-4.9c-2.9-3.7-3.9-8.5-3.8-13
					C390.4,136.9,391.6,132.5,392.8,128.1z"/>
			</g>
			<g>
				<path class="st1" d="M285.9,85.6c-0.4,8.1,0.6,16.1,1.3,24.1c0.8,8,1.3,16.1,0,24.2c-0.6,4-1.8,8-3.6,11.6
					c-1.8,3.7-4.1,7-5.9,10.5c-1.8,3.5-2.9,7.5-2.2,11.4c0.6,3.9,2.6,7.6,5.6,10.2l0.1,0.1l-0.1,0.2c-0.8,2.1-0.8,4.4-0.2,6.6
					c0.6,2.2,1.6,4.3,3.4,5.7c-1.8-1.4-3-3.5-3.6-5.7c-0.6-2.2-0.7-4.6,0-6.8l0.1,0.3c-3.2-2.6-5.3-6.4-6-10.4
					c-0.4-2-0.3-4.1,0.1-6.1c0.4-2,1.2-3.9,2.1-5.8c1.8-3.7,4.1-7,5.8-10.5c1.7-3.6,2.8-7.4,3.5-11.4c1.3-7.9,0.9-16,0.2-24
					C285.9,101.7,285.1,93.6,285.9,85.6z"/>
			</g>
			<g>
				<path class="st1" d="M298.7,143.5c-0.2,1.5-0.8,3-1.4,4.3c-0.7,1.4-1.5,2.7-2.2,4c-1.4,2.6-2.3,5.5-2.5,8.4
					c-0.1,1.5,0,3,0.2,4.4c0.2,1.5,0.6,2.9,1.1,4.3c1,2.8,2.7,5.4,4.8,7.5c-1.2-0.9-2.3-2-3.2-3.3c-0.9-1.2-1.7-2.6-2.3-4
					c-1.2-2.8-1.8-6-1.6-9.1c0.2-3.1,1.2-6.2,2.8-8.8c0.8-1.3,1.6-2.6,2.4-3.9C297.7,146.3,298.3,144.9,298.7,143.5z"/>
			</g>
		</g>
		<g>
			<path class="st2" d="M389.6,224.3h34.2c0,0-7.3-20.6-13.2-26.5c-2.8-2.8-10.9-7.5-19.5-12.5c-2.3,5.9-3.3,12.4-3.3,18.8
				C387.7,211,388.6,217.7,389.6,224.3z"/>
			<path class="st2" d="M275.1,199.9c-10.3,6.8-13.8,24.4-13.8,24.4h21.9l3.8-31.8C282.4,195.4,278.1,198,275.1,199.9z"/>
			<path class="st5" d="M387.8,204.2c0.1-6.4,1-12.9,3.3-18.8c-1-0.6-2-1.2-3.1-1.8c-3.8,10.3-4.6,20.7-3.8,31.3h-95.4
				c0.2-8.3,0.8-16.6,2-24.8c-1.3,0.8-2.6,1.6-3.9,2.4l-3.8,31.8h106.4C388.6,217.7,387.7,211,387.8,204.2z"/>
			<path class="st2" d="M384.3,214.9c-0.8-10.6,0-21,3.8-31.3c-8.5-4.9-16.9-9.9-20.6-13.3c-4.3-4-7.6-15-9.7-24.5
				c-11.1,10.1-26.4,15.3-41.4,14.3c-0.5,3.7-1.3,7.2-2.2,9.9c-2,5.9-12.9,13.6-23.3,20.1c-1.2,8.2-1.9,16.5-2,24.8H384.3z"/>
		</g>
	</g>
</g>
<g>
	<path class="st0" d="M144,242.5H70.2c-11.9,0-22.9,6.3-28.8,16.6L4.5,323.1c-5.9,10.3-5.9,23,0,33.3l36.9,63.9
		c5.9,10.3,16.9,16.6,28.8,16.6H144c11.9,0,22.9-6.3,28.8-16.6l36.9-63.9c5.9-10.3,5.9-23,0-33.3l-36.9-63.9
		C166.9,248.9,155.9,242.5,144,242.5z"/>
	<g>
		<path class="st9" d="M125.3,380.2c1.5,5.3,3.1,10.8,6.6,15.1c6.4,7.9,17.6,10,27.8,10.6c10.2,0.6,21,0.4,29.9,5.5
			c6.8,3.9,11.7,10.8,13.2,18.5c-3.7-4.2-9.4-8.2-14.9-9.6c5.6,5.5,9.8,11.8,11,19.6c1.3,7.8-0.9,16.3-6.5,21.8
			c-7.2,7-18.5,7.8-28.4,5.9c-19.4-3.9-36.5-17.5-44.7-35.4c-6.4-14.1-7.4-30.1-7.7-45.6"/>
		<g>
			<path class="st9" d="M70.9,329.4c-3.1,1.1-6,2.7-8.7,4.7c-1.4,1-2.6,2.1-3.8,3.2c-1.2,1.2-2.3,2.4-3.2,3.6
				c-0.9,1.3-1.5,2.5-1.8,3.8c-0.3,1.2-0.2,2.5,0.2,3.9c0.8,2.7,3.1,5.4,5.7,7.8c0.6,0.6,1.3,1.2,2,1.8l2.2,1.9
				c1.4,1.3,2.9,2.6,4.2,4.1c1.3,1.5,2.5,3.2,3.4,5.1c0.9,1.9,1.3,4,1.2,6.1c-0.3,4.2-2.4,7.8-5.1,10.5c-2.7,2.8-5.9,4.7-9.1,6.7
				c2.9-2.3,5.9-4.6,8.2-7.5c2.2-2.8,3.7-6.3,3.5-9.7c-0.2-3.4-2.2-6.3-4.7-8.6c-1.3-1.2-2.7-2.2-4.2-3.3l-2.3-1.6
				c-0.8-0.5-1.6-1.1-2.4-1.7c-1.6-1.2-3.1-2.4-4.6-4c-1.4-1.5-2.8-3.3-3.7-5.5c-0.9-2.1-1.4-4.7-1.1-7.1c0.3-2.5,1.1-4.7,2.2-6.6
				c1.1-2,2.3-3.7,3.6-5.3c1.3-1.6,2.7-3.1,4.3-4.5c3.1-2.8,6.5-5.2,10.3-7.1L70.9,329.4z"/>
		</g>
		<path class="st1" d="M123.5,394c-1.8-8-2.7-14.9-2.7-15.5l-37,10.9c0,0-0.3,9.8-1.6,18.9C97,409.3,112.4,404.1,123.5,394z"/>
		<path class="st10" d="M69.5,281c-6.3,10.1-9.3,21.9-11,33.6c-2,13.5-2.4,27.1-1.3,40.7c1,12.3,3.8,25.6,13,33.8
			c7.4,6.7,17.8,9,27.7,9.4c4.6,0.2,9.3,0,13.6-1.4c5.2-1.7,9.6-5,13.7-8.6c18.9-16.5,31.7-39.8,35.6-64.6
			c1.6-10.4,1.7-21.3-1.7-31.2c-4.2-12.2-13.6-22.4-25-28.4c-9.8-5.1-26.8-10.3-37.4-5.1C85.7,264.5,76.1,270.4,69.5,281z"/>
		<g>
			<ellipse class="st4" cx="78.8" cy="321.2" rx="12" ry="13.1"/>
			<ellipse class="st1" cx="81.5" cy="321.2" rx="7.7" ry="10.2"/>
			<g>
				<path class="st1" d="M66.8,321.2c-0.4-3.3,0.5-6.9,2.7-9.6c1.1-1.4,2.5-2.5,4.1-3.3c1.6-0.8,3.4-1.2,5.2-1.2
					c1.8,0,3.6,0.4,5.2,1.2c1.6,0.8,3,1.9,4.1,3.3c2.2,2.7,3.2,6.3,2.7,9.6c-0.4-3.3-1.8-6.3-3.9-8.6c-2.1-2.2-5.1-3.6-8.1-3.6
					c-3,0-5.9,1.3-8.1,3.6C68.6,314.9,67.2,317.9,66.8,321.2z"/>
			</g>
			<circle class="st4" cx="74.6" cy="321.2" r="2.5"/>
		</g>
		<g>
			<ellipse class="st4" cx="120.2" cy="327.1" rx="12" ry="13.1"/>
			<ellipse class="st1" cx="122.9" cy="327.1" rx="7.7" ry="10.2"/>
			<g>
				<path class="st1" d="M108.3,327.1c-0.4-3.3,0.5-6.9,2.7-9.6c1.1-1.4,2.5-2.5,4.1-3.3c1.6-0.8,3.4-1.2,5.2-1.2
					c1.8,0,3.6,0.4,5.2,1.2c1.6,0.8,3,1.9,4.1,3.3c2.2,2.7,3.2,6.3,2.7,9.6c-0.4-3.3-1.8-6.3-3.9-8.6c-2.1-2.2-5.1-3.6-8.1-3.6
					c-3,0-5.9,1.3-8.1,3.6C110,320.7,108.7,323.8,108.3,327.1z"/>
			</g>
			<circle class="st4" cx="116" cy="327" r="2.5"/>
		</g>
		<g>
			<path class="st1" d="M61.6,309.4c1.6-2.5,3.7-4.7,6.2-6.5c1.2-0.9,2.6-1.7,4-2.4c1.4-0.7,2.9-1.2,4.4-1.7
				c1.5-0.4,3.1-0.9,4.7-1.2c1.6-0.3,3.3-0.2,4.8,0.2c1.6,0.4,3.1,1.1,4.5,2c1.4,0.9,2.6,2.1,3.5,3.6l-0.3,0.6
				c-1.7,0.3-3.2,0.4-4.6,0.5c-1.4,0.1-2.7,0.2-4,0.2c-1.3,0-2.5,0-3.8-0.2c-1.3-0.2-2.6-0.3-3.9-0.3c-1.3,0.1-2.6,0.3-3.9,0.6
				c-1.3,0.3-2.6,0.6-3.9,1.1c-2.6,0.9-5,2.3-7.4,4L61.6,309.4z"/>
		</g>
		<g>
			<path class="st1" d="M140.7,322c-1.6-2.6-3.5-4.9-5.6-6.8c-1.1-0.9-2.2-1.8-3.4-2.5c-1.2-0.7-2.4-1.3-3.7-1.8
				c-1.3-0.5-2.6-0.7-3.9-0.9c-1.3-0.2-2.6-0.4-3.9-0.8l-4-1.1c-1.4-0.4-2.9-0.8-4.6-1.4l-0.2-0.7c1.2-1.4,2.8-2.2,4.4-2.9
				c1.6-0.6,3.4-0.9,5.1-0.9c1.7,0,3.5,0.4,5.1,1.1c1.6,0.7,3.1,1.6,4.5,2.6c1.4,0.9,2.8,2,4,3.1c1.2,1.2,2.2,2.5,3.2,3.8
				c1.8,2.7,3.1,5.7,3.7,8.8L140.7,322z"/>
		</g>
		<path class="st7" d="M99.3,331.3c-9.1-2.3-19.4-1.4-27.1,4c-2.6,1.8-4.9,4.1-6.2,7c-0.8,1.7-1.1,3.8,0.1,5.1
			c1,1.1,2.6,1.3,4.1,1.2c6.7-0.3,13-4.6,19.5-3.5c3.3,0.6,6.2,2.4,9.2,4.1c3.1,1.8,6.3,3.4,9.6,4.7c2.6,1.1,5.3,2,8,2.1
			c2.8,0,5.7-1,7.4-3.2c4.2-5.7-3.2-10.4-7.2-13.2C111.5,336,105.6,332.9,99.3,331.3z"/>
		<g>
			<path class="st1" d="M78.9,358.1c1.8,2,3.5,4,5.5,5.6c2,1.6,4.3,2.7,6.7,3c1.2,0.2,2.4,0.1,3.6-0.1c1.2-0.2,2.2-0.9,3.4-1.5
				c2.3-1.4,4.6-2.6,6.2-4.8c-0.5,1.3-1.3,2.4-2.3,3.4c-1,1-2,1.8-3.1,2.7c-1.1,0.8-2.3,1.6-3.8,2c-1.4,0.4-2.9,0.5-4.4,0.3
				c-1.4-0.2-2.8-0.7-4.1-1.3c-1.3-0.7-2.4-1.5-3.4-2.5C81.4,363,79.9,360.6,78.9,358.1z"/>
		</g>
		<g>
			<path class="st1" d="M101.1,316.2c-0.6,4.4-1.5,8.7-2.6,13c-1.1,4.3-2.4,8.5-3.9,12.7l-0.2,0.4l-0.4,0.2c-2,0.7-4,1.6-6,2.4
				l-3,1.2c-1,0.4-2,0.8-3.1,1.1l0.4-1.2c1.2,2,2.5,4,4,5.9c0.7,0.9,1.5,1.9,2.3,2.8c0.8,0.9,1.7,1.7,2.6,2.5
				c-2.1-1.2-4-2.8-5.7-4.6c-1.7-1.8-3.2-3.7-4.6-5.7l-0.5-0.8l1-0.4c2-0.8,3.9-1.7,5.9-2.6c2-0.9,4-1.8,6-2.5l-0.6,0.6
				c1.5-4.1,2.9-8.3,4.3-12.5C98.4,324.6,99.7,320.4,101.1,316.2z"/>
		</g>
		<path class="st9" d="M58.3,318.7c-5.1-19.1,1.2-40.7,15.4-54.5c14.2-13.8,35.6-19.5,54.9-15.3c6.2,1.3,12.3,3.7,17.5,7.3
			c9.2,6.3,15.4,16.1,19.2,26.6c4,11,5.4,23,3.6,34.6s-7,22.7-15.2,31.1c-5-8.9-6.8-19.8-5.1-29.8c-8.8,3.9-19.5,3-28.2-1.1
			c-8.7-4.1-15.5-12.2-18.1-21.5c1,4.8,2.3,11,4.8,15.2c-7.7,0.3-15.5-2.4-21.7-6.9c-6.3-4.5-11.2-10.7-14.8-17.5
			C67.2,297.6,62.7,308.1,58.3,318.7z"/>
		<g>
			<path class="st10" d="M167.3,349.8c-1.6,5.1-5,9.7-9.1,12.9c-2.8,2.2-5.9,3.9-9.1,4.4c-3.2,0.5-6.5-0.2-8.7-2.4
				c-2.1-2-3.1-5-3.5-8.2c-0.8-7.3,2.3-15.3,7.3-21.1c3.5-4,8.2-7.1,12.8-7.2C166.5,328.1,170,340.7,167.3,349.8z"/>
			<path class="st10" d="M139.9,358c2.2,0.1,4.5-0.5,6.6-1.6c0.6-0.4,1.3-0.9,1.3-1.6c0-0.4-0.1-0.8-0.3-1.1c-1-2.1-2.4-3.9-4.1-5.4
				c1.6-2.8,3.3-5.7,5.6-8.1c2.2-2.3,5.2-4.1,8.2-4.2c3.1-0.1,6.2,1.8,7,4.9c0,0,3.1,9-7.5,17.3C145.6,366.8,139.9,358,139.9,358z"
				/>
			<g>
				<path class="st1" d="M164.2,340.8c-0.9-2.3-2.9-3.7-5.1-4.1c-2.2-0.4-4.4,0.3-6.2,1.5c-1.9,1.2-3.5,2.8-4.8,4.6
					c-1.4,1.8-2.6,3.8-3.8,5.9l-0.2-1.2c1.1,1,2,2.2,2.8,3.4c0.4,0.6,0.8,1.3,1.1,1.9c0.2,0.3,0.3,0.6,0.5,1.1
					c0.1,0.4,0.1,1.1-0.1,1.5c-0.5,0.9-1.3,1.2-1.9,1.5c-0.7,0.3-1.4,0.5-2.1,0.7c-1.4,0.4-2.9,0.4-4.3,0.2c1.4-0.1,2.8-0.4,4.1-0.9
					c0.6-0.3,1.2-0.6,1.8-0.9c0.6-0.3,1.1-0.8,1.3-1.2c0.1-0.2,0.1-0.3,0-0.5c-0.1-0.2-0.3-0.5-0.4-0.8c-0.4-0.6-0.7-1.2-1.1-1.7
					c-0.8-1.1-1.7-2.1-2.7-3l-0.6-0.5l0.4-0.7c1.2-2.1,2.3-4.2,3.9-6.1c0.8-1,1.6-1.9,2.5-2.8c0.9-0.8,1.9-1.6,3-2.2
					c2.2-1.2,4.9-1.9,7.4-1.1C161.8,336.3,163.9,338.4,164.2,340.8z"/>
			</g>
		</g>
		<g>
			<path class="st9" d="M156.5,328.1c-3.1,1.9-6.1,3.7-8.6,5.7c-2.5,2-4.6,4.3-6,6.9c-0.7,1.3-1.2,2.7-1.5,4.1
				c-0.1,0.7-0.2,1.4-0.2,2.1l0,1.1l0.2,1.1c0.5,2.9,2.1,6,4,9c1.8,3.1,3.9,6.2,5.4,9.8c0.8,1.8,1.2,3.8,1.6,5.7
				c0.2,1.9,0.3,3.9,0.1,5.8c-0.9,7.6-5.3,14.7-11.7,18.2c6-4.2,9.2-11.4,9.2-18.3c0-1.7-0.2-3.4-0.6-5.1c-0.5-1.6-1-3.2-1.9-4.7
				c-1.7-3-3.9-5.7-6.2-8.6c-2.2-2.9-4.6-6.2-5.9-10.3c-0.6-2-0.9-4.3-0.8-6.5c0.1-2.2,0.7-4.4,1.4-6.4c1.5-4,4.2-7.5,7-10.4
				c2.9-2.9,5.9-5.2,8.8-7.5L156.5,328.1z"/>
		</g>
		<g>
			<path class="st1" d="M80.8,267.1c0.3,6.1,1.8,12.1,4.4,17.6c2.6,5.5,6.2,10.5,10.6,14.6l-0.6,0.4c-1.9-5.2-3.2-10.7-3.7-16.2
				c-0.5-5.5-0.4-11.1,0.5-16.6l0.4-2.5l0.5,2.5c1.7,7.7,5.8,14.6,11,20.4c5.3,5.8,11.7,10.6,18.5,14.5c6.8,3.9,14.2,7.1,22,8.2
				c7.7,1.2,16,0.3,22.9-3.5c-6.9,4-15.2,5.1-23,4c-7.9-1.1-15.4-4.2-22.3-8c-6.9-3.9-13.4-8.7-18.8-14.6c-2.7-2.9-5.1-6.2-7-9.7
				c-1.9-3.5-3.4-7.3-4.2-11.2l0.9,0c-0.9,5.4-1.1,10.9-0.6,16.4c0.5,5.5,1.7,10.9,3.5,16.1l0.5,1.4l-1.1-1
				c-4.5-4.2-8.1-9.3-10.5-14.9C82.3,279.3,80.9,273.2,80.8,267.1z"/>
		</g>
		<g>
			<path class="st1" d="M101.7,253.8c2.3,6.4,5.5,12.5,9.5,17.9c4.1,5.4,8.9,10.2,14.5,14.1c5.5,3.9,11.7,6.9,18.2,8.9
				c3.2,1,6.6,1.7,9.9,2.2c3.4,0.5,6.8,0.7,10.2,0.7c-3.4,0.2-6.8,0.1-10.2-0.2c-3.4-0.4-6.8-1-10.1-2c-6.6-1.9-12.9-4.9-18.5-8.8
				c-5.6-4-10.6-8.9-14.5-14.5c-2-2.8-3.8-5.7-5.3-8.8C103.9,260.3,102.6,257.1,101.7,253.8z"/>
		</g>
		<g>
			<path class="st1" d="M116.1,253.6c2.6,3.6,5.5,6.9,8.7,9.9c3.2,3,6.7,5.7,10.5,7.9c3.7,2.3,7.7,4.2,11.8,5.6l3.1,1l3.2,0.9
				l3.2,0.7c1.1,0.2,2.2,0.4,3.3,0.5c-1.1-0.1-2.2-0.2-3.3-0.3l-3.3-0.5l-3.2-0.7l-3.2-0.9c-4.2-1.3-8.3-3.2-12.1-5.5
				c-3.8-2.3-7.3-5.1-10.5-8.2C121.1,260.9,118.3,257.4,116.1,253.6z"/>
		</g>
		<g>
			<path class="st1" d="M128.5,396.3c0.9,1.6,1.8,3.2,2.9,4.7c1.1,1.5,2.2,2.9,3.4,4.3c2.5,2.7,5.3,5.1,8.3,7c1.5,1,3.1,1.8,4.8,2.6
				c1.6,0.8,3.4,1.4,5.1,2c3.5,1.1,7,1.9,10.6,2.8c3.6,0.9,7.1,1.9,10.6,3.3c3.4,1.4,6.7,3.3,9.4,6c5.3,5.3,8,12.8,7.8,20.1
				c-0.1-3.7-0.8-7.3-2.2-10.7c-1.4-3.4-3.4-6.5-6.1-8.9c-2.7-2.4-5.8-4.3-9.2-5.7c-3.4-1.3-6.9-2.3-10.5-3.1
				c-3.6-0.9-7.1-1.7-10.7-2.9c-3.5-1.2-6.9-2.7-10-4.8c-3.1-2.1-5.9-4.5-8.3-7.3C132.1,402.8,130,399.7,128.5,396.3z"/>
		</g>
		<g>
			<path class="st10" d="M127.4,408.1c-1.6-4.4-2.9-9.5-3.9-14.2c-11.1,10.1-26.4,15.3-41.4,14.3c-0.1,1-0.3,2-0.5,3
				C96.6,415.7,113.2,414.6,127.4,408.1z"/>
			<path class="st11" d="M176.3,446.1c-5.9-5.9-35.3-20.3-43.2-27.6c-2.2-2-4.1-5.8-5.7-10.4c-14.2,6.4-30.8,7.6-45.8,3.1
				c-0.5,2.6-1,5-1.7,6.9c-3.2,9.4-28.8,23.2-39.1,30C30.5,454.9,27,472.6,27,472.6h162.5C189.5,472.6,182.2,452,176.3,446.1z"/>
		</g>
	</g>
</g>
<g>
	<path class="st0" d="M378.5,242.5h-73.8c-11.9,0-22.9,6.3-28.8,16.6L239,323.1c-5.9,10.3-5.9,23,0,33.3l36.9,63.9
		c5.9,10.3,16.9,16.6,28.8,16.6h73.8c11.9,0,22.9-6.3,28.8-16.6l36.9-63.9c5.9-10.3,5.9-23,0-33.3l-36.9-63.9
		C401.4,248.9,390.4,242.5,378.5,242.5z"/>
	<g>
		<path class="st1" d="M298.8,321.6c-5.4,1.3-11.4-1-14.6-5.4s-3.6-10.9-0.7-15.6c-3.9-4.7-5.1-10.8-3.5-16.7
			c1.6-5.9,5.8-11,11.1-13.9c-0.6-5.1,0.5-10.2,3.8-14.1c3.3-4,8.2-6.5,13.4-6.8c1.3-0.1,2.7,0,3.9,0.5c3.3-4.4,8.3-8.3,13.7-9
			c5.4-0.7,11.3,1.3,14.7,5.6c3.3-3.8,8.6-6.3,13.6-6.1c5,0.2,9.9,2.6,13,6.6c4.4-2.9,9.1-3,13.9-0.9c4.8,2,8.5,6.6,9.5,11.8
			c4.7-2.2,11.4-1,15,2.8c3.6,3.8,4.8,9.5,3.5,14.6c2-0.3,4.2,1.3,5.7,2.7c3.5,3.4,6.2,7.8,7,12.6c0.7,4.8-0.8,10.1-4.5,13.3
			c4,6,4.3,14.8,0.4,20.9c-1.2,1.8-2.8,3.5-4.8,4c0.9,4.9,0,9.7-3.2,13.4c-3.2,3.7-8,6-12.9,6.5"/>
		<path class="st1" d="M361.3,394c-1.8-8-2.7-14.9-2.7-15.5l-37,10.9c0,0-0.3,9.8-1.6,18.9C334.9,409.3,350.2,404.1,361.3,394z"/>
		<path class="st10" d="M307.4,281c-6.3,10.1-9.3,21.9-11,33.6c-2,13.5-2.4,27.1-1.3,40.7c1,12.3,3.8,25.6,13,33.8
			c7.4,6.7,17.8,9,27.7,9.4c4.6,0.2,9.3,0,13.6-1.4c5.2-1.7,9.6-5,13.7-8.6c18.9-16.5,31.7-39.8,35.6-64.6
			c1.6-10.4,1.7-21.3-1.7-31.2c-4.2-12.2-13.6-22.4-25-28.4c-9.8-5.1-26.8-10.3-37.4-5.1C323.5,264.5,314,270.4,307.4,281z"/>
		<g>
			<ellipse class="st4" cx="358.1" cy="327.1" rx="12" ry="13.1"/>
			<ellipse class="st5" cx="360.7" cy="327.1" rx="7.7" ry="10.2"/>
			<g>
				<path class="st1" d="M346.1,327.1c-0.4-3.3,0.5-6.9,2.7-9.6c1.1-1.4,2.5-2.5,4.1-3.3c1.6-0.8,3.4-1.2,5.2-1.2
					c1.8,0,3.6,0.4,5.2,1.2c1.6,0.8,3,1.9,4.1,3.3c2.2,2.7,3.2,6.3,2.7,9.6c-0.4-3.3-1.8-6.3-3.9-8.6c-2.1-2.2-5.1-3.6-8.1-3.6
					c-3,0-5.9,1.3-8.1,3.6C347.9,320.7,346.5,323.8,346.1,327.1z"/>
			</g>
			<circle class="st4" cx="353.9" cy="327" r="2.5"/>
		</g>
		<g>
			<path class="st1" d="M299.4,309.4c1.6-2.5,3.7-4.7,6.2-6.5c1.2-0.9,2.6-1.7,4-2.4c1.4-0.7,2.9-1.2,4.4-1.7
				c1.5-0.4,3.1-0.9,4.7-1.2c1.6-0.3,3.3-0.2,4.8,0.2c1.6,0.4,3.1,1.1,4.5,2c1.4,0.9,2.6,2.1,3.5,3.6l-0.3,0.6
				c-1.7,0.3-3.2,0.4-4.6,0.5c-1.4,0.1-2.7,0.2-4,0.2c-1.3,0-2.5,0-3.8-0.2c-1.3-0.2-2.6-0.3-3.9-0.3c-1.3,0.1-2.6,0.3-3.9,0.6
				c-1.3,0.3-2.6,0.6-3.9,1.1c-2.6,0.9-5,2.3-7.4,4L299.4,309.4z"/>
		</g>
		<g>
			<path class="st1" d="M378.5,322c-1.6-2.6-3.5-4.9-5.6-6.8c-1.1-0.9-2.2-1.8-3.4-2.5c-1.2-0.7-2.4-1.3-3.7-1.8
				c-1.3-0.5-2.6-0.7-3.9-0.9c-1.3-0.2-2.6-0.4-3.9-0.8l-4-1.1c-1.4-0.4-2.9-0.8-4.6-1.4l-0.2-0.7c1.2-1.4,2.8-2.2,4.4-2.9
				c1.6-0.6,3.4-0.9,5.1-0.9c1.7,0,3.5,0.4,5.1,1.1c1.6,0.7,3.1,1.6,4.5,2.6c1.4,0.9,2.8,2,4,3.1c1.2,1.2,2.2,2.5,3.2,3.8
				c1.8,2.7,3.1,5.7,3.7,8.8L378.5,322z"/>
		</g>
		<g>
			<path class="st1" d="M338.3,366.5c1.6-1.8,2.5-3.4,2.2-3.6c-0.8-0.5-11,2.8-14.8,2.1c-4-0.8-9.1-6.4-9.8-5.2
				c-0.5,0.9,1.6,7.4,5.6,11C326.3,367.4,332.5,365.8,338.3,366.5z"/>
			<path class="st6" d="M321.5,370.8c1.4,1.3,3,2.2,4.9,2.4c4.5,0.5,9.2-3.5,11.9-6.7C332.5,365.8,326.3,367.4,321.5,370.8z"/>
		</g>
		<path class="st7" d="M337.1,331.3c-9.1-2.3-19.4-1.4-27.1,4c-2.6,1.8-4.9,4.1-6.2,7c-0.8,1.7-1.1,3.8,0.1,5.1
			c1,1.1,2.6,1.3,4.1,1.2c6.7-0.3,13-4.6,19.5-3.5c3.3,0.6,6.2,2.4,9.2,4.1c3.1,1.8,6.3,3.4,9.6,4.7c2.6,1.1,5.3,2,8,2.1
			s5.7-1,7.4-3.2c4.2-5.7-3.2-10.4-7.2-13.2C349.3,336,343.4,332.9,337.1,331.3z"/>
		<g>
			<path class="st1" d="M336.1,313.7c-1.7,3.9-3.5,7.8-5.1,11.7c-1.6,3.9-3.2,7.9-4.5,11.9c-0.7,2-1.4,4-1.9,6c-0.5,2-0.7,4-0.4,6
				c0.4,1.9,1.4,3.8,3.1,4.8c1.7,1.1,3.9,1.4,6,1.7c-2.1,0.2-4.4,0.2-6.5-0.8c-1-0.5-2-1.2-2.7-2.2c-0.7-0.9-1.2-2-1.5-3.1
				c-0.6-2.2-0.4-4.6,0-6.7c0.5-2.2,1.2-4.2,1.8-6.2c1.4-4.1,3.1-8.1,5-11.9C331.4,320.9,333.6,317.2,336.1,313.7z"/>
		</g>
		<path class="st1" d="M292.3,300.1c4.3,1.8,9.3,2,13.7,0.4c4.4-1.6,8.1-4.9,10.2-9.1c4.2,2.3,9.1,3,13.6,1.4
			c4.5-1.6,8.2-5.2,10-9.7c3.5,4.4,7.2,7.8,12.4,10c5.2,2.2,11.4,2.5,16.4-0.1c-2.3,5.4-2,11.5,0.7,16.7c2.7,5.2,7.8,9.2,13.5,10.5
			c-2.3,5.7-2.8,11.1-0.9,16.9c1.9,5.8,6,10.9,11.2,14c10.6-19.5,13.1-44.2,5.6-65c-1.6-4.6-3.7-9.1-6.8-12.9
			c-3.6-4.5-8.4-8-13.3-11c-5.3-3.3-11-6.1-17-7.8c-14.2-3.8-29.7-0.4-42.5,6.9c-3.7,2.1-7.3,4.6-10.3,7.7
			C300.4,277.5,298.2,290.1,292.3,300.1z"/>
		<g>
			<path class="st10" d="M405.1,349.8c-1.6,5.1-5,9.7-9.1,12.9c-2.8,2.2-5.9,3.9-9.1,4.4c-3.2,0.5-6.5-0.2-8.7-2.4
				c-2.1-2-3.1-5-3.5-8.2c-0.8-7.3,2.3-15.3,7.3-21.1c3.5-4,8.2-7.1,12.8-7.2C404.3,328.1,407.9,340.7,405.1,349.8z"/>
			<path class="st10" d="M377.8,358c2.2,0.1,4.5-0.5,6.6-1.6c0.6-0.4,1.3-0.9,1.3-1.6c0-0.4-0.1-0.8-0.3-1.1c-1-2.1-2.4-3.9-4.1-5.4
				c1.6-2.8,3.3-5.7,5.6-8.1c2.2-2.3,5.2-4.1,8.2-4.2c3.1-0.1,6.2,1.8,7,4.9c0,0,3.1,9-7.5,17.3C383.4,366.8,377.8,358,377.8,358z"
				/>
			<g>
				<path class="st1" d="M402,340.8c-0.9-2.3-2.9-3.7-5.1-4.1c-2.2-0.4-4.4,0.3-6.2,1.5c-1.9,1.2-3.5,2.8-4.8,4.6
					c-1.4,1.8-2.6,3.8-3.8,5.9l-0.2-1.2c1.1,1,2,2.2,2.8,3.4c0.4,0.6,0.8,1.3,1.1,1.9c0.2,0.3,0.3,0.6,0.5,1.1
					c0.1,0.4,0.1,1.1-0.1,1.5c-0.5,0.9-1.3,1.2-1.9,1.5c-0.7,0.3-1.4,0.5-2.1,0.7c-1.4,0.4-2.9,0.4-4.3,0.2c1.4-0.1,2.8-0.4,4.1-0.9
					c0.6-0.3,1.2-0.6,1.8-0.9c0.6-0.3,1.1-0.8,1.3-1.2c0.1-0.2,0.1-0.3,0-0.5c-0.1-0.2-0.3-0.5-0.4-0.8c-0.4-0.6-0.7-1.2-1.1-1.7
					c-0.8-1.1-1.7-2.1-2.7-3l-0.6-0.5l0.4-0.7c1.2-2.1,2.3-4.2,3.9-6.1c0.8-1,1.6-1.9,2.5-2.8c0.9-0.8,1.9-1.6,3-2.2
					c2.2-1.2,4.9-1.9,7.4-1.1C399.7,336.3,401.7,338.4,402,340.8z"/>
			</g>
		</g>
		<g>
			<path class="st1" d="M306,323.6c3.3-1.1,6.8-1.9,10.3-2.4c1.7-0.3,3.5-0.4,5.3-0.5c1.8-0.1,3.5-0.1,5.3-0.1l-0.8,1.6
				c-2.3-2.8-5.2-5.1-8.4-6.9c-1.6-0.9-3.3-1.7-5.1-2.3c-1.7-0.7-3.6-1.2-5.4-1.6c1.9,0,3.8,0.2,5.7,0.6c1.9,0.4,3.7,1,5.5,1.8
				c1.8,0.8,3.5,1.8,5,3c1.5,1.2,3,2.6,4.2,4.1l1.3,1.7l-2.1-0.1c-1.7-0.1-3.5,0-5.2,0c-1.7,0-3.5,0.1-5.2,0.2
				C312.9,322.9,309.5,323.2,306,323.6z"/>
		</g>
		<g>
			<g>
				<path class="st5" d="M293.2,292.8c-0.7-1.6-0.9-3.4-0.6-5.1c0.3-1.7,1-3.4,2.1-4.9c1.1-1.4,2.6-2.6,4.3-3.2
					c1.7-0.6,3.8-0.7,5.4,0.4l-0.7,0.2c0.6-1.5,1.5-2.8,2.7-3.8c1.2-1,2.5-1.8,4-2.3c2.9-1,6.3-0.4,8.7,1.4
					c-2.6-1.4-5.7-1.7-8.4-0.7c-1.3,0.5-2.6,1.3-3.6,2.3c-1,1-1.9,2.1-2.4,3.4l-0.2,0.6l-0.5-0.3c-1.3-0.8-3-0.8-4.6-0.3
					c-1.5,0.5-2.9,1.5-4,2.8c-1.1,1.3-1.9,2.8-2.2,4.4C292.6,289.4,292.7,291.1,293.2,292.8z"/>
			</g>
			<g>
				<path class="st5" d="M307.8,257.5c1.4-0.9,3.1-1.4,4.8-1.6c1.7-0.1,3.5,0.1,5.1,0.6c3.3,1.2,6,3.8,7.3,7.1l-0.8-0.2
					c1.2-0.9,2.7-1.4,4.1-1.6c1.4-0.2,2.9-0.2,4.3,0.1c2.9,0.5,5.5,2.3,6.9,4.7c-1.7-2.2-4.3-3.7-7-4c-1.4-0.2-2.7-0.1-4.1,0.1
					c-1.3,0.2-2.6,0.7-3.7,1.5l-0.5,0.4l-0.2-0.6c-1.2-3-3.7-5.5-6.7-6.7c-1.5-0.6-3.2-0.9-4.8-0.9
					C311,256.5,309.3,256.8,307.8,257.5z"/>
			</g>
			<g>
				<path class="st5" d="M347.6,255.2c1.4-1.3,3.2-2.2,5.1-2.6c1.9-0.4,4-0.3,5.9,0.3c1.9,0.6,3.6,1.7,5,3.1c1.4,1.4,2.5,3.2,3,5.1
					l-0.8-0.2c1.1-0.9,2.4-1.4,3.7-1.7c1.3-0.3,2.7-0.2,3.9,0c1.3,0.2,2.6,0.7,3.6,1.5c1.1,0.8,2,1.7,2.6,2.8
					c-0.8-1-1.7-1.9-2.8-2.5c-1.1-0.6-2.3-1-3.5-1.2c-2.4-0.3-5.1,0.2-6.9,1.7l-0.6,0.5l-0.2-0.7c-0.5-1.7-1.5-3.4-2.8-4.7
					c-1.3-1.3-2.9-2.3-4.6-3c-1.7-0.6-3.6-0.9-5.5-0.6C351,253.4,349.2,254.1,347.6,255.2z"/>
			</g>
			<g>
				<path class="st5" d="M351.4,275.9c0.2,2.3,1.8,4.3,3.6,5.5c1.9,1.3,4.1,1.9,6.3,2c2.2,0.1,4.5-0.4,6.4-1.5
					c1.9-1.2,3.4-2.9,4.1-5l0.3-0.8l0.5,0.7c2.2,2.7,5.9,4.2,9.4,3.9c3.5-0.3,6.9-2.3,8.9-5.4c-1.7,3.3-5.1,5.7-8.8,6.1
					c-3.8,0.4-7.7-1.1-10.2-4l0.8-0.2c-0.7,2.3-2.4,4.3-4.5,5.5c-2.1,1.2-4.5,1.7-6.9,1.6c-2.4-0.2-4.7-1-6.6-2.4
					C352.8,280.4,351.3,278.2,351.4,275.9z"/>
			</g>
			<g>
				<path class="st5" d="M397.5,279.4c1.5,0.2,2.9,0.7,4.2,1.5c1.3,0.8,2.4,1.9,3.2,3.2c1.7,2.6,2.1,5.9,1.2,8.9l-0.3-0.6
					c1.3,0.7,2.5,1.7,3.5,2.7c1,1.1,1.9,2.2,2.6,3.5c0.7,1.3,1.2,2.7,1.2,4.2c0,1.5-0.3,3-1.2,4.1c0.7-1.3,0.9-2.7,0.7-4.1
					c-0.1-1.4-0.6-2.7-1.4-3.9c-0.8-1.2-1.6-2.3-2.6-3.2c-1-1-2.1-1.9-3.3-2.5l-0.4-0.2l0.1-0.4c0.8-2.7,0.5-5.7-0.9-8.2
					c-0.7-1.2-1.7-2.3-2.8-3.2C400.3,280.4,399,279.8,397.5,279.4z"/>
			</g>
			<g>
				<path class="st5" d="M380.6,296.3c1.8,0.3,3.6,0.7,5.2,1.4c1.7,0.7,3.3,1.7,4.5,3.2c1.2,1.4,2,3.3,2.2,5.1
					c0.2,1.9,0.1,3.7,0,5.5l-0.5-0.5c1.6-0.2,3.1,0.4,4.3,1.3c1.2,0.9,2.2,2,3,3.2c1.7,2.5,1.8,5.8,0.4,8.3c1.1-2.6,0.7-5.7-1-7.9
					c-0.8-1.1-1.8-2.1-2.9-2.9c-1.1-0.8-2.4-1.2-3.7-1.1l-0.6,0.1l0-0.6c0.1-1.8,0.2-3.6,0-5.3c-0.2-1.7-0.8-3.4-1.8-4.7
					c-1-1.4-2.5-2.4-4.1-3.2C384.1,297.3,382.3,296.8,380.6,296.3z"/>
			</g>
		</g>
		<g>
			<path class="st10" d="M330.2,440.1c5.4,1.1,11-0.1,16.1-2.2c7.6-3.1,14.2-8.4,19-15c0.7-3.2,1.3-6.5,2-9.7
				c-2.6-5.2-4.6-12.6-6-19.2c-11.1,10.1-26.4,15.3-41.4,14.3c-0.5,3.7-1.3,7.2-2.2,9.9c-0.5,1.6-1.8,3.3-3.4,5.1
				c0.1,1.8,0.2,3.6,0.2,5.4C318.3,434.3,323.7,438.8,330.2,440.1z"/>
			<path class="st8" d="M414.2,446.1c-5.9-5.9-35.3-20.3-43.2-27.6c-0.6-0.5-1.2-1.2-1.7-2c-0.7-1-1.3-2.1-1.9-3.3
				c-0.7,3.2-1.3,6.5-2,9.7c-3.4,16.6-6.8,33.1-10.2,49.7h72.2C427.4,472.6,420,452,414.2,446.1z"/>
			<path class="st3" d="M346.4,437.9c-5.1,2.1-10.7,3.3-16.1,2.2c-6.5-1.3-11.9-5.8-15.7-11.5c0.6,14.6,0.9,29.3,1,43.9h39.6
				c3.4-16.6,6.8-33.1,10.2-49.7C360.5,429.5,353.9,434.8,346.4,437.9z"/>
			<path class="st8" d="M314.6,428.7c-0.1-1.8-0.1-3.6-0.2-5.4c-0.6,0.6-1.2,1.2-1.8,1.8c-8.8,8.4-25.9,17.8-33.9,23
				c-10.3,6.8-13.8,24.4-13.8,24.4h50.7C315.5,457.9,315.1,443.3,314.6,428.7z"/>
		</g>
	</g>
</g>
<g>
	<path class="st0" d="M615,0h-73.8c-11.9,0-22.9,6.3-28.8,16.6l-36.9,63.9c-5.9,10.3-5.9,23,0,33.3l36.9,63.9
		c5.9,10.3,16.9,16.6,28.8,16.6H615c11.9,0,22.9-6.3,28.8-16.6l36.9-63.9c5.9-10.3,5.9-23,0-33.3l-36.9-63.9
		C637.9,6.3,626.9,0,615,0z"/>
	<path class="st1" d="M594.5,153.9c-1.8-8-2.7-14.9-2.7-15.5l-37,10.9c0,0-0.3,9.8-1.6,18.9C568,169.3,583.4,164,594.5,153.9z"/>
	<path class="st2" d="M540.5,41c-6.3,10.1-9.3,21.9-11,33.6c-2,13.5-2.4,27.1-1.3,40.7c1,12.3,3.8,25.6,13,33.8
		c7.4,6.7,17.8,9,27.7,9.4c4.6,0.2,9.3,0,13.6-1.4c5.2-1.7,9.6-5,13.7-8.6c18.9-16.5,31.7-39.8,35.6-64.6
		c1.6-10.4,1.7-21.3-1.7-31.2c-4.2-12.2-13.6-22.4-25-28.4c-9.8-5.1-26.8-10.3-37.4-5.1C556.7,24.5,547.1,30.3,540.5,41z"/>
	<g>
		<path class="st2" d="M638.3,109.7c-1.6,5.1-5,9.7-9.1,12.9c-2.8,2.2-5.9,3.9-9.1,4.4c-3.2,0.5-6.5-0.2-8.7-2.4
			c-2.1-2-3.1-5-3.5-8.2c-0.8-7.3,2.3-15.3,7.3-21.1c3.5-4,8.2-7.1,12.8-7.2C637.5,88.1,641.1,100.6,638.3,109.7z"/>
		<path class="st2" d="M610.9,117.9c2.2,0.1,4.5-0.5,6.6-1.6c0.6-0.4,1.3-0.9,1.3-1.6c0-0.4-0.1-0.8-0.3-1.1c-1-2.1-2.4-3.9-4.1-5.4
			c1.6-2.8,3.3-5.7,5.6-8.1c2.2-2.3,5.2-4.1,8.2-4.2c3.1-0.1,6.2,1.8,7,4.9c0,0,3.1,9-7.5,17.3C616.6,126.8,610.9,117.9,610.9,117.9
			z"/>
		<g>
			<path class="st1" d="M635.2,100.7c-0.9-2.3-2.9-3.7-5.1-4.1c-2.2-0.4-4.4,0.3-6.2,1.5c-1.9,1.2-3.5,2.8-4.8,4.6
				c-1.4,1.8-2.6,3.8-3.8,5.9l-0.2-1.2c1.1,1,2,2.2,2.8,3.4c0.4,0.6,0.8,1.3,1.1,1.9c0.2,0.3,0.3,0.6,0.5,1.1
				c0.1,0.4,0.1,1.1-0.1,1.5c-0.5,0.9-1.3,1.2-1.9,1.5c-0.7,0.3-1.4,0.5-2.1,0.7c-1.4,0.4-2.9,0.4-4.3,0.2c1.4-0.1,2.8-0.4,4.1-0.9
				c0.6-0.3,1.2-0.6,1.8-0.9c0.6-0.3,1.1-0.8,1.3-1.2c0.1-0.2,0.1-0.3,0-0.5c-0.1-0.2-0.3-0.5-0.4-0.8c-0.3-0.6-0.7-1.2-1.1-1.7
				c-0.8-1.1-1.7-2.1-2.7-3l-0.6-0.5l0.4-0.7c1.2-2.1,2.3-4.2,3.9-6.1c0.8-1,1.6-1.9,2.5-2.8c0.9-0.8,1.9-1.6,3-2.2
				c2.2-1.2,4.9-1.9,7.4-1.1C632.8,96.2,634.9,98.3,635.2,100.7z"/>
		</g>
	</g>
	<g>
		<ellipse class="st4" cx="591.3" cy="87" rx="12" ry="13.1"/>
		<ellipse class="st1" cx="593.9" cy="87" rx="7.7" ry="10.2"/>
		<g>
			<path class="st1" d="M579.3,87c-0.4-3.3,0.5-6.9,2.7-9.6c1.1-1.4,2.5-2.5,4.1-3.3c1.6-0.8,3.4-1.2,5.2-1.2c1.8,0,3.6,0.4,5.2,1.2
				c1.6,0.8,3,1.9,4.1,3.3c2.2,2.7,3.2,6.3,2.7,9.6c-0.4-3.3-1.8-6.3-3.9-8.6c-2.1-2.2-5.1-3.6-8.1-3.6c-3,0-5.9,1.3-8.1,3.6
				C581,80.7,579.7,83.7,579.3,87z"/>
		</g>
		<circle class="st4" cx="587" cy="87" r="2.5"/>
	</g>
	<g>
		<path class="st1" d="M532.6,69.4c1.6-2.5,3.7-4.7,6.2-6.5c1.2-0.9,2.6-1.7,4-2.4c1.4-0.7,2.9-1.2,4.4-1.7c1.5-0.4,3.1-0.9,4.7-1.2
			c1.6-0.3,3.3-0.2,4.8,0.2c1.6,0.4,3.1,1.1,4.5,2c1.4,0.9,2.6,2.1,3.5,3.6l-0.3,0.6c-1.7,0.3-3.2,0.4-4.6,0.5
			c-1.4,0.1-2.7,0.2-4,0.2c-1.3,0-2.5,0-3.8-0.2c-1.3-0.2-2.6-0.3-3.9-0.3c-1.3,0.1-2.6,0.3-3.9,0.6c-1.3,0.3-2.6,0.6-3.9,1.1
			c-2.6,0.9-5,2.3-7.4,4L532.6,69.4z"/>
	</g>
	<g>
		<path class="st1" d="M611.7,82c-1.6-2.6-3.5-4.9-5.6-6.8c-1.1-0.9-2.2-1.8-3.4-2.5c-1.2-0.7-2.4-1.3-3.7-1.8
			c-1.3-0.5-2.6-0.7-3.9-0.9c-1.3-0.2-2.6-0.4-3.9-0.8l-4-1.1c-1.4-0.4-2.9-0.8-4.6-1.4l-0.2-0.7c1.2-1.4,2.8-2.2,4.4-2.9
			c1.6-0.6,3.4-0.9,5.1-0.9c1.7,0,3.5,0.4,5.1,1.1c1.6,0.7,3.1,1.6,4.5,2.6c1.4,0.9,2.8,2,4,3.1c1.2,1.2,2.2,2.5,3.2,3.8
			c1.8,2.7,3.1,5.7,3.7,8.8L611.7,82z"/>
	</g>
	<g>
		<path class="st1" d="M571.5,126.5c1.6-1.8,2.5-3.4,2.2-3.6c-0.8-0.5-11,2.8-14.8,2.1c-4-0.8-9.1-6.4-9.8-5.2
			c-0.5,0.9,1.6,7.4,5.6,11C559.5,127.3,565.6,125.8,571.5,126.5z"/>
		<path class="st6" d="M554.7,130.8c1.4,1.3,3,2.2,4.9,2.4c4.5,0.5,9.2-3.5,11.9-6.7C565.6,125.8,559.5,127.3,554.7,130.8z"/>
	</g>
	<path class="st7" d="M570.3,91.3c-9.1-2.3-19.4-1.4-27.1,4c-2.6,1.8-4.9,4.1-6.2,7c-0.8,1.7-1.1,3.8,0.1,5.1c1,1.1,2.6,1.3,4.1,1.2
		c6.7-0.3,13-4.6,19.5-3.5c3.3,0.6,6.2,2.4,9.2,4.1c3.1,1.8,6.3,3.4,9.6,4.7c2.6,1.1,5.3,2,8,2.1c2.8,0,5.7-1,7.4-3.2
		c4.2-5.7-3.2-10.4-7.2-13.2C582.5,96,576.6,92.9,570.3,91.3z"/>
	<g>
		<path class="st2" d="M564.9,199.4c8.8,3.3,19.1,0.4,26.6-5.3c5.4-4.1,9.6-9.4,13.4-15c-0.3-0.2-0.5-0.5-0.8-0.7
			c-4.3-4-7.6-15-9.7-24.5c-11.1,10.1-26.4,15.3-41.4,14.3c-0.5,3.7-1.3,7.2-2.2,9.9c-0.5,1.3-1.4,2.7-2.6,4.2
			C552,189.8,557.3,196.6,564.9,199.4z"/>
		<path class="st9" d="M647.3,206.1c-5.7-5.7-33.5-19.4-42.4-26.9c-3.7,5.7-8,11-13.4,15c-7.5,5.7-17.8,8.6-26.6,5.3
			c-7.6-2.9-12.9-9.7-16.6-17.1c-7.5,9-27.7,20-36.5,25.8c-10.3,6.8-13.8,24.4-13.8,24.4h162.5C660.5,232.5,653.2,211.9,647.3,206.1
			z"/>
	</g>
	<g>
		<ellipse class="st4" cx="549.8" cy="81.1" rx="12" ry="13.1"/>
		<ellipse class="st1" cx="552.5" cy="81.1" rx="7.7" ry="10.2"/>
		<g>
			<path class="st1" d="M537.8,81.1c-0.4-3.3,0.5-6.9,2.7-9.6c1.1-1.4,2.5-2.5,4.1-3.3c1.6-0.8,3.4-1.2,5.2-1.2
				c1.8,0,3.6,0.4,5.2,1.2c1.6,0.8,3,1.9,4.1,3.3c2.2,2.7,3.2,6.3,2.7,9.6c-0.4-3.3-1.8-6.3-3.9-8.6c-2.1-2.2-5.1-3.6-8.1-3.6
				c-3,0-5.9,1.3-8.1,3.6C539.6,74.8,538.2,77.9,537.8,81.1z"/>
		</g>
		<circle class="st4" cx="545.6" cy="81.1" r="2.5"/>
	</g>
	<path class="st1" d="M617.9,79c-3.6-3.7-6-8.4-7.6-13.4c-1.6-4.9-1.3-10.4-2-15.5c-6.6,4.2-14.4,6.5-22.2,6.8
		c-1.6,0.1-3.4,0-4.7-0.9c-2-1.4-2.5-4.3-1.7-6.6s2.5-4.2,4.2-6c-6.6,4.6-14.1,8.1-21.9,10.2c-1.1,0.3-2.6,0.5-3.2-0.5
		c-0.3-0.5-0.3-1.2-0.2-1.8c0.5-3.5,2.2-6.9,4.8-9.3c-8.5,6.6-19,12.2-29.4,14.8c-3.4,10.2-5.2,21-5.4,31.8
		c-7.4-2.8-11.2-11.4-10.8-19.3c0.4-7.9,4.1-15.1,8.1-22c-2.4,3.5-5.5,6.6-9.1,9c-2,1.4-4.9,2.4-6.6,0.7c-0.9-1-1-2.4-1-3.7
		c0.2-8.4,5.1-16.5,12.4-20.6c-2.5,0.5-5.4,0.9-7.2-0.8c-1.3-1.2-1.6-3.3-1.1-5c0.5-1.7,1.6-3.2,2.8-4.5c4.5-4.9,10.5-8.2,16.8-10.5
		C542.5,8.3,553,7,563.3,8c3.1,0.3,6.3,0.9,8.6,3c-2.5-1.9-1.3-6.3,1.4-7.8c2.8-1.5,6.1-1,9.2-0.2c10.1,2.5,20,7.1,26.9,14.8
		c-0.9-2.3-1.1-5-0.4-7.4c0.2-0.5,0.4-1.1,0.8-1.4c0.9-0.6,2.1-0.1,3,0.6c7.2,5,12.4,12.8,14.2,21.3c5.1,0.1,10.7,2,15.1,4.5
		c3.1,1.7,6.1,4.3,6.5,7.8c-4.1,0.8-8.4,0.5-12.4-0.7c9.2,6.9,12.5,19.9,9.6,31.1c-2.9,11.1-11.1,20.3-20.8,26.5
		c-1.4,0.9-3.3,1.8-4.6,0.8c-0.9-0.7-1.1-2-1.3-3.1C618.3,91.7,618.6,85.1,617.9,79z"/>
	<g>
		<g>
			<path class="st5" d="M617.1,40.1c-0.6,3.4-0.7,6.9-0.2,10.4c0.4,3.4,1.5,6.8,2.9,9.9c0.4,0.8,0.8,1.5,1.2,2.3
				c0.4,0.8,0.8,1.5,1.3,2.3c0.4,0.7,1,1.4,1.6,1.8c0.3,0.2,0.7,0.3,1,0.4c0.4,0.1,0.8,0,1-0.1c0.5-0.2,0.8-1,0.9-1.8
				c0.1-0.8,0.1-1.7,0.1-2.5c-0.1-1.7-0.3-3.4-0.6-5.2l0.9-0.2c0.8,3.4,1.5,6.8,3.2,9.9c0.8,1.5,1.9,2.9,3.2,4
				c1.3,1.1,2.8,2,4.5,2.4c-1.7-0.3-3.4-1.1-4.8-2.2c-1.4-1.1-2.6-2.5-3.5-4c-1.8-3.1-2.7-6.6-3.5-10l0.9-0.2
				c0.2,1.7,0.5,3.4,0.6,5.2c0.1,0.9,0.1,1.8,0,2.7c-0.1,0.5-0.2,0.9-0.4,1.4c-0.2,0.5-0.5,0.9-1.1,1.2c-0.6,0.2-1.1,0.2-1.6,0.2
				c-0.5-0.1-1-0.3-1.4-0.6c-0.8-0.6-1.4-1.3-1.9-2.1c-0.5-0.8-0.9-1.6-1.3-2.3c-0.4-0.8-0.8-1.5-1.2-2.3c-1.5-3.2-2.4-6.7-2.7-10.2
				C616,47,616.3,43.5,617.1,40.1z"/>
		</g>
		<g>
			<path class="st5" d="M622.3,39.2c0.8,2.3,1.6,4.6,2.7,6.8c1,2.2,2.2,4.3,3.5,6.3c1.3,2,2.8,3.9,4.3,5.8l1.2,1.4l1.3,1.3l1.3,1.3
				c0.5,0.4,0.9,0.8,1.3,1.2c-0.5-0.3-1-0.7-1.5-1l-1.5-1.1l-1.4-1.2l-1.3-1.3c-1.7-1.7-3.2-3.7-4.6-5.8c-1.3-2.1-2.5-4.3-3.4-6.6
				C623.4,44,622.7,41.6,622.3,39.2z"/>
		</g>
		<g>
			<path class="st5" d="M609.8,30c-2.5,2.8-5.4,5.2-8.6,7.2c-1.6,1-3.3,1.9-5,2.7c-0.9,0.4-1.7,0.7-2.6,1.1
				c-0.9,0.3-1.9,0.5-2.9,0.6c-1,0-2.1-0.2-2.8-1.1c-0.3-0.4-0.5-1-0.6-1.5c0-0.5,0-1,0.1-1.5c0.4-1.9,1-3.7,1.8-5.4
				c1.5-3.5,3.7-6.7,6.4-9.4l0.6,0.7c-7.8,5.8-16.7,10.1-26,12.8c-9.3,2.7-19.1,3.8-28.7,3.1c9.6,0.3,19.3-1,28.5-3.9
				c9.2-2.8,17.9-7.2,25.6-12.8l0.6,0.7c-2.6,2.6-4.7,5.7-6.2,9.1c-0.7,1.7-1.3,3.5-1.8,5.2c-0.2,0.9-0.2,1.8,0.3,2.4
				c0.5,0.6,1.3,0.9,2.2,0.9c1.8,0,3.5-0.8,5.2-1.5c1.7-0.7,3.4-1.6,5-2.5C604.1,34.9,607.1,32.6,609.8,30z"/>
		</g>
		<g>
			<path class="st5" d="M584.4,20.2c-2.2,1.7-4.6,3.2-7.1,4.4c-2.5,1.2-5.1,2.2-7.9,2.9c-0.7,0.2-1.4,0.3-2.2,0.3
				c-0.7,0-1.5-0.1-2.2-0.5c-0.7-0.4-1.2-1.2-1.3-2c-0.1-0.8,0.1-1.6,0.3-2.2c0.9-2.7,2.1-5.2,3.4-7.7l0.7,0.6c-3,2.2-6.2,4.2-9.5,6
				c-3.3,1.8-6.6,3.4-10.1,4.8c-6.9,2.8-14.1,4.8-21.5,5.9c7.3-1.5,14.4-3.7,21.2-6.6c3.4-1.4,6.7-3.1,10-4.9
				c3.2-1.8,6.3-3.8,9.4-5.9l1.7-1.2l-1,1.8c-1.3,2.4-2.5,4.9-3.4,7.5c-0.2,0.6-0.4,1.3-0.3,1.9c0.1,0.6,0.4,1.1,0.9,1.4
				c1,0.6,2.5,0.5,3.8,0.3c2.7-0.6,5.3-1.5,7.8-2.6C579.7,23.1,582.1,21.8,584.4,20.2z"/>
		</g>
	</g>
	<g>
		<path class="st1" d="M572.8,75c-3.7,6.2-7.2,12.4-10.1,19c-1.5,3.3-2.8,6.6-4,9.9c-1.2,3.3-2.3,6.7-3.3,10.2l-0.4-0.8
			c3.1,1.3,5.8,3.2,8.9,4.4c-3.3-0.5-6.3-2.2-9.4-3.2l-0.5-0.2l0.1-0.6c0.7-3.6,1.6-7.1,2.8-10.5c1.2-3.4,2.5-6.8,4.1-10.1
			C564.1,86.6,568,80.4,572.8,75z"/>
	</g>
</g>
<g>
	<path class="st0" d="M615,242.5h-73.8c-11.9,0-22.9,6.3-28.8,16.6l-36.9,63.9c-5.9,10.3-5.9,23,0,33.3l36.9,63.9
		c5.9,10.3,16.9,16.6,28.8,16.6H615c11.9,0,22.9-6.3,28.8-16.6l36.9-63.9c5.9-10.3,5.9-23,0-33.3l-36.9-63.9
		C637.9,248.9,626.9,242.5,615,242.5z"/>
	<path class="st1" d="M529.5,294c0,0-5.6,17.7-9.4,29.5c-3,9.3-5.2,18.9-10.4,27.2c-5.1,8.3-14.1,15-23.8,14.3
		c3.9,6.4,9.4,11.8,15.8,15.5c-4,0.7-8.4,1-12-0.7c10.8,17.5,28.6,26.8,48.4,32.2c35.1,9.6,76.7,12.5,130.6-5.6
		c-6.5-3.2-14.5-5.7-20.7-9.5c6,2.3,12.6,2.4,18.5-0.3c-4.7-1.5-9.1-5.1-11.6-9.4c-6.3-10.8-9.2-23.3-10.6-35.8
		c-1.4-12.5-1.3-25-2.2-37.5c-0.6-8-1.8-16.6-7.4-22.4"/>
	<path class="st1" d="M594.5,394c-1.8-8-2.7-14.9-2.7-15.5l-37,10.9c0,0-0.3,9.8-1.6,18.9C568,409.3,583.4,404.1,594.5,394z"/>
	<path class="st10" d="M540.5,281c-6.3,10.1-9.3,21.9-11,33.6c-2,13.5-2.4,27.1-1.3,40.7c1,12.3,3.8,25.6,13,33.8
		c7.4,6.7,17.8,9,27.7,9.4c4.6,0.2,9.3,0,13.6-1.4c5.2-1.7,9.6-5,13.7-8.6c18.9-16.5,31.7-39.8,35.6-64.6
		c1.6-10.4,1.7-21.3-1.7-31.2c-4.2-12.2-13.6-22.4-25-28.4c-9.8-5.1-26.8-10.3-37.4-5.1C556.7,264.5,547.1,270.4,540.5,281z"/>
	<g>
		<ellipse class="st4" cx="549.8" cy="321.2" rx="12" ry="13.1"/>
		<ellipse class="st1" cx="552.5" cy="321.2" rx="7.7" ry="10.2"/>
		<g>
			<path class="st1" d="M537.8,321.2c-0.4-3.3,0.5-6.9,2.7-9.6c1.1-1.4,2.5-2.5,4.1-3.3c1.6-0.8,3.4-1.2,5.2-1.2
				c1.8,0,3.6,0.4,5.2,1.2c1.6,0.8,3,1.9,4.1,3.3c2.2,2.7,3.2,6.3,2.7,9.6c-0.4-3.3-1.8-6.3-3.9-8.6c-2.1-2.2-5.1-3.6-8.1-3.6
				c-3,0-5.9,1.3-8.1,3.6C539.6,314.9,538.2,317.9,537.8,321.2z"/>
		</g>
		<circle class="st4" cx="545.6" cy="321.2" r="2.5"/>
	</g>
	<g>
		<ellipse class="st4" cx="591.3" cy="327.1" rx="12" ry="13.1"/>
		<ellipse class="st1" cx="593.9" cy="327.1" rx="7.7" ry="10.2"/>
		<g>
			<path class="st1" d="M579.3,327.1c-0.4-3.3,0.5-6.9,2.7-9.6c1.1-1.4,2.5-2.5,4.1-3.3c1.6-0.8,3.4-1.2,5.2-1.2
				c1.8,0,3.6,0.4,5.2,1.2c1.6,0.8,3,1.9,4.1,3.3c2.2,2.7,3.2,6.3,2.7,9.6c-0.4-3.3-1.8-6.3-3.9-8.6c-2.1-2.2-5.1-3.6-8.1-3.6
				c-3,0-5.9,1.3-8.1,3.6C581,320.7,579.7,323.8,579.3,327.1z"/>
		</g>
		<circle class="st4" cx="587" cy="327" r="2.5"/>
	</g>
	<g>
		<path class="st1" d="M532.6,309.4c1.6-2.5,3.7-4.7,6.2-6.5c1.2-0.9,2.6-1.7,4-2.4c1.4-0.7,2.9-1.2,4.4-1.7
			c1.5-0.4,3.1-0.9,4.7-1.2c1.6-0.3,3.3-0.2,4.8,0.2c1.6,0.4,3.1,1.1,4.5,2c1.4,0.9,2.6,2.1,3.5,3.6l-0.3,0.6
			c-1.7,0.3-3.2,0.4-4.6,0.5c-1.4,0.1-2.7,0.2-4,0.2c-1.3,0-2.5,0-3.8-0.2c-1.3-0.2-2.6-0.3-3.9-0.3c-1.3,0.1-2.6,0.3-3.9,0.6
			c-1.3,0.3-2.6,0.6-3.9,1.1c-2.6,0.9-5,2.3-7.4,4L532.6,309.4z"/>
	</g>
	<g>
		<path class="st1" d="M611.7,322c-1.6-2.6-3.5-4.9-5.6-6.8c-1.1-0.9-2.2-1.8-3.4-2.5c-1.2-0.7-2.4-1.3-3.7-1.8
			c-1.3-0.5-2.6-0.7-3.9-0.9c-1.3-0.2-2.6-0.4-3.9-0.8l-4-1.1c-1.4-0.4-2.9-0.8-4.6-1.4l-0.2-0.7c1.2-1.4,2.8-2.2,4.4-2.9
			c1.6-0.6,3.4-0.9,5.1-0.9c1.7,0,3.5,0.4,5.1,1.1c1.6,0.7,3.1,1.6,4.5,2.6c1.4,0.9,2.8,2,4,3.1c1.2,1.2,2.2,2.5,3.2,3.8
			c1.8,2.7,3.1,5.7,3.7,8.8L611.7,322z"/>
	</g>
	<path class="st7" d="M570.3,331.3c-9.1-2.3-19.4-1.4-27.1,4c-2.6,1.8-4.9,4.1-6.2,7c-0.8,1.7-1.1,3.8,0.1,5.1
		c1,1.1,2.6,1.3,4.1,1.2c6.7-0.3,13-4.6,19.5-3.5c3.3,0.6,6.2,2.4,9.2,4.1c3.1,1.8,6.3,3.4,9.6,4.7c2.6,1.1,5.3,2,8,2.1
		s5.7-1,7.4-3.2c4.2-5.7-3.2-10.4-7.2-13.2C582.5,336,576.6,332.9,570.3,331.3z"/>
	<g>
		<path class="st1" d="M549.9,358.1c1.8,2,3.5,4,5.5,5.6c2,1.6,4.3,2.7,6.7,3c1.2,0.2,2.4,0.1,3.6-0.1c1.2-0.2,2.2-0.9,3.4-1.5
			c2.3-1.4,4.6-2.6,6.2-4.8c-0.5,1.3-1.3,2.4-2.3,3.4c-1,1-2,1.8-3.1,2.7c-1.1,0.8-2.3,1.6-3.8,2c-1.4,0.4-2.9,0.5-4.4,0.3
			c-1.4-0.2-2.8-0.7-4.1-1.3c-1.3-0.7-2.4-1.5-3.4-2.5C552.4,363,550.9,360.6,549.9,358.1z"/>
	</g>
	<path class="st1" d="M527.9,325.4c-5.1-18.1,2.7-43.7,16.9-56.7c14.2-13.1,35.6-18.5,54.9-14.5c6.2,1.3,12.3,3.5,17.5,6.9
		c9.2,5.9,15.4,15.3,19.2,25.2c4,10.4,5.4,21.8,3.6,32.7c-1.8,10.9-7,21.5-15.2,29.4c-5-8.4-6.8-18.7-5.1-28.3
		c-51.2,6.9-74.4-23.7-78-30.2C538.2,300.3,532.2,315.4,527.9,325.4z"/>
	<g>
		<path class="st10" d="M638.3,349.8c-1.6,5.1-5,9.7-9.1,12.9c-2.8,2.2-5.9,3.9-9.1,4.4c-3.2,0.5-6.5-0.2-8.7-2.4
			c-2.1-2-3.1-5-3.5-8.2c-0.8-7.3,2.3-15.3,7.3-21.1c3.5-4,8.2-7.1,12.8-7.2C637.5,328.1,641.1,340.7,638.3,349.8z"/>
		<path class="st10" d="M610.9,358c2.2,0.1,4.5-0.5,6.6-1.6c0.6-0.4,1.3-0.9,1.3-1.6c0-0.4-0.1-0.8-0.3-1.1c-1-2.1-2.4-3.9-4.1-5.4
			c1.6-2.8,3.3-5.7,5.6-8.1c2.2-2.3,5.2-4.1,8.2-4.2c3.1-0.1,6.2,1.8,7,4.9c0,0,3.1,9-7.5,17.3C616.6,366.8,610.9,358,610.9,358z"/>
		<g>
			<path class="st1" d="M635.2,340.8c-0.9-2.3-2.9-3.7-5.1-4.1c-2.2-0.4-4.4,0.3-6.2,1.5c-1.9,1.2-3.5,2.8-4.8,4.6
				c-1.4,1.8-2.6,3.8-3.8,5.9l-0.2-1.2c1.1,1,2,2.2,2.8,3.4c0.4,0.6,0.8,1.3,1.1,1.9c0.2,0.3,0.3,0.6,0.5,1.1
				c0.1,0.4,0.1,1.1-0.1,1.5c-0.5,0.9-1.3,1.2-1.9,1.5c-0.7,0.3-1.4,0.5-2.1,0.7c-1.4,0.4-2.9,0.4-4.3,0.2c1.4-0.1,2.8-0.4,4.1-0.9
				c0.6-0.3,1.2-0.6,1.8-0.9c0.6-0.3,1.1-0.8,1.3-1.2c0.1-0.2,0.1-0.3,0-0.5c-0.1-0.2-0.3-0.5-0.4-0.8c-0.3-0.6-0.7-1.2-1.1-1.7
				c-0.8-1.1-1.7-2.1-2.7-3l-0.6-0.5l0.4-0.7c1.2-2.1,2.3-4.2,3.9-6.1c0.8-1,1.6-1.9,2.5-2.8c0.9-0.8,1.9-1.6,3-2.2
				c2.2-1.2,4.9-1.9,7.4-1.1C632.8,336.3,634.9,338.4,635.2,340.8z"/>
		</g>
	</g>
	<g>
		<path class="st10" d="M598.4,408.1c-1.6-4.4-2.9-9.5-3.9-14.2c-11.1,10.1-26.4,15.3-41.4,14.3c-0.1,1-0.3,2-0.5,3
			C567.6,415.7,584.2,414.6,598.4,408.1z"/>
		<path class="st11" d="M647.3,446.1c-5.9-5.9-35.3-20.3-43.2-27.6c-2.2-2-4.1-5.8-5.7-10.4c-14.2,6.4-30.8,7.6-45.8,3.1
			c-0.5,2.6-1,5-1.7,6.9c-3.2,9.4-28.8,23.2-39.1,30c-10.3,6.8-13.8,24.4-13.8,24.4h162.5C660.5,472.6,653.2,452,647.3,446.1z"/>
	</g>
	<g>
		<path class="st1" d="M570,315.7c0.1,3.1-0.2,6.2-0.9,9.2c-0.7,3-1.7,6-2.9,8.9c-1.3,2.8-2.9,5.6-4.8,8.1c-1.9,2.5-4,4.8-6.3,6.9
			l0.1-1c0.5,0.8,1,1.6,1.5,2.3c0.5,0.8,1,1.5,1.5,2.3c1,1.5,2.3,2.8,3.9,3.7c-0.9-0.2-1.8-0.7-2.5-1.2c-0.8-0.5-1.5-1.2-2.1-1.9
			c-1.3-1.4-2.4-2.9-3.5-4.3l-0.4-0.5l0.5-0.5c2.1-2.2,4-4.5,5.8-6.9c1.7-2.5,3.3-5,4.6-7.8c1.3-2.7,2.5-5.5,3.4-8.4
			C568.8,321.8,569.5,318.8,570,315.7z"/>
	</g>
	<g>
		<g>
			<path class="st5" d="M550.6,269.3l1.1,2.9l0.5,1.4l0.7,1.4l1.3,2.8l1.5,2.6l0.8,1.3l0.9,1.3l1.7,2.5l1.9,2.4l0.9,1.2l1,1.1
				l2.1,2.2l2.2,2.1l1.1,1.1l1.2,1l2.3,1.9l2.5,1.8l1.2,0.9c0.4,0.3,0.9,0.5,1.3,0.8l2.6,1.6c0.9,0.5,1.8,1,2.7,1.4
				c7.1,3.9,15,6.2,23.1,7.3c4,0.5,8.1,0.6,12.2,0.1c4-0.5,8-1.6,11.6-3.6c-3.5,2.2-7.5,3.4-11.5,4.1c-4.1,0.6-8.2,0.6-12.3,0.1
				c-2-0.3-4.1-0.5-6.1-1c-1-0.2-2-0.4-3-0.7l-3-0.9c-1-0.3-2-0.6-2.9-1c-1-0.4-1.9-0.7-2.9-1.1c-1.9-0.9-3.8-1.6-5.6-2.6
				c-0.9-0.5-1.8-1-2.7-1.5l-2.6-1.6c-0.4-0.3-0.9-0.5-1.3-0.8l-1.2-0.9l-2.5-1.8l-2.4-2l-1.2-1l-1.1-1.1l-2.2-2.2l-2-2.3
				C557,284.5,553,277.1,550.6,269.3z"/>
		</g>
		<g>
			<path class="st5" d="M562.8,267.2c2,2.6,4.1,5,6.4,7.4c2.2,2.4,4.6,4.6,7.1,6.7c4.9,4.2,10.4,7.8,16.3,10.6
				c5.8,2.8,12.2,4.6,18.6,5.3c6.4,0.7,13,0.3,19.3-1.4c-3.1,1.1-6.3,1.7-9.6,2.1c-3.3,0.3-6.6,0.3-9.8,0.1
				c-6.5-0.6-13-2.4-18.9-5.2c-5.9-2.8-11.4-6.5-16.3-10.9C570.9,277.5,566.5,272.5,562.8,267.2z"/>
		</g>
		<g>
			<path class="st5" d="M573,264.1c3.2,2.4,6.6,4.6,10.2,6.3c3.6,1.8,7.3,3.2,11.2,4.2c3.8,1.1,7.8,1.7,11.8,1.9l3,0.1l3-0.1l3-0.2
				c1-0.1,2-0.2,3-0.3c-1,0.2-2,0.4-3,0.6l-3,0.4l-3,0.2l-3,0c-4.1-0.1-8.1-0.7-12-1.7c-3.9-1.1-7.7-2.5-11.3-4.5
				C579.3,269.2,575.9,266.9,573,264.1z"/>
		</g>
		<g>
			<path class="st5" d="M639.1,357.5c0.3,2.7,0.6,5.5,0.9,8.2c0.4,2.7,0.8,5.4,1.5,8c0.7,2.6,1.6,5.2,2.8,7.6
				c0.6,1.2,1.3,2.4,2.1,3.5c0.8,1.1,1.7,2.1,2.6,3.1c-1.1-0.8-2.1-1.8-3-2.8c-0.9-1.1-1.7-2.2-2.4-3.4c-1.4-2.4-2.4-5-3.1-7.7
				c-0.7-2.7-1.1-5.4-1.2-8.2C639,363,639,360.2,639.1,357.5z"/>
		</g>
		<g>
			<path class="st5" d="M624.1,373.1c0,3.1,0.3,6.2,1,9.1c0.7,3,1.7,5.9,3.1,8.6c1.3,2.7,3,5.3,5,7.7l1.5,1.7l1.6,1.6l1.7,1.5
				c0.6,0.5,1.2,1,1.8,1.4c-0.7-0.4-1.3-0.8-2-1.2l-1.9-1.4l-1.7-1.5l-1.6-1.7c-2.1-2.3-3.9-4.9-5.3-7.7c-1.4-2.8-2.4-5.8-2.9-8.9
				l-0.3-2.3l-0.2-2.3l0-2.3C623.9,374.7,624,373.9,624.1,373.1z"/>
		</g>
		<g>
			<path class="st5" d="M609.2,380.2c-0.1,2.6-0.1,5.2,0.1,7.8c0.2,2.6,0.6,5.1,1.2,7.7c0.6,2.5,1.3,5,2.3,7.4l0.7,1.8l0.8,1.8
				l0.8,1.8c0.3,0.6,0.6,1.2,0.9,1.7c-0.4-0.5-0.8-1.1-1.1-1.6l-1-1.7l-0.9-1.7l-0.9-1.8c-1.1-2.4-1.9-4.9-2.5-7.5
				c-0.6-2.6-0.9-5.2-1-7.8C608.5,385.4,608.7,382.8,609.2,380.2z"/>
		</g>
		<g>
			<path class="st5" d="M501,369.1c2.2-0.8,4.3-1.7,6.3-2.9c2-1.2,3.9-2.5,5.6-4c1.7-1.5,3.3-3.2,4.7-5l1-1.4l0.9-1.4l0.9-1.5
				c0.3-0.5,0.5-1,0.8-1.5c-0.2,0.6-0.4,1.1-0.6,1.7l-0.7,1.6l-0.8,1.5l-0.9,1.5c-1.3,2-2.9,3.7-4.7,5.3c-1.8,1.5-3.8,2.9-5.9,3.9
				C505.6,368,503.4,368.8,501,369.1z"/>
		</g>
		<g>
			<path class="st5" d="M506.1,388.6c2.4-0.8,4.5-2,6.5-3.4c2-1.5,3.7-3.1,5.3-5c1.6-1.8,3-3.8,4.4-5.9c0.7-1,1.4-2.1,2-3.1
				c0.7-1,1.3-2.1,2.1-3.1c-0.5,1.1-1.1,2.2-1.6,3.4c-0.6,1.1-1.2,2.2-1.8,3.3c-1.3,2.2-2.7,4.2-4.3,6.1c-1.7,1.9-3.5,3.6-5.7,5
				c-1.1,0.7-2.2,1.3-3.3,1.8C508.6,388,507.4,388.4,506.1,388.6z"/>
		</g>
		<g>
			<path class="st5" d="M524.5,397.6c2.2-1.9,4.2-3.9,5.8-6.3c1.6-2.3,2.8-4.9,3.8-7.7c-0.2,2.9-1.3,5.8-2.9,8.2
				C529.4,394.3,527.1,396.4,524.5,397.6z"/>
		</g>
	</g>
</g>
</svg>
